<?xml version="1.0" standalone="no"?>
<!DOCTYPE svg PUBLIC "-//W3C//DTD SVG 20010904//EN"
 "http://www.w3.org/TR/2001/REC-SVG-20010904/DTD/svg10.dtd">
<svg version="1.0" xmlns="http://www.w3.org/2000/svg"
 width="255.000000pt" height="170.000000pt" viewBox="0 0 255.000000 170.000000"
 preserveAspectRatio="xMidYMid meet">
<metadata>
Created by potrace 1.15, written by Peter Selinger 2001-2017
</metadata>
<g transform="translate(0.000000,170.000000) scale(0.100000,-0.100000)"
fill="#000000" stroke="none">
<path d="M115 1563 c-63 -75 -115 -139 -115 -143 0 -3 16 -21 35 -40 34 -33
35 -33 55 -15 20 18 20 18 20 -23 0 -25 5 -42 11 -42 8 0 10 15 5 48 -10 79 6
85 63 26 35 -36 53 -48 60 -41 15 15 14 30 -1 21 -8 -4 -10 -3 -5 2 5 5 14 9
19 9 6 0 32 26 57 57 25 32 76 93 113 136 l67 80 -35 33 c-19 18 -35 30 -35
26 -1 -4 -3 -11 -4 -17 -1 -5 -3 -14 -4 -20 0 -5 -6 -10 -11 -10 -6 0 -8 11
-4 25 l6 25 -91 0 -90 0 -116 -137z"/>
<path d="M1950 1649 c-25 -28 -49 -58 -54 -67 -5 -10 -22 -32 -37 -51 -22 -27
-26 -38 -17 -48 8 -10 7 -12 -5 -7 -11 4 -24 -7 -44 -36 -15 -23 -45 -60 -66
-82 l-37 -40 33 -38 34 -37 35 33 c19 17 48 49 64 70 16 21 82 107 147 191 64
83 117 154 117 157 0 3 -28 6 -62 6 -63 -1 -63 -1 -108 -51z"/>
<path d="M2204 1684 c14 -37 18 -74 9 -74 -6 0 -13 14 -17 31 -5 27 -8 30 -21
19 -17 -14 -5 -31 166 -232 73 -85 105 -116 119 -113 15 3 18 -1 14 -23 l-4
-27 20 25 c11 14 30 39 42 55 l22 30 -25 -22 c-14 -13 -29 -23 -33 -23 -5 0
-20 10 -35 23 -18 15 -27 34 -30 62 -1 22 -7 43 -13 46 -7 4 -6 14 1 28 10 18
9 20 -5 14 -11 -4 -15 -2 -11 4 10 17 -3 42 -28 56 -18 9 -20 15 -11 23 11 10
57 -40 159 -173 l27 -36 0 78 0 77 -76 84 -76 84 -55 0 c-54 0 -55 0 -49 -27
16 -80 18 -103 8 -103 -5 0 -13 17 -16 38 -15 86 -17 92 -37 92 -16 0 -17 -4
-9 -26 13 -32 13 -54 0 -54 -5 0 -12 16 -16 35 -3 19 -11 38 -17 42 -7 4 -8 0
-3 -13z"/>
<path d="M1166 1146 c-22 -8 -51 -26 -65 -41 -24 -23 -26 -32 -24 -97 1 -46 7
-76 16 -85 12 -13 15 -9 21 27 11 69 78 117 145 105 39 -7 104 -66 116 -104
l7 -24 -27 21 c-16 13 -42 22 -61 22 -32 0 -34 -2 -34 -35 0 -36 28 -75 53
-75 17 0 42 20 55 45 11 19 11 19 12 -5 0 -19 3 -21 12 -12 16 16 33 15 19 -1
-18 -22 -1 -27 21 -7 19 17 19 20 4 35 -18 19 -19 23 -16 90 1 38 -4 57 -19
77 -52 66 -154 93 -235 64z"/>
<path d="M0 694 c1 -51 6 -98 13 -110 16 -27 130 -154 139 -154 3 0 8 6 11 13
2 6 2 2 0 -10 -2 -14 8 -35 29 -59 l32 -36 22 27 c12 16 20 35 17 44 -4 12 -3
13 4 3 8 -10 12 -10 23 3 10 13 10 18 -2 33 -49 58 -145 168 -154 177 -6 5
-31 37 -56 70 -77 102 -78 102 -78 -1z"/>
<path d="M2460 626 c-47 -57 -95 -117 -107 -133 l-22 -28 56 -57 57 -57 52 72
53 72 1 118 c0 64 -1 117 -2 117 -2 0 -41 -47 -88 -104z"/>
<path d="M1036 634 c-57 -61 -78 -76 -127 -93 -65 -22 -105 -60 -127 -119 -9
-27 -42 -235 -42 -268 0 -3 16 -12 35 -20 32 -13 35 -18 36 -57 1 -28 3 -33 6
-15 3 18 12 28 29 32 57 15 92 -18 77 -72 l-5 -22 321 0 321 0 0 59 c0 52 2
59 23 65 31 8 31 8 57 -14 20 -17 22 -26 17 -65 -4 -27 -3 -45 3 -45 6 0 10
19 10 43 0 85 10 112 42 125 24 9 29 15 23 29 -4 10 -18 68 -31 128 -13 61
-27 120 -29 133 -11 49 -56 81 -155 110 -52 16 -105 34 -117 40 -19 10 -20 9
-16 -9 12 -44 -63 -91 -145 -90 -105 1 -192 70 -150 118 16 19 32 84 20 82 -4
-1 -38 -34 -76 -75z"/>
<path d="M2099 169 c-36 -41 -82 -95 -103 -121 l-38 -48 89 0 90 0 57 67 c31
37 56 70 56 73 0 3 -19 27 -43 54 l-43 49 -65 -74z"/>
</g>
</svg>
