<?xml version="1.0" standalone="no"?>
<!DOCTYPE svg PUBLIC "-//W3C//DTD SVG 20010904//EN"
 "http://www.w3.org/TR/2001/REC-SVG-20010904/DTD/svg10.dtd">
<svg version="1.0" xmlns="http://www.w3.org/2000/svg"
 width="255.000000pt" height="170.000000pt" viewBox="0 0 255.000000 170.000000"
 preserveAspectRatio="xMidYMid meet">
<metadata>
Created by potrace 1.15, written by Peter Selinger 2001-2017
</metadata>
<g transform="translate(0.000000,170.000000) scale(0.100000,-0.100000)"
fill="#000000" stroke="none">
<path d="M1779 1695 c-4 -14 -6 -21 -13 -35 -3 -9 -5 -38 -2 -65 2 -28 -1 -55
-6 -62 -7 -9 -5 -17 6 -28 21 -21 66 -167 73 -235 3 -30 10 -60 15 -67 5 -7 7
-17 3 -23 -3 -5 1 -10 9 -10 8 0 21 -9 29 -20 8 -11 16 -18 19 -15 3 3 11 -3
19 -12 12 -16 12 -17 -2 -5 -14 11 -17 8 -23 -19 -3 -17 -2 -38 3 -48 17 -32
39 -141 29 -147 -5 -3 -1 -13 10 -22 10 -10 21 -26 25 -37 3 -11 15 -47 26
-79 27 -76 26 -84 -4 -82 -19 1 -25 7 -25 24 0 12 6 22 13 22 9 0 9 2 -1 9 -8
4 -13 17 -12 27 4 32 1 44 -11 44 -6 0 -17 7 -25 15 -14 13 -13 15 2 15 17 0
17 1 1 17 -9 9 -18 15 -20 12 -2 -2 -21 -31 -43 -64 -61 -94 -158 -191 -222
-222 -52 -26 -66 -28 -173 -28 -97 0 -118 3 -133 17 -10 10 -13 18 -8 18 5 0
7 10 5 23 -2 12 3 31 12 42 14 17 16 17 11 3 -7 -23 13 -23 29 -1 11 15 18 16
47 6 37 -14 89 -5 96 16 3 10 0 11 -17 2 -11 -7 -21 -9 -21 -6 0 3 21 15 48
28 46 22 47 24 46 65 0 26 2 38 7 30 6 -8 9 -3 9 17 0 23 -3 27 -10 15 -8 -12
-10 -11 -10 8 0 25 -18 30 -26 7 -4 -8 -10 -12 -15 -9 -10 6 -1 -24 15 -46 8
-12 8 -13 -4 -3 -25 23 -38 14 -55 -37 -17 -50 -38 -80 -57 -80 -6 0 -7 12 -3
31 5 22 4 29 -4 25 -6 -4 -11 -14 -11 -21 0 -9 -6 -12 -16 -8 -22 8 -15 82 10
97 11 6 28 19 38 29 10 9 24 17 31 17 12 0 57 84 57 108 0 7 5 10 11 6 7 -4 9
-22 6 -46 -4 -32 -3 -37 8 -28 8 6 14 19 14 28 0 9 3 53 7 97 l8 80 12 -50 12
-50 2 55 c2 53 2 54 12 23 13 -40 30 -44 22 -5 -4 19 -1 32 10 41 14 12 16 10
16 -12 0 -14 5 -29 10 -32 6 -3 10 -14 10 -24 0 -10 8 -25 17 -32 15 -12 16
-12 10 4 -3 9 -2 17 2 17 12 0 61 -84 61 -105 0 -9 4 -14 9 -10 16 9 -6 66
-38 99 -35 38 -46 60 -55 109 -5 29 -4 37 4 32 9 -5 10 -1 5 15 -5 15 -2 25 6
31 11 7 11 9 -2 9 -12 0 -18 13 -22 54 -7 74 -58 177 -105 214 -45 36 -123 63
-130 44 -2 -7 -17 -12 -32 -12 -16 0 -31 -4 -35 -10 -3 -5 -12 -7 -19 -4 -22
8 -83 -35 -100 -71 -9 -19 -30 -77 -46 -130 l-30 -97 27 -45 c19 -33 23 -47
14 -53 -9 -5 -6 -14 11 -35 l24 -27 -1 65 c0 39 4 62 9 57 5 -5 8 -42 7 -81
-2 -69 -1 -72 16 -58 16 13 17 12 4 -3 -7 -10 -17 -15 -22 -12 -5 3 -9 -2 -9
-11 0 -21 -38 -75 -52 -75 -7 0 -2 10 9 23 30 33 36 81 14 101 -17 16 -19 16
-26 -1 -4 -10 -9 -31 -10 -48 -1 -16 -3 -32 -5 -35 -1 -3 -3 -9 -4 -15 -1 -5
-5 -17 -9 -25 -13 -31 -24 -120 -15 -120 5 0 8 -6 5 -12 -2 -7 -10 -12 -16
-11 -7 2 -11 -12 -11 -36 0 -22 -6 -44 -15 -51 -8 -7 -15 -22 -15 -33 0 -14
-3 -18 -10 -11 -5 5 -11 67 -12 136 -1 70 -6 124 -10 122 -14 -9 -66 -131 -94
-218 -28 -89 -80 -212 -99 -236 -17 -22 -52 -98 -66 -147 -9 -33 -10 -52 -1
-82 15 -49 48 -91 73 -91 24 0 24 -11 -1 -52 -11 -18 -20 -41 -20 -50 0 -17
28 -18 439 -18 l439 0 -8 34 c-8 37 -1 224 9 230 6 4 6 -73 1 -175 -4 -71 5
-89 46 -89 19 0 34 1 34 3 0 2 -7 27 -16 56 -25 86 -2 116 66 81 22 -11 59
-20 84 -20 40 0 45 -2 50 -28 3 -15 5 -34 4 -42 -5 -53 -18 -50 252 -50 l250
0 0 850 0 850 -292 0 -291 0 7 -212 c3 -117 8 -234 10 -260 3 -26 0 -50 -5
-53 -5 -4 -9 3 -9 14 0 12 -6 21 -14 21 -20 0 -29 -17 -14 -23 10 -4 9 -8 -2
-16 -8 -6 -18 -11 -22 -11 -14 0 -21 97 -10 150 12 66 7 223 -9 262 -9 23 -8
34 10 68 12 23 19 46 16 51 -6 9 -144 13 -146 4z m-348 -337 c19 -26 23 -43
21 -97 -1 -44 3 -73 14 -88 17 -27 11 -43 -17 -43 -16 0 -19 7 -19 43 -1 55
-18 77 -62 77 -39 0 -48 14 -48 75 0 22 7 35 28 47 39 25 58 22 83 -14z m-14
-200 c-7 -24 21 -58 46 -58 10 0 15 5 12 10 -3 6 -1 10 5 10 24 0 3 -24 -28
-32 -46 -12 -48 -25 -6 -43 41 -17 68 -20 59 -6 -3 5 -1 12 4 16 6 3 15 -4 21
-15 27 -50 -50 -68 -111 -27 -40 27 -84 100 -74 125 5 14 7 14 15 2 8 -12 10
-12 10 4 0 21 30 47 43 39 5 -3 6 -14 4 -25z m539 -636 c3 -10 10 -9 34 3 l30
16 0 -53 c0 -29 3 -63 6 -75 5 -20 3 -21 -45 -19 -53 3 -78 -5 -68 -21 3 -5
31 -6 61 -3 l56 6 0 -31 c0 -18 -2 -34 -5 -37 -3 -3 -29 -1 -58 3 -28 5 -75 5
-104 0 l-53 -8 22 36 c12 20 29 47 38 61 9 14 30 56 45 94 16 38 31 62 33 55
2 -8 5 -20 8 -27z"/>
<path d="M450 413 c0 -13 -8 -31 -18 -41 -10 -10 -18 -28 -19 -40 0 -12 -1
-31 -2 -43 -1 -16 -6 -19 -21 -14 -12 4 -26 2 -33 -3 -7 -6 -30 -12 -52 -15
-27 -2 -17 -4 30 -6 94 -2 108 -14 112 -93 3 -68 4 -80 0 -118 -3 -35 32 -38
67 -5 l28 26 -25 27 c-30 31 -45 99 -29 129 10 17 22 20 95 21 47 1 99 -3 117
-8 43 -12 88 4 70 25 -7 8 -19 15 -26 15 -8 0 -14 7 -14 15 0 22 -27 18 -52
-7 -19 -19 -34 -22 -92 -23 l-71 0 -9 50 c-5 28 -15 54 -22 58 -8 4 -14 16
-14 25 0 9 -5 24 -10 32 -8 12 -10 11 -10 -7z"/>
</g>
</svg>
