<?xml version="1.0" standalone="no"?>
<!DOCTYPE svg PUBLIC "-//W3C//DTD SVG 20010904//EN"
 "http://www.w3.org/TR/2001/REC-SVG-20010904/DTD/svg10.dtd">
<svg version="1.0" xmlns="http://www.w3.org/2000/svg"
 width="255.000000pt" height="170.000000pt" viewBox="0 0 255.000000 170.000000"
 preserveAspectRatio="xMidYMid meet">
<metadata>
Created by potrace 1.15, written by Peter Selinger 2001-2017
</metadata>
<g transform="translate(0.000000,170.000000) scale(0.100000,-0.100000)"
fill="#000000" stroke="none">
<path d="M1213 1558 c-23 -4 -50 -11 -60 -17 -22 -11 -58 -71 -44 -71 6 0 11
5 11 10 0 16 43 11 67 -8 12 -9 35 -41 52 -69 29 -50 29 -53 10 -53 -11 0 -27
7 -35 15 -22 22 -84 31 -95 14 -6 -10 -11 -11 -16 -3 -9 13 -73 7 -73 -7 0 -5
7 -6 16 -2 17 6 54 -28 54 -50 0 -7 5 -18 12 -25 9 -9 6 -12 -15 -12 -15 0
-27 -4 -27 -10 0 -5 4 -10 10 -10 5 0 3 -20 -5 -46 -7 -25 -11 -53 -8 -62 4
-10 2 -13 -5 -8 -14 8 -32 -24 -32 -58 0 -14 -8 -30 -17 -36 -13 -8 -14 -13
-5 -16 15 -7 15 -34 1 -54 -9 -13 -10 -13 -6 1 3 9 1 22 -3 30 -7 11 -15 11
-44 -3 -41 -20 -59 -45 -80 -113 -21 -68 -48 -244 -51 -332 -2 -39 -6 -76 -9
-82 -4 -6 -11 -36 -16 -66 -9 -57 -1 -100 23 -120 14 -11 79 -137 73 -142 -8
-8 -35 10 -29 20 3 6 1 7 -5 3 -6 -4 -9 -13 -6 -20 3 -8 -4 -16 -15 -19 -12
-3 -21 -10 -21 -16 0 -6 7 -8 16 -4 14 5 16 2 10 -21 -4 -15 -4 -43 0 -62 l6
-34 159 0 c94 0 160 4 164 10 3 5 11 10 16 10 6 0 7 -5 4 -10 -4 -7 99 -10
314 -10 191 1 323 5 326 10 4 6 12 10 18 10 7 0 6 -4 -3 -10 -13 -8 -13 -10 1
-10 9 0 22 6 28 14 7 8 20 12 30 9 9 -2 23 3 30 11 8 9 20 16 28 16 8 0 11 5
8 11 -4 6 -13 8 -21 5 -7 -3 -18 3 -23 12 -9 16 -10 16 -16 0 -4 -11 -18 -18
-32 -18 -14 0 -22 -4 -18 -10 4 -7 -2 -9 -18 -5 -17 5 -39 -1 -66 -17 -34 -19
-43 -20 -50 -9 -5 7 -6 22 -4 32 4 15 0 19 -18 19 -18 0 -20 -3 -10 -9 10 -7
7 -9 -12 -8 -14 1 -25 6 -24 11 1 5 -4 11 -12 14 -8 3 -11 0 -7 -7 4 -6 0 -11
-10 -11 -14 0 -13 5 9 33 19 25 32 32 58 32 19 1 37 -4 42 -10 4 -6 19 4 37
25 33 39 38 60 14 60 -8 0 -12 -4 -9 -10 8 -13 -8 -13 -22 1 -6 6 -20 8 -32 4
-30 -9 -26 -23 5 -17 19 3 25 1 20 -7 -4 -6 -2 -11 3 -11 6 0 11 -5 11 -11 0
-6 -7 -8 -16 -5 -9 4 -22 1 -30 -5 -8 -6 -19 -7 -29 -2 -14 8 -11 16 19 60 37
54 66 136 59 168 -7 35 -15 157 -15 252 -1 68 -4 93 -14 97 -8 3 -14 18 -14
33 0 39 -27 151 -47 196 -12 28 -24 39 -52 47 -20 6 -47 19 -61 29 -20 16 -22
22 -11 35 9 11 11 30 6 68 -6 43 -15 60 -45 90 -24 25 -47 38 -64 38 -31 0
-32 7 -8 34 10 12 24 39 30 61 6 22 25 55 43 74 26 29 30 39 24 70 -10 56 -29
71 -71 58 -38 -12 -44 -31 -14 -47 11 -6 20 -18 20 -28 0 -12 -9 -7 -29 18
-16 19 -27 39 -24 45 4 5 3 7 -2 3 -4 -4 -16 -3 -26 3 -29 15 -139 26 -186 17z"/>
<path d="M7 1434 c-4 -4 -7 -126 -7 -271 0 -227 2 -263 15 -263 13 0 15 32 14
233 0 228 -7 316 -22 301z"/>
<path d="M2498 1349 c-9 -5 -29 -7 -42 -5 -14 3 -28 0 -31 -5 -4 -5 9 -9 28
-9 52 0 60 -19 43 -97 -5 -22 -4 -33 3 -33 7 0 11 -24 11 -60 l0 -61 -34 6
c-20 4 -36 2 -40 -4 -5 -7 5 -11 28 -11 34 0 61 -20 37 -28 -15 -5 -51 -43
-51 -54 0 -18 21 -7 32 17 18 39 24 30 24 -35 0 -42 -4 -60 -13 -60 -7 0 -13
-7 -13 -16 0 -14 3 -14 15 -4 13 11 15 7 15 -23 0 -39 -24 -56 -57 -39 -10 5
-27 6 -39 2 -22 -9 -41 -40 -24 -40 6 0 10 5 10 11 0 8 17 10 55 5 35 -4 55
-2 55 4 0 5 9 10 20 10 20 0 20 7 20 270 0 251 -1 270 -17 270 -10 0 -26 -5
-35 -11z"/>
</g>
</svg>
