<?xml version="1.0" standalone="no"?>
<!DOCTYPE svg PUBLIC "-//W3C//DTD SVG 20010904//EN"
 "http://www.w3.org/TR/2001/REC-SVG-20010904/DTD/svg10.dtd">
<svg version="1.0" xmlns="http://www.w3.org/2000/svg"
 width="255.000000pt" height="170.000000pt" viewBox="0 0 255.000000 170.000000"
 preserveAspectRatio="xMidYMid meet">
<metadata>
Created by potrace 1.15, written by Peter Selinger 2001-2017
</metadata>
<g transform="translate(0.000000,170.000000) scale(0.100000,-0.100000)"
fill="#000000" stroke="none">
<path d="M0 1640 c0 -47 4 -61 18 -69 21 -11 42 3 42 26 0 8 13 13 36 13 l36
0 -4 -77 c-2 -64 0 -78 12 -78 11 0 15 12 15 50 0 28 4 56 8 63 15 22 54 13
81 -19 22 -26 29 -29 42 -18 8 7 14 22 13 33 -3 45 1 56 22 56 17 0 19 -3 10
-14 -9 -11 -5 -15 20 -20 17 -3 41 -3 53 0 16 4 33 -3 56 -22 29 -25 32 -32
27 -71 l-5 -43 87 -2 c47 -1 94 -2 104 -1 10 0 16 -3 15 -6 -2 -3 -10 -23 -18
-43 l-14 -38 -246 0 c-243 0 -247 0 -267 -22 -11 -13 -23 -32 -27 -42 -6 -18
-11 -16 -47 20 -30 30 -42 51 -46 82 -3 23 -9 39 -14 36 -5 -3 -9 -124 -9
-270 l0 -264 48 0 c64 0 147 -23 147 -40 0 -22 39 -28 182 -29 121 -1 135 1
166 22 19 12 48 30 63 39 16 10 40 26 54 37 20 16 32 18 65 11 22 -4 32 -8 22
-9 -9 0 -22 -12 -28 -25 -13 -27 -41 -25 -32 2 4 13 3 14 -6 6 -8 -7 -9 -18
-2 -36 5 -14 8 -44 7 -67 -2 -22 1 -41 7 -41 5 0 7 -7 3 -15 -4 -11 3 -14 33
-12 22 1 37 5 34 10 -8 13 14 7 27 -8 7 -8 27 -15 44 -16 26 0 28 -2 11 -9
-11 -5 -14 -9 -7 -9 23 -2 2 -21 -22 -21 -42 0 -86 -21 -92 -44 -7 -30 12 -77
34 -83 10 -2 27 -21 38 -41 28 -53 63 -92 84 -92 28 0 43 26 36 63 -4 23 0 45
13 72 18 37 19 38 23 15 2 -16 13 15 30 80 15 58 29 114 32 125 3 11 4 -4 2
-33 -4 -65 2 -61 25 20 l18 63 0 -55 c0 -30 2 -80 4 -110 1 -30 -3 -70 -10
-88 -7 -18 -8 -32 -2 -32 5 0 9 4 9 8 0 5 7 17 15 28 14 18 14 17 9 -16 -4
-19 -13 -46 -22 -60 l-15 -25 28 19 c15 10 25 14 21 8 -3 -5 1 -12 9 -16 11
-4 15 2 15 20 0 14 5 30 11 37 5 7 19 27 30 46 22 37 37 36 19 -1 l-11 -23 18
23 c44 57 65 77 58 57 -4 -11 -8 -29 -10 -40 -1 -11 -3 -24 -4 -28 0 -5 -5 -6
-10 -2 -5 3 -13 0 -17 -6 -4 -8 -3 -9 4 -5 15 9 15 4 0 -31 -16 -37 -73 -105
-64 -76 4 12 3 24 -3 27 -10 7 -25 -22 -22 -42 1 -7 -5 -15 -14 -19 -13 -4
-14 -8 -4 -13 9 -6 9 -12 -4 -24 -9 -9 -14 -23 -11 -30 3 -8 1 -17 -5 -21 -6
-3 -11 -1 -11 4 0 6 -7 11 -16 11 -8 0 -12 -4 -9 -10 12 -19 -12 -10 -38 14
l-26 24 -16 -25 c-9 -14 -14 -27 -12 -29 3 -3 79 -8 169 -11 174 -6 347 7 408
31 19 8 88 31 153 52 65 21 121 42 123 46 9 14 -26 60 -41 54 -9 -3 -12 0 -9
8 3 7 -13 35 -35 60 -23 26 -41 52 -41 57 0 16 -63 49 -93 49 -26 0 -28 -3
-23 -27 8 -43 8 -133 -2 -183 -8 -44 -8 -44 -14 35 -3 44 -10 89 -14 100 -5
14 -4 17 4 10 5 -5 12 -19 15 -30 3 -11 3 3 0 30 -3 28 -12 57 -21 65 -13 13
-14 13 -8 -2 3 -10 9 -26 12 -35 3 -10 -6 -3 -22 16 -26 32 -28 33 -35 13 -4
-11 -6 -33 -3 -47 3 -17 1 -24 -6 -20 -5 3 -7 0 -4 -9 3 -8 0 -25 -7 -37 -9
-17 -9 -24 -1 -27 9 -3 9 -9 1 -24 -11 -21 -8 -98 6 -131 4 -10 3 -17 -4 -17
-5 0 -16 18 -22 40 -14 47 -32 54 -25 9 3 -23 2 -29 -6 -21 -7 7 -10 58 -9
137 1 83 -2 124 -9 120 -5 -3 -10 -10 -10 -15 0 -12 -51 -123 -59 -130 -4 -3
-14 -18 -24 -33 -18 -29 -45 -29 -28 0 4 9 6 23 4 32 -2 9 6 27 18 39 17 19
93 221 85 229 -1 2 -16 -3 -33 -9 -44 -17 -133 4 -169 40 -45 45 -64 83 -53
104 15 29 0 42 -24 21 -16 -14 -15 -10 6 22 15 22 34 62 43 90 34 102 168 245
231 245 26 0 43 -44 24 -63 -20 -20 -12 -31 9 -12 19 18 20 17 36 -21 9 -21
20 -75 24 -119 4 -44 12 -81 19 -83 6 -2 9 -8 6 -13 -3 -4 3 -14 15 -21 11 -7
20 -17 20 -23 1 -5 21 -30 45 -55 l44 -45 233 -5 c128 -3 338 -4 465 -2 l233
3 0 270 0 270 -572 -7 -573 -6 -26 49 -27 49 28 -4 c16 -2 43 3 61 12 30 15
34 15 50 0 16 -14 67 -15 496 -10 263 3 497 5 521 6 l42 0 0 125 0 125 -1275
0 -1275 0 0 -60z"/>
<path d="M549 824 c-11 -13 -10 -17 4 -25 9 -6 17 -22 17 -36 0 -30 81 -199
126 -263 17 -25 39 -60 48 -77 18 -36 46 -57 90 -67 23 -6 27 -4 23 9 -5 11 1
10 23 -6 31 -24 53 -21 69 10 10 18 9 18 -19 8 -25 -9 -33 -8 -47 6 -16 16
-16 17 10 17 15 0 27 4 27 9 0 6 -12 6 -32 0 -18 -5 -34 -9 -35 -9 -2 0 -12
19 -24 42 -12 23 -43 65 -70 94 -69 72 -73 109 -20 157 37 33 38 35 17 39 -13
3 -32 1 -43 -3 -27 -10 -67 -75 -59 -96 5 -13 4 -14 -8 -4 -16 13 -51 120 -42
128 5 5 -31 83 -38 83 -2 0 -10 -7 -17 -16z"/>
<path d="M411 520 c-60 -34 -61 -38 -101 -408 -5 -46 -6 -90 -3 -98 4 -11 31
-14 134 -14 116 0 129 2 129 18 0 9 -7 62 -15 117 -8 55 -14 114 -14 130 l0
30 13 -30 c16 -36 49 -67 136 -126 72 -49 92 -59 165 -85 28 -9 57 -25 67 -35
9 -11 26 -19 38 -19 20 0 21 2 9 17 -13 15 -12 15 9 4 25 -13 43 -7 26 8 -5 5
-36 16 -69 26 -33 9 -110 43 -171 76 -105 55 -128 74 -200 161 -25 30 -59 117
-68 173 -6 35 -30 76 -45 74 -3 0 -22 -9 -40 -19z"/>
<path d="M1674 337 c-39 -40 -95 -103 -124 -142 -74 -97 -139 -165 -175 -181
-26 -12 1 -13 213 -14 133 0 242 3 242 8 0 4 -5 34 -11 67 -5 33 -14 87 -18
120 -12 85 -42 215 -50 214 -3 0 -38 -33 -77 -72z"/>
<path d="M577 363 c-14 -13 -7 -32 10 -26 13 5 15 2 10 -11 -4 -9 -3 -15 1
-12 5 3 15 -4 22 -15 8 -10 20 -19 27 -19 15 0 17 -26 3 -35 -5 -3 -10 -11
-10 -17 0 -7 5 -6 14 1 12 10 20 9 40 -4 14 -9 23 -22 20 -29 -3 -7 2 -13 9
-13 8 0 43 -13 78 -30 35 -17 75 -34 89 -38 25 -8 25 -7 7 13 -11 11 -62 50
-116 86 -53 36 -116 86 -141 111 -45 46 -52 50 -63 38z"/>
</g>
</svg>
