<?xml version="1.0" standalone="no"?>
<!DOCTYPE svg PUBLIC "-//W3C//DTD SVG 20010904//EN"
 "http://www.w3.org/TR/2001/REC-SVG-20010904/DTD/svg10.dtd">
<svg version="1.0" xmlns="http://www.w3.org/2000/svg"
 width="375.000000pt" height="667.000000pt" viewBox="0 0 375.000000 667.000000"
 preserveAspectRatio="xMidYMid meet">
<metadata>
Created by potrace 1.15, written by Peter Selinger 2001-2017
</metadata>
<g transform="translate(0.000000,667.000000) scale(0.100000,-0.100000)"
fill="#000000" stroke="none">
<path d="M0 3335 l0 -3335 1875 0 1875 0 0 3335 0 3335 -1875 0 -1875 0 0
-3335z m3411 2824 c17 -17 20 -29 16 -56 -5 -28 -1 -40 19 -60 34 -34 21 -44
-14 -11 -20 20 -34 25 -54 21 -43 -8 -78 20 -78 62 0 59 68 87 111 44z m-3053
-1609 c94 -57 94 -183 0 -240 -117 -71 -259 71 -188 188 26 42 76 72 120 72
19 0 50 -9 68 -20z m1570 0 c94 -57 94 -183 0 -240 -117 -71 -259 71 -188 188
26 42 76 72 120 72 19 0 50 -9 68 -20z m-631 -2233 c66 -66 52 -167 -29 -217
-117 -71 -259 71 -188 188 50 81 151 95 217 29z m1591 23 c94 -57 94 -183 0
-240 -64 -39 -146 -16 -189 52 -40 65 -6 168 66 198 35 15 89 11 123 -10z
m-1005 -1844 c59 -33 104 -63 100 -67 -5 -4 -56 -33 -115 -64 l-108 -57 0 127
c0 70 4 125 8 123 4 -1 56 -30 115 -62z m582 -1 c50 -31 55 -31 55 0 0 14 3
25 7 25 15 0 132 -74 127 -81 -7 -11 -110 -69 -123 -69 -6 0 -11 12 -11 26 l0
26 -44 -26 c-25 -14 -49 -26 -55 -26 -7 0 -11 28 -11 75 0 41 3 75 8 75 4 0
25 -11 47 -25z m-1235 -10 c0 -14 2 -25 4 -25 2 0 24 11 47 25 24 14 47 25 52
25 4 0 7 -34 7 -75 0 -50 -4 -75 -12 -75 -6 0 -31 11 -55 25 l-43 26 0 -26 c0
-14 -5 -25 -11 -25 -19 0 -130 63 -127 72 4 11 109 76 126 77 6 1 12 -10 12
-24z"/>
</g>
</svg>
