<?xml version="1.0" standalone="no"?>
<!DOCTYPE svg PUBLIC "-//W3C//DTD SVG 20010904//EN"
 "http://www.w3.org/TR/2001/REC-SVG-20010904/DTD/svg10.dtd">
<svg version="1.0" xmlns="http://www.w3.org/2000/svg"
 width="375.000000pt" height="667.000000pt" viewBox="0 0 375.000000 667.000000"
 preserveAspectRatio="xMidYMid meet">
<metadata>
Created by potrace 1.15, written by Peter Selinger 2001-2017
</metadata>
<g transform="translate(0.000000,667.000000) scale(0.100000,-0.100000)"
fill="#000000" stroke="none">
<path d="M0 3335 l0 -3335 1875 0 1875 0 0 2479 0 2479 -24 4 c-47 9 -86 -3
-92 -29 l-6 -24 -12 23 c-13 27 -53 35 -99 19 -17 -6 -34 -8 -38 -4 -14 14
-109 2 -109 -13 0 -8 -4 -14 -10 -14 -5 0 -10 7 -10 15 0 19 -110 21 -128 3
-10 -10 -15 -10 -20 -1 -5 8 -44 11 -132 8 -168 -6 -158 -6 -220 -3 -54 3 -55
3 -58 36 -4 43 -22 31 -22 -16 0 -39 -15 -34 -23 8 -4 24 -4 24 -6 -2 -1 -27
-3 -28 -53 -28 -37 0 -49 3 -38 10 12 7 10 9 -7 7 -12 0 -21 -5 -20 -10 1 -5
-4 -12 -10 -14 -8 -3 -13 5 -14 19 -1 17 -3 18 -6 6 -7 -27 -19 -21 -31 15 -8
25 -10 27 -11 10 -2 -35 -21 -38 -21 -3 0 26 -2 29 -13 18 -8 -7 -17 -20 -20
-28 -4 -8 -4 2 -1 23 4 24 2 37 -5 37 -6 0 -11 -9 -11 -20 0 -11 -6 -20 -14
-20 -14 0 -26 48 -26 105 0 42 -19 12 -21 -35 -2 -30 -3 -28 -9 15 -6 45 -7
46 -8 13 -2 -41 -20 -59 -34 -34 -11 19 -34 21 -41 4 -5 -15 -13 16 -22 85 -6
46 -25 67 -25 27 0 -25 -20 -27 -20 -2 0 9 -7 25 -14 35 -12 16 -14 15 -20
-14 -3 -17 -6 -42 -6 -55 0 -36 -17 -29 -24 10 -4 19 -13 39 -21 46 -13 11
-15 7 -16 -26 -1 -22 -3 -30 -6 -19 -2 11 -6 30 -9 43 -7 34 -24 16 -25 -26
l-1 -37 -8 33 c-10 42 -20 52 -20 21 0 -13 -7 -33 -15 -43 -13 -17 -15 -18
-15 -3 0 9 5 17 11 17 6 0 3 9 -5 22 -16 23 -56 35 -56 17 0 -6 -7 -4 -15 5
-8 8 -15 19 -15 25 0 16 -18 13 -28 -5 -8 -14 -10 -14 -25 1 -16 15 -17 15
-17 -2 0 -15 -4 -14 -21 7 -11 14 -18 19 -14 13 13 -26 -4 -12 -24 20 -17 26
-21 28 -22 12 0 -16 -3 -14 -13 9 -9 20 -15 25 -19 15 -2 -8 -8 6 -12 30 -8
42 -8 43 -21 20 l-14 -24 -6 23 c-3 12 -11 22 -16 22 -6 0 -8 7 -4 15 3 8 1
15 -4 15 -6 0 -10 -8 -11 -17 0 -12 -2 -13 -6 -5 -7 18 15 42 33 35 19 -7 64
5 64 17 0 6 -11 8 -27 4 -16 -4 -25 -3 -20 1 4 5 28 9 53 10 34 2 44 -1 40
-11 -3 -8 -1 -14 3 -14 5 0 11 4 13 10 4 11 12 12 176 8 67 -2 122 0 122 5 0
4 6 5 13 0 6 -4 20 -6 30 -5 11 2 17 -3 17 -17 0 -12 5 -21 11 -21 5 0 7 4 4
10 -3 5 1 20 9 32 13 18 16 19 16 6 0 -19 40 -21 53 -3 5 7 9 7 15 -1 4 -6 37
-10 82 -9 42 1 78 -3 82 -8 4 -7 16 -4 32 7 14 9 26 12 26 6 0 -14 33 -13 48
2 9 9 12 9 12 -1 0 -10 9 -12 30 -8 16 4 32 2 35 -3 4 -7 14 -6 26 1 15 7 24
7 35 -2 11 -9 17 -9 29 1 8 6 19 9 25 5 6 -4 74 -9 151 -10 76 -2 143 -6 148
-10 5 -3 12 -1 16 5 3 5 17 7 30 4 12 -3 26 -1 30 6 5 8 10 8 20 0 10 -8 16
-7 23 6 8 15 9 15 15 -1 5 -11 13 -14 27 -10 32 10 180 13 186 3 3 -4 14 -3
25 3 15 8 24 7 35 -2 12 -10 16 -9 21 9 4 19 7 20 20 7 9 -9 24 -13 39 -9 16
4 24 2 24 -7 1 -10 4 -9 14 3 7 10 16 15 19 12 3 -4 31 -8 62 -9 l56 -2 -3 83
c-1 51 -6 84 -12 84 -6 0 -4 5 4 10 13 9 13 11 0 20 -8 5 -10 10 -4 10 8 0 11
153 13 520 l2 520 -1875 0 -1876 0 0 -3335z m580 517 c4 -43 8 -50 20 -42 25
16 69 11 90 -10 17 -17 20 -33 20 -105 0 -47 -4 -85 -9 -85 -5 0 -11 38 -12
85 -4 89 -12 105 -53 105 -42 0 -56 -28 -56 -112 0 -63 -3 -78 -15 -78 -13 0
-15 23 -15 151 0 116 3 150 13 147 6 -3 14 -28 17 -56z m2495 -84 c-2 -79 -5
-149 -5 -155 0 -7 -4 -13 -10 -13 -5 0 -10 6 -10 14 0 13 -4 13 -27 0 -39 -19
-58 -18 -89 9 -53 46 -40 178 20 193 13 3 39 4 57 2 l34 -3 -2 48 c-1 40 2 47
18 47 18 0 19 -7 14 -142z m-2866 85 c5 -21 17 -67 26 -103 24 -98 26 -100 42
-45 8 28 23 80 34 118 11 38 25 67 33 67 8 0 26 -46 47 -122 l33 -122 30 122
c20 81 35 122 44 122 8 0 11 -7 8 -17 -3 -10 -14 -56 -26 -103 -37 -150 -41
-160 -54 -160 -8 0 -26 46 -47 119 -18 66 -35 118 -36 117 -2 -2 -18 -54 -37
-117 -20 -71 -38 -115 -47 -117 -11 -2 -23 32 -47 130 -36 147 -36 148 -22
148 5 0 14 -17 19 -37z m698 -48 c28 -20 46 -77 38 -118 -14 -63 -64 -95 -121
-77 -46 15 -64 45 -64 103 0 40 5 53 29 78 33 33 82 39 118 14z m318 -10 c22
-22 25 -32 25 -105 0 -64 -3 -80 -15 -80 -8 0 -15 5 -15 11 0 8 -4 8 -15 -1
-26 -22 -85 -17 -106 9 -25 30 -24 49 3 78 17 18 32 23 70 23 44 0 48 2 48 25
0 44 -64 61 -100 25 -24 -24 -30 -25 -30 -5 0 19 47 44 83 45 17 0 38 -10 52
-25z m352 3 c12 -13 23 -36 25 -53 l3 -30 -76 -3 c-74 -3 -77 -4 -72 -25 9
-37 34 -57 69 -57 18 0 36 5 39 10 10 16 35 12 29 -4 -8 -22 -59 -39 -93 -31
-17 4 -40 18 -51 32 -36 46 -22 143 24 175 24 17 82 8 103 -14z m199 -50 c15
-40 30 -76 34 -80 3 -4 18 28 34 72 17 48 34 80 42 80 8 0 14 -2 14 -5 0 -21
-97 -262 -112 -277 -22 -22 -58 -24 -58 -3 0 8 5 15 12 15 20 0 48 32 48 56 0
12 -16 63 -35 113 -40 103 -40 101 -21 101 8 0 26 -30 42 -72z m290 64 c46
-32 60 -129 24 -175 -41 -51 -123 -43 -155 17 -25 46 -16 113 20 143 26 23 88
31 111 15z m541 -7 c19 -13 22 -26 25 -105 2 -67 0 -90 -9 -90 -7 0 -13 5 -13
10 0 6 -14 3 -31 -6 -55 -28 -109 -3 -109 52 0 40 29 64 80 64 19 0 40 4 46 8
18 11 -2 51 -30 58 -25 6 -66 -10 -66 -26 0 -6 -7 -10 -15 -10 -21 0 -19 16 5
40 24 24 86 27 117 5z m-2087 -371 c0 -50 2 -55 18 -49 39 17 73 17 92 0 17
-15 20 -31 20 -107 0 -52 -4 -88 -10 -88 -6 0 -10 33 -10 79 0 105 -29 136
-88 95 -20 -13 -22 -24 -22 -95 0 -64 -3 -79 -15 -79 -13 0 -15 23 -15 150 0
127 2 150 15 150 12 0 15 -13 15 -56z m-310 -76 c6 -24 17 -63 24 -88 l13 -45
29 88 c15 48 33 86 38 84 6 -2 22 -41 37 -88 l26 -84 17 60 c30 104 32 109 45
113 9 3 11 -2 8 -14 -44 -149 -60 -195 -70 -191 -6 2 -23 39 -38 83 -30 89
-30 89 -64 -31 -9 -30 -22 -55 -28 -55 -7 0 -25 44 -40 98 -31 107 -31 112
-17 112 5 0 14 -19 20 -42z m1117 27 c48 -34 54 -133 10 -172 -32 -29 -56 -35
-93 -23 -43 14 -64 49 -64 105 0 38 5 52 29 76 33 33 82 39 118 14z m648 -10
c16 -15 25 -36 25 -55 l0 -30 -76 0 c-74 0 -75 -1 -68 -22 11 -38 35 -58 70
-58 18 0 36 5 39 10 3 6 13 10 22 10 26 0 -13 -38 -47 -45 -33 -7 -84 16 -100
44 -13 26 -13 94 1 125 23 49 95 61 134 21z m-855 -455 c0 -93 -4 -150 -10
-150 -5 0 -10 4 -10 9 0 5 -13 3 -29 -5 -60 -30 -111 7 -119 84 -9 98 44 143
128 108 12 -5 14 3 12 49 -3 45 -1 55 12 55 14 0 16 -19 16 -150z m720 92 c4
-43 8 -50 20 -42 28 18 78 12 94 -12 18 -26 23 -188 6 -188 -6 0 -10 29 -10
68 0 105 -31 143 -85 108 -23 -15 -25 -23 -25 -96 0 -64 -3 -80 -15 -80 -13 0
-15 23 -15 151 0 116 3 150 13 147 6 -3 14 -28 17 -56z m-1189 -51 c21 -17 24
-29 28 -105 3 -74 1 -86 -13 -86 -9 0 -16 4 -16 9 0 6 -16 3 -35 -4 -40 -17
-78 -7 -94 24 -16 29 -14 39 14 66 18 19 35 25 70 25 41 0 45 2 45 25 0 44
-64 61 -100 25 -24 -24 -30 -25 -30 -6 0 42 90 60 131 27z m961 2 c17 -15 18
-15 18 0 0 10 5 17 10 17 16 0 12 -241 -4 -262 -27 -37 -101 -43 -127 -12 -16
19 -4 30 15 15 25 -21 79 -9 95 21 19 34 12 41 -26 28 -78 -28 -138 63 -103
156 6 15 18 33 28 40 24 19 72 17 94 -3z m553 -8 c16 -15 25 -36 25 -55 l0
-30 -75 0 c-83 0 -91 -7 -54 -54 22 -28 75 -36 97 -14 16 16 28 2 13 -16 -29
-34 -117 -20 -140 22 -6 12 -11 42 -11 67 0 89 88 137 145 80z m340 0 c16 -15
25 -36 25 -55 l0 -30 -75 0 c-83 0 -91 -7 -54 -54 22 -28 75 -36 97 -14 16 16
28 2 13 -16 -19 -23 -58 -27 -96 -12 -40 17 -55 47 -55 107 0 83 91 129 145
74z m-2142 -1954 c28 -11 63 -55 72 -93 8 -31 -10 -101 -30 -118 -12 -10 -18
-10 -30 0 -13 10 -15 9 -16 -11 0 -13 -3 -18 -6 -11 -2 6 -9 12 -14 12 -4 0
-6 -7 -3 -15 4 -8 1 -15 -5 -15 -15 0 -4 77 15 107 18 29 18 34 -3 27 -11 -4
-14 -2 -8 3 6 4 18 20 28 35 16 26 16 28 -2 38 -29 15 -53 12 -80 -10 -18 -16
-22 -27 -18 -50 4 -16 2 -32 -3 -35 -5 -3 -7 -12 -3 -20 3 -8 0 -15 -6 -15 -6
0 -11 -9 -11 -20 0 -11 -4 -20 -10 -20 -5 0 -10 9 -10 20 0 16 -5 19 -24 14
-20 -5 -24 -1 -29 28 -8 51 2 86 35 118 46 47 95 56 161 31z m813 -1 c48 -23
72 -48 77 -76 1 -10 6 -24 10 -30 13 -21 -19 -88 -57 -119 -36 -28 -43 -30
-128 -30 -74 0 -91 3 -99 17 -5 9 -16 15 -23 12 -8 -3 -24 9 -39 28 -28 38
-43 88 -27 88 7 0 9 8 5 19 -4 13 4 31 26 56 l33 37 17 -24 c10 -12 16 -31 13
-40 -4 -14 -1 -16 25 -8 16 4 33 5 37 2 4 -4 4 -1 0 6 -4 6 -16 12 -27 12 -10
0 -19 5 -19 11 0 13 62 1 72 -14 9 -14 14 -9 22 26 5 22 3 27 -12 27 -10 0
-23 -5 -29 -11 -7 -7 -19 -8 -30 -4 -20 9 -27 11 -45 15 -27 5 40 18 96 19 41
1 73 -5 102 -19z m-562 -5 c-8 -19 4 -19 36 0 33 19 67 19 78 -1 5 -9 13 -15
18 -13 15 4 44 -45 51 -85 6 -37 5 -38 -16 -27 -19 11 -21 9 -21 -19 0 -36 -8
-37 -38 -5 -22 22 -22 26 -8 48 14 21 14 24 1 24 -8 0 -15 -4 -15 -9 0 -16
-18 -7 -23 12 -3 12 -14 20 -26 20 -23 0 -24 -1 -15 -24 3 -9 11 -13 17 -9 5
3 7 1 3 -5 -3 -6 0 -16 7 -24 7 -7 13 -26 14 -43 l2 -30 -17 33 c-23 42 -62
64 -80 45 -7 -7 -10 -13 -7 -13 3 0 3 -6 -1 -12 -5 -7 -7 -28 -5 -46 3 -43
-15 -35 -36 16 -20 49 -2 122 39 157 33 28 50 32 42 10z m2812 -666 l45 -31
-3 -66 -3 -67 -87 -3 -88 -3 0 70 0 70 43 30 c23 17 43 30 45 31 2 0 24 -14
48 -31z"/>
<path d="M2950 3780 c-14 -14 -20 -33 -20 -68 0 -56 20 -82 63 -82 39 0 61 39
54 97 -8 70 -55 95 -97 53z"/>
<path d="M813 3785 c-38 -27 -42 -105 -7 -140 24 -23 80 -19 98 7 23 32 20 90
-5 122 -23 29 -54 33 -86 11z"/>
<path d="M1975 3775 c-51 -50 -23 -145 43 -145 68 0 92 99 37 153 -23 24 -52
21 -80 -8z"/>
<path d="M1230 3362 c-32 -26 -38 -90 -10 -124 28 -36 81 -39 104 -6 23 32 20
90 -5 122 -24 30 -57 34 -89 8z"/>
<path d="M990 2933 c-17 -22 -21 -37 -17 -70 2 -24 10 -50 17 -58 15 -18 71
-20 88 -3 20 20 15 122 -6 141 -27 25 -58 21 -82 -10z"/>
<path d="M1527 2942 c-22 -25 -23 -115 -1 -136 21 -22 67 -20 87 2 25 27 23
106 -3 132 -25 25 -62 26 -83 2z"/>
</g>
</svg>
