<?xml version="1.0" standalone="no"?>
<!DOCTYPE svg PUBLIC "-//W3C//DTD SVG 20010904//EN"
 "http://www.w3.org/TR/2001/REC-SVG-20010904/DTD/svg10.dtd">
<svg version="1.0" xmlns="http://www.w3.org/2000/svg"
 width="375.000000pt" height="667.000000pt" viewBox="0 0 375.000000 667.000000"
 preserveAspectRatio="xMidYMid meet">
<metadata>
Created by potrace 1.15, written by Peter Selinger 2001-2017
</metadata>
<g transform="translate(0.000000,667.000000) scale(0.100000,-0.100000)"
fill="#000000" stroke="none">
<path d="M448 6473 l-27 -4 27 -28 c34 -35 54 -69 47 -81 -9 -14 -37 1 -31 16
3 8 1 14 -4 14 -11 0 -13 -24 -4 -56 7 -26 57 -44 109 -39 113 12 143 18 189
39 28 13 73 29 99 37 53 15 72 31 64 53 -5 12 -18 14 -59 10 -70 -7 -138 -26
-138 -38 0 -6 -5 -5 -12 2 -7 7 -28 12 -48 12 -20 0 -41 5 -47 11 -8 8 -11 6
-10 -7 1 -11 -4 -18 -11 -16 -7 1 -29 -5 -48 -13 -36 -15 -36 -15 -30 8 18 66
18 67 2 67 -9 0 -16 5 -16 10 0 10 -3 10 -52 3z"/>
<path d="M130 5475 c0 -16 -6 -25 -16 -25 -11 0 -14 -6 -9 -20 4 -12 2 -20 -5
-20 -7 0 -10 -7 -6 -15 3 -9 -3 -19 -16 -26 -18 -9 -24 -8 -34 6 -12 16 -14
16 -28 2 -14 -14 -16 -109 -16 -841 l0 -826 72 6 c40 3 76 8 80 11 5 2 8 0 8
-5 0 -14 -41 -31 -99 -42 -29 -6 -55 -10 -57 -10 -2 0 -4 -18 -4 -41 0 -43 -4
-42 60 -23 11 3 20 10 20 15 0 5 6 9 14 9 7 0 16 9 19 20 3 13 17 22 37 26 17
4 34 13 37 20 3 8 15 14 28 14 12 0 34 11 49 25 37 34 20 40 -92 31 l-87 -7
40 25 c39 24 63 30 170 40 50 5 105 25 105 39 0 4 9 7 19 7 10 0 21 6 24 14 3
7 25 15 50 18 24 3 75 17 113 31 38 15 87 31 109 36 24 6 60 29 90 56 29 26
63 47 80 49 206 31 362 46 457 45 124 -1 139 2 177 41 51 51 75 60 161 60 74
0 83 -2 103 -25 42 -49 196 -65 318 -34 22 5 75 5 137 -1 80 -7 106 -14 122
-30 11 -11 16 -20 11 -20 -15 0 -61 -49 -64 -69 -2 -11 -6 -24 -10 -27 -21
-21 22 -77 93 -122 74 -48 121 -96 88 -91 -7 1 -21 -1 -32 -6 -10 -4 -39 -3
-65 4 -25 6 -59 14 -76 16 -16 3 -46 8 -65 12 -19 4 -42 8 -50 9 -36 6 -136
27 -150 32 -8 3 -37 7 -65 8 -168 11 -255 3 -276 -22 -6 -8 -18 -14 -26 -14
-23 0 -81 -49 -87 -74 -7 -27 -69 -86 -90 -86 -13 0 -51 -28 -97 -72 -11 -10
-23 -18 -29 -18 -5 0 -26 -9 -46 -20 -20 -12 -39 -19 -42 -16 -3 3 -11 1 -18
-5 -8 -6 -20 -9 -28 -6 -8 3 -16 2 -18 -3 -2 -5 -14 -11 -28 -14 -14 -2 -27
-5 -30 -6 -3 -2 -8 -2 -12 -1 -5 0 -8 -6 -8 -15 0 -8 -4 -12 -10 -9 -21 13
-159 -101 -160 -132 0 -17 -37 -17 -43 0 -2 6 -7 -6 -12 -28 -7 -37 -9 -38
-15 -15 -7 25 -7 25 -22 -9 l-16 -34 -18 21 c-23 28 -30 28 -39 0 -4 -15 -8
-18 -12 -10 -4 10 -8 10 -18 2 -11 -9 -17 -7 -27 9 -19 31 -28 26 -28 -15 0
-20 -7 -43 -17 -52 -16 -16 -16 -16 -10 0 3 10 2 28 -3 40 l-9 23 0 -22 c-1
-28 -37 -32 -44 -5 -3 10 -5 6 -6 -11 -1 -24 -4 -27 -25 -21 -22 5 -26 1 -35
-33 -6 -21 -11 -47 -12 -58 0 -18 -1 -18 -9 3 -11 25 -28 29 -36 7 -5 -13 -10
-12 -25 7 -11 12 -22 33 -25 47 -10 47 -17 58 -21 34 -3 -13 -10 -20 -17 -17
-9 3 -16 -7 -21 -28 l-8 -33 -7 35 c-5 24 -8 28 -9 12 -1 -27 -29 -41 -42 -21
-7 11 -9 11 -9 -3 0 -9 -5 -29 -11 -45 l-11 -28 -10 28 c-14 39 -28 33 -28
-12 0 -43 -16 -56 -40 -33 -13 13 -15 12 -21 -9 -4 -13 -7 -20 -8 -15 -1 5 -8
3 -16 -4 -13 -11 -15 -7 -15 25 l0 38 -24 -28 -24 -28 -4 24 -3 24 -14 -25
c-8 -13 -14 -39 -13 -57 1 -18 -3 -33 -8 -33 -6 0 -10 18 -10 40 0 22 -4 40
-9 40 -14 0 -20 37 -8 49 8 8 6 11 -6 11 -12 0 -17 8 -17 29 0 34 -15 49 -24
25 -3 -9 -6 -733 -6 -1610 l0 -1594 1875 0 1875 0 0 2540 c0 2127 -3 2538 -14
2534 -8 -3 -16 3 -19 15 -7 27 -26 26 -68 -2 -19 -12 -56 -33 -82 -45 -26 -12
-46 -26 -43 -31 6 -9 -59 -31 -89 -31 -10 0 -38 -11 -62 -26 -24 -14 -48 -22
-53 -19 -14 9 -3 24 28 37 26 11 26 12 5 15 -12 2 -37 -3 -55 -12 l-33 -16 35
31 c49 44 109 73 148 72 21 -1 35 4 38 13 4 8 15 15 26 15 11 0 16 -4 12 -11
-4 -8 1 -9 17 -4 45 14 151 65 178 86 l26 21 -42 -7 c-40 -6 -44 -5 -53 20
l-10 26 -29 -20 c-33 -24 -48 -26 -54 -8 -3 9 -11 9 -40 -1 -26 -9 -42 -10
-56 -3 -14 8 -22 7 -31 -5 -11 -12 -10 -17 6 -29 10 -8 22 -15 25 -15 4 0 9
-9 12 -19 5 -22 -22 -39 -34 -20 -4 8 -10 6 -17 -6 -8 -15 -14 -16 -42 -6 -40
13 -87 14 -94 2 -4 -5 -37 -26 -74 -47 -37 -20 -82 -48 -101 -62 -23 -17 -36
-22 -39 -14 -2 7 -8 12 -14 12 -6 0 -7 -7 -4 -16 4 -12 2 -15 -9 -11 -8 4 -17
2 -20 -2 -5 -9 -89 -51 -101 -51 -14 0 23 34 76 70 30 21 67 51 81 66 43 48
71 68 135 97 34 15 65 27 69 27 13 0 80 33 98 48 21 18 35 8 17 -12 -10 -13
-8 -13 19 0 17 9 28 20 25 26 -4 5 4 9 17 8 38 -3 40 -1 29 20 -13 24 -40 26
-40 3 0 -9 -3 -13 -6 -10 -4 3 -15 2 -24 -3 -10 -5 -40 -11 -67 -12 -52 -1
-113 -22 -113 -38 0 -13 -59 -42 -94 -47 -56 -6 -102 -34 -130 -79 -15 -24
-35 -44 -45 -44 -9 0 -22 -9 -29 -20 -7 -11 -17 -20 -23 -20 -5 0 -19 -9 -31
-19 -18 -18 -102 -45 -138 -46 -8 0 -19 -3 -25 -7 -19 -12 -105 -21 -105 -10
0 5 7 13 15 16 9 3 15 14 13 23 -2 12 11 25 42 40 44 22 175 84 195 92 6 2 1
-6 -9 -18 -11 -11 -17 -23 -14 -26 3 -3 11 1 18 10 7 8 22 15 35 15 12 0 37 8
56 17 l34 17 -25 7 c-43 12 -68 10 -74 -7 -5 -12 -2 -15 11 -10 14 6 15 5 6
-5 -9 -9 -15 -9 -26 0 -11 8 -22 8 -48 -3 -30 -13 -36 -13 -52 1 -16 15 -18
15 -32 -3 -12 -16 -17 -17 -34 -6 -28 16 -86 15 -100 -2 -17 -21 -69 -37 -77
-25 -3 6 -12 8 -20 5 -8 -3 -27 0 -42 6 -52 21 -80 19 -94 -5 -7 -12 -11 -28
-10 -34 4 -20 -36 -15 -57 6 -17 17 -20 18 -35 3 -15 -15 -16 -15 -16 1 0 15
-3 14 -21 -4 -15 -15 -24 -18 -34 -9 -9 8 -14 7 -18 -4 -4 -9 -2 -18 4 -22 15
-9 -20 -44 -43 -44 -11 0 -16 -4 -13 -10 9 -15 91 -12 107 3 7 7 33 23 57 36
39 20 45 21 53 7 5 -9 18 -16 28 -16 27 0 26 -37 0 -45 -11 -3 -20 -10 -20
-15 0 -4 -24 -8 -52 -8 -131 -1 -260 -11 -274 -22 -21 -18 -30 -4 -12 17 9 10
13 24 10 32 -3 11 0 12 14 6 11 -4 29 -10 41 -12 18 -4 21 -2 16 17 -4 17 -11
20 -29 16 -12 -3 -32 -2 -44 2 -19 7 -20 9 -6 21 9 7 22 11 30 8 21 -8 39 16
24 31 -21 21 -39 12 -64 -33 -7 -13 -30 -23 -66 -31 -56 -11 -133 -51 -172
-90 -28 -29 -94 -56 -102 -43 -3 6 -13 8 -21 5 -9 -4 -22 -1 -30 6 -10 8 -17
8 -21 2 -12 -19 -42 -25 -42 -9 0 8 -4 15 -10 15 -5 0 -10 -5 -10 -11 0 -8
-23 -10 -75 -7 -42 3 -78 2 -80 -2 -3 -4 -17 -11 -32 -15 -15 -3 -31 -11 -34
-17 -9 -14 -84 10 -105 34 -10 10 -28 18 -41 18 -33 0 -243 194 -243 225 0 7
-18 25 -40 40 -22 15 -42 35 -45 44 -3 9 -26 38 -50 65 -37 42 -46 47 -59 36
-13 -10 -16 -10 -16 4 0 9 -10 21 -22 27 -13 5 -38 21 -57 34 -42 31 -47 31
-55 1 -6 -24 -36 -44 -36 -24 0 6 -7 5 -17 -5 -25 -22 -174 -97 -193 -97 -8 1
-3 7 13 16 39 21 33 36 -8 18 -45 -18 -48 -18 -35 5 10 19 9 19 -17 5 -40 -20
-51 -18 -58 16 -6 27 -10 29 -36 25 -16 -3 -29 -2 -29 3 0 12 78 52 101 52 26
0 23 19 -6 53 l-24 27 -77 -25 c-42 -14 -84 -25 -93 -24 -10 0 -11 2 -3 6 6 2
12 11 12 19 0 10 12 14 39 14 53 0 101 18 94 36 -3 8 -14 12 -26 10 -12 -3
-22 -5 -22 -6 0 -1 -10 -3 -22 -6 -13 -2 -23 1 -23 6 0 6 3 9 8 8 4 -2 8 1 9
7 1 5 9 12 17 15 15 5 15 7 1 28 -22 30 -45 28 -45 -3z m385 -2860 l0 -80 -82
-3 -83 -3 0 79 c0 43 3 82 7 86 4 4 41 5 83 4 l75 -3 0 -80z m2163 66 c9 -5
25 -12 35 -15 9 -3 17 -14 17 -25 0 -11 4 -23 10 -26 6 -4 6 -12 1 -23 -5 -9
-12 -25 -15 -34 -3 -10 -14 -18 -25 -18 -11 0 -23 -4 -26 -10 -4 -6 -12 -6
-23 -1 -9 5 -25 12 -34 15 -10 3 -18 15 -18 26 0 11 -4 20 -10 20 -5 0 -10 7
-10 15 0 8 5 15 10 15 6 0 10 11 10 25 0 18 5 25 19 25 11 0 23 5 26 10 8 12
11 12 33 1z m697 -7 c60 -39 29 -153 -42 -154 -49 0 -93 40 -93 85 0 66 78
106 135 69z m-587 -874 c94 -57 94 -183 0 -240 -117 -71 -259 71 -188 188 42
68 124 91 188 52z m-1400 -720 c18 -11 41 -34 52 -52 71 -117 -71 -259 -188
-188 -42 26 -72 76 -72 120 0 71 69 140 140 140 19 0 50 -9 68 -20z"/>
<path d="M3275 2655 c-14 -13 -25 -36 -25 -50 0 -14 11 -37 25 -50 13 -14 36
-25 50 -25 14 0 37 11 50 25 14 13 25 36 25 50 0 14 -11 37 -25 50 -13 14 -36
25 -50 25 -14 0 -37 -11 -50 -25z"/>
</g>
</svg>
