<?xml version="1.0" standalone="no"?>
<!DOCTYPE svg PUBLIC "-//W3C//DTD SVG 20010904//EN"
 "http://www.w3.org/TR/2001/REC-SVG-20010904/DTD/svg10.dtd">
<svg version="1.0" xmlns="http://www.w3.org/2000/svg"
 width="375.000000pt" height="667.000000pt" viewBox="0 0 375.000000 667.000000"
 preserveAspectRatio="xMidYMid meet">
<metadata>
Created by potrace 1.15, written by Peter Selinger 2001-2017
</metadata>
<g transform="translate(0.000000,667.000000) scale(0.100000,-0.100000)"
fill="#000000" stroke="none">
<path d="M0 3335 l0 -3335 1875 0 1875 0 0 2699 c0 1608 -4 2701 -9 2703 -9 3
-15 44 -12 78 1 13 2 13 11 0 6 -10 10 195 10 588 l0 602 -1875 0 -1875 0 0
-3335z m1310 1269 c105 -63 62 -224 -60 -224 -123 0 -165 170 -56 224 40 20
81 20 116 0z m1470 -290 c56 -34 74 -97 44 -159 -15 -32 -15 -34 20 -82 84
-118 173 -347 191 -498 l7 -55 -160 0 c-154 0 -160 1 -165 21 -8 31 -30 12
-25 -22 8 -54 -9 -19 -21 43 -23 122 -72 228 -151 334 -42 54 -49 69 -38 79 7
7 47 39 89 72 l76 60 -24 27 c-12 15 -23 39 -24 54 0 15 -2 42 -4 61 -1 19 1
28 5 22 5 -9 9 -8 14 4 3 9 4 21 1 26 -4 5 0 6 8 4 7 -3 27 1 43 10 38 19 79
19 114 -1z m-684 -755 c15 -16 19 -36 19 -86 0 -56 -4 -68 -24 -84 -25 -21
-54 -18 -81 7 -23 23 -20 136 4 163 24 27 58 27 82 0z m448 -635 c61 -51 160
-140 220 -195 34 -31 72 -65 85 -76 20 -16 22 -23 13 -40 -15 -27 -130 -134
-206 -190 -59 -43 -60 -45 -60 -94 -1 -45 -5 -54 -38 -85 -51 -46 -102 -47
-152 -3 -27 23 -39 28 -53 21 -42 -23 -216 -62 -320 -73 -170 -17 -428 14
-428 52 0 10 -11 13 -35 12 -26 -2 -30 0 -16 5 12 6 16 11 9 15 -6 4 -9 16 -6
27 3 11 2 28 -2 37 -5 10 -7 22 -6 27 1 4 -5 19 -14 32 -9 14 -13 29 -10 34 3
6 0 22 -9 37 -13 26 -42 146 -51 217 -3 16 -10 36 -18 45 -7 9 -20 36 -27 60
-8 24 -20 45 -27 48 -7 3 -13 9 -13 14 0 5 12 2 28 -8 20 -12 15 -5 -18 30
-24 26 -39 47 -32 47 7 0 12 -4 12 -9 0 -16 113 -98 192 -140 105 -57 209 -82
343 -82 215 0 380 64 536 210 30 28 58 50 63 51 4 0 22 -12 40 -26z m-1386
-2311 c20 -17 27 -56 23 -124 -3 -59 -57 -84 -96 -45 -20 20 -25 35 -25 76 0
94 46 137 98 93z m162 -3 c16 -16 20 -33 20 -80 0 -52 -4 -65 -25 -86 -19 -18
-31 -23 -48 -19 -36 11 -47 35 -47 102 0 68 20 103 60 103 11 0 29 -9 40 -20z
m1347 5 c28 -20 38 -70 23 -124 -9 -33 -18 -45 -43 -56 -17 -7 -36 -10 -42 -7
-5 4 0 8 12 10 22 3 63 45 63 64 0 5 -9 4 -19 -2 -29 -15 -49 -12 -71 10 -27
27 -26 74 2 100 26 24 46 25 75 5z m164 -4 c22 -18 23 -22 12 -52 -9 -23 -9
-36 -2 -45 19 -23 6 -68 -23 -82 -23 -11 -33 -11 -55 0 -30 14 -43 59 -24 82
7 9 7 22 -2 45 -11 30 -10 34 12 52 13 10 31 19 41 19 10 0 28 -9 41 -19z
m155 -2 c14 -16 19 -36 19 -86 0 -56 -3 -67 -24 -84 -25 -21 -54 -18 -81 7
-23 23 -20 136 4 163 24 27 58 27 82 0z"/>
<path d="M1198 4594 c-30 -16 -58 -61 -58 -94 0 -55 57 -110 114 -110 33 0 93
53 101 89 9 41 -17 96 -54 115 -37 20 -68 20 -103 0z"/>
<path d="M2672 4308 c-13 -7 -21 -17 -18 -25 3 -8 1 -11 -4 -8 -11 7 -41 -55
-34 -67 3 -5 7 -18 9 -30 5 -25 45 -70 45 -50 0 7 3 11 8 9 4 -3 16 4 26 14
17 16 17 19 3 19 -20 0 -27 12 -30 53 -3 31 -2 33 27 29 42 -6 56 -19 56 -52
0 -24 34 -70 44 -59 74 85 -29 216 -132 167z"/>
</g>
</svg>
