<?xml version="1.0" standalone="no"?>
<!DOCTYPE svg PUBLIC "-//W3C//DTD SVG 20010904//EN"
 "http://www.w3.org/TR/2001/REC-SVG-20010904/DTD/svg10.dtd">
<svg version="1.0" xmlns="http://www.w3.org/2000/svg"
 width="70.000000pt" height="70.000000pt" viewBox="0 0 70.000000 70.000000"
 preserveAspectRatio="xMidYMid meet">
<metadata>
Created by potrace 1.15, written by Peter Selinger 2001-2017
</metadata>
<g transform="translate(0.000000,70.000000) scale(0.100000,-0.100000)"
fill="#000000" stroke="none">
<path d="M325 550 l-30 -8 28 -1 c15 0 27 -6 27 -12 0 -8 -14 -9 -44 -5 -42 7
-45 5 -74 -30 -17 -20 -32 -46 -34 -58 -4 -19 1 -21 55 -24 51 -2 58 0 53 14
-4 9 -1 23 5 30 9 11 6 16 -12 23 -15 5 -26 5 -30 -2 -4 -5 -12 -6 -18 -3 -25
16 3 26 64 23 63 -2 63 -2 80 -39 9 -21 22 -38 29 -38 16 0 40 -49 37 -75 -5
-37 -19 -39 -56 -6 -35 31 -36 31 -59 14 -13 -10 -22 -21 -20 -25 3 -4 0 -16
-5 -26 -8 -15 -5 -24 14 -42 23 -22 26 -22 49 -6 33 21 34 20 29 -8 -6 -28
-43 -51 -72 -43 -23 6 -27 -3 -9 -21 9 -9 9 -12 0 -12 -6 0 -9 -7 -6 -15 4
-10 0 -15 -12 -15 -14 0 -15 -3 -6 -12 9 -9 22 -3 56 31 35 34 48 42 66 36 17
-5 30 1 57 27 l34 33 -28 22 -27 22 27 29 c18 19 25 35 21 45 -5 13 -1 17 17
15 30 -4 39 28 11 36 -19 6 -35 39 -24 50 3 3 12 -2 21 -12 28 -30 51 -24 51
12 0 40 -35 76 -75 76 l-29 0 22 -20 c28 -26 28 -32 0 -21 -13 5 -32 12 -43
16 -16 5 -17 8 -5 15 8 5 12 12 8 15 -3 4 -15 0 -27 -7 -17 -10 -25 -10 -41 0
-22 13 -30 13 -75 2z"/>
</g>
</svg>
