<?xml version="1.0" standalone="no"?>
<!DOCTYPE svg PUBLIC "-//W3C//DTD SVG 20010904//EN"
 "http://www.w3.org/TR/2001/REC-SVG-20010904/DTD/svg10.dtd">
<svg version="1.0" xmlns="http://www.w3.org/2000/svg"
 width="70.000000pt" height="70.000000pt" viewBox="0 0 70.000000 70.000000"
 preserveAspectRatio="xMidYMid meet">
<metadata>
Created by potrace 1.15, written by Peter Selinger 2001-2017
</metadata>
<g transform="translate(0.000000,70.000000) scale(0.100000,-0.100000)"
fill="#000000" stroke="none">
<path d="M311 658 c4 -30 -3 -38 -28 -39 -24 -2 -25 -2 -5 -6 12 -2 22 -8 22
-12 0 -9 -33 -41 -43 -41 -10 0 -91 -57 -108 -77 -9 -10 -20 -29 -24 -42 l-7
-24 31 22 c17 12 31 18 31 12 0 -6 -4 -11 -10 -11 -23 0 -8 -19 21 -25 33 -8
51 1 30 14 -11 7 -9 11 7 20 16 9 20 20 19 51 -1 22 1 39 5 37 3 -1 17 8 30
19 13 12 30 22 38 22 8 1 28 4 43 8 18 4 34 1 45 -8 17 -15 62 -30 62 -22 0 3
-9 23 -21 45 -13 27 -32 45 -54 55 -43 17 -86 18 -84 2z"/>
<path d="M452 496 c6 -32 -10 -39 -92 -40 l-65 -1 0 -35 c-1 -67 65 -94 104
-43 23 29 23 29 41 -6 10 -20 10 -25 -5 -34 -14 -8 -15 -11 -4 -18 21 -13 26
-11 32 11 3 11 17 24 31 30 18 6 26 18 28 35 0 14 1 30 2 35 1 6 -10 16 -24
23 -16 8 -26 23 -28 40 -2 15 -8 27 -14 27 -6 0 -8 -11 -6 -24z"/>
</g>
</svg>
