<?xml version="1.0" standalone="no"?>
<!DOCTYPE svg PUBLIC "-//W3C//DTD SVG 20010904//EN"
 "http://www.w3.org/TR/2001/REC-SVG-20010904/DTD/svg10.dtd">
<svg version="1.0" xmlns="http://www.w3.org/2000/svg"
 width="70.000000pt" height="70.000000pt" viewBox="0 0 70.000000 70.000000"
 preserveAspectRatio="xMidYMid meet">
<metadata>
Created by potrace 1.15, written by Peter Selinger 2001-2017
</metadata>
<g transform="translate(0.000000,70.000000) scale(0.100000,-0.100000)"
fill="#000000" stroke="none">
<path d="M180 648 c0 -3 -9 -4 -20 -1 -12 3 -20 0 -20 -6 0 -7 5 -9 12 -5 7 4
8 3 4 -4 -4 -7 -12 -12 -17 -12 -12 0 -39 -25 -39 -36 0 -4 -8 -13 -17 -20
-10 -7 -13 -14 -6 -14 12 0 12 -17 0 -38 -5 -7 -2 -14 7 -18 9 -3 13 -10 11
-15 -3 -5 1 -22 10 -38 8 -17 15 -39 15 -51 0 -11 7 -20 15 -20 20 0 19 -17
-2 -29 -18 -10 -18 -12 12 -83 5 -13 -2 -19 -35 -29 -72 -22 -110 -75 -110
-156 0 -32 30 -79 41 -62 4 7 1 22 -7 34 -8 12 -12 30 -8 38 5 15 9 14 25 -6
22 -26 26 -10 4 19 -21 28 -18 37 5 14 11 -11 25 -20 30 -20 6 0 10 -8 10 -19
0 -10 7 -24 15 -31 8 -7 15 -19 15 -26 0 -8 5 -14 11 -14 8 0 9 11 5 33 -4 23
-3 28 4 17 5 -8 10 -23 10 -32 0 -10 5 -18 10 -18 6 0 10 6 10 14 0 8 5 18 12
22 7 5 9 1 6 -13 -5 -17 0 -20 34 -21 36 -2 38 0 28 18 -6 11 -16 20 -22 20
-9 0 -9 3 0 12 9 9 15 8 27 -8 8 -10 15 -25 15 -31 0 -7 7 -13 15 -13 18 0 20
41 3 58 -21 21 -2 23 25 1 38 -29 37 1 -1 33 -28 23 -32 48 -8 48 7 0 21 -9
31 -20 12 -13 25 -18 41 -14 20 5 24 1 29 -30 4 -20 11 -36 16 -36 12 0 12 0
-6 51 -9 24 -14 53 -11 64 5 18 3 18 -14 -2 -22 -27 -33 -28 -65 -7 -29 19
-23 38 10 30 13 -3 27 -2 30 4 3 5 -3 10 -14 10 -23 0 -28 15 -8 24 9 3 7 9
-5 19 -22 17 -23 28 -3 21 21 -8 19 12 -3 28 -19 14 -44 96 -31 103 4 3 18 -9
31 -26 l25 -30 39 18 c21 9 40 18 42 19 2 1 6 21 8 43 3 27 1 41 -7 41 -6 0
-8 7 -5 16 3 8 2 13 -3 10 -5 -3 -12 6 -16 21 -4 16 -2 29 6 34 18 11 -22 61
-80 98 -44 29 -56 32 -110 29 -34 -2 -61 -6 -61 -10z m215 -117 c15 -21 27
-50 29 -65 1 -14 6 -29 9 -33 14 -13 6 -18 -30 -16 -51 2 -50 2 -33 13 13 9
13 10 0 10 -8 -1 -24 -7 -34 -15 -11 -8 -36 -15 -55 -15 -33 0 -38 4 -60 49
-13 27 -21 54 -17 60 14 22 82 50 123 51 39 0 45 -4 68 -39z"/>
</g>
</svg>
