<?xml version="1.0" standalone="no"?>
<!DOCTYPE svg PUBLIC "-//W3C//DTD SVG 20010904//EN"
 "http://www.w3.org/TR/2001/REC-SVG-20010904/DTD/svg10.dtd">
<svg version="1.0" xmlns="http://www.w3.org/2000/svg"
 width="375.000000pt" height="667.000000pt" viewBox="0 0 375.000000 667.000000"
 preserveAspectRatio="xMidYMid meet">
<metadata>
Created by potrace 1.15, written by Peter Selinger 2001-2017
</metadata>
<g transform="translate(0.000000,667.000000) scale(0.100000,-0.100000)"
fill="#000000" stroke="none">
<path d="M0 3335 l0 -3335 1875 0 1875 0 0 3335 0 3335 -1875 0 -1875 0 0
-3335z m1720 2359 c0 -4 -17 -25 -37 -48 -21 -23 -63 -71 -94 -106 -95 -111
-273 -315 -279 -320 -9 -8 -149 -169 -235 -271 -118 -138 -112 -133 -139 -115
-17 11 -39 13 -80 9 -41 -4 -56 -2 -56 6 0 9 -27 12 -97 12 -54 -1 -147 3
-208 8 -60 5 -161 13 -222 17 l-113 7 0 385 c0 345 2 387 17 404 15 17 53 18
780 18 419 0 763 -3 763 -6z m1852 -11 c17 -15 18 -41 18 -419 l0 -402 -61 56
c-34 32 -69 57 -78 57 -9 1 -15 6 -13 13 1 7 -8 16 -20 21 -13 5 -59 46 -103
91 -63 64 -202 185 -280 242 -21 16 -176 146 -246 207 -41 35 -83 71 -94 80
-11 9 -35 28 -53 44 l-34 27 473 0 c426 0 474 -2 491 -17z m-1284 -213 c125
-35 240 -111 422 -280 29 -26 26 -25 -15 6 -27 22 -55 44 -61 49 -6 6 -22 17
-34 25 -12 8 -46 33 -75 55 -47 36 -107 73 -120 75 -3 0 -26 10 -51 21 -75 31
-217 52 -315 45 -136 -9 -251 -50 -359 -128 l-55 -39 43 40 c74 68 204 132
307 151 74 13 230 3 313 -20z m-33 -295 c44 -13 71 -24 60 -24 -17 -1 -18 -3
-5 -12 12 -9 11 -10 -5 -4 -117 41 -361 44 -492 6 -73 -21 -130 -29 -88 -12
11 5 23 7 28 4 4 -2 7 1 7 7 0 6 4 9 9 6 5 -4 11 -2 13 3 1 5 35 18 73 29 104
30 291 29 400 -3z m-1819 -755 c25 -10 26 -13 21 -55 -4 -25 -2 -47 3 -50 14
-9 12 -61 -2 -73 -7 -6 -38 -12 -68 -14 l-55 -3 -3 90 c-1 50 0 96 3 103 5 15
63 16 101 2z m192 -874 c68 -35 122 -123 122 -201 0 -52 -46 -130 -97 -164
-194 -129 -424 101 -292 294 25 36 73 72 115 85 38 12 115 5 152 -14z m-80
-1543 c-2 -12 -14 -19 -38 -21 -63 -6 -66 -20 -15 -67 52 -48 57 -74 20 -110
-20 -21 -34 -25 -80 -25 -48 0 -56 3 -53 18 2 13 15 18 50 20 56 4 73 28 36
52 -71 46 -84 85 -43 125 19 20 34 25 75 25 44 0 51 -3 48 -17z m864 -1516
c12 -18 9 -27 -7 -27 -8 0 -15 5 -15 10 0 6 -9 10 -20 10 -29 0 -25 -19 7 -31
15 -6 31 -16 35 -22 5 -8 10 -5 14 11 7 23 43 38 68 29 7 -3 16 -17 18 -31 5
-23 2 -26 -24 -26 -16 0 -27 -4 -24 -9 3 -5 16 -7 27 -4 16 4 20 2 17 -8 -6
-20 -53 -23 -71 -5 -13 14 -16 14 -28 0 -16 -19 -69 -14 -83 8 -15 24 3 37 19
14 8 -11 21 -16 30 -13 23 9 18 20 -18 37 -38 18 -47 48 -21 67 21 15 64 9 76
-10z"/>
</g>
</svg>
