<?xml version="1.0" standalone="no"?>
<!DOCTYPE svg PUBLIC "-//W3C//DTD SVG 20010904//EN"
 "http://www.w3.org/TR/2001/REC-SVG-20010904/DTD/svg10.dtd">
<svg version="1.0" xmlns="http://www.w3.org/2000/svg"
 width="624.000000pt" height="531.000000pt" viewBox="0 0 624.000000 531.000000"
 preserveAspectRatio="xMidYMid meet">
<metadata>
Created by potrace 1.15, written by Peter Selinger 2001-2017
</metadata>
<g transform="translate(0.000000,531.000000) scale(0.100000,-0.100000)"
fill="#000000" stroke="none">
<path d="M1498 5300 c-74 -13 -158 -40 -210 -66 -60 -31 -69 -38 -658 -540
-342 -292 -505 -437 -527 -471 -85 -127 -117 -346 -79 -528 27 -126 64 -196
150 -280 70 -68 76 -71 91 -56 24 27 50 22 47 -9 0 -3 13 -6 29 -5 29 0 35 5
22 18 -3 4 -12 2 -19 -4 -11 -9 -15 -7 -20 7 -4 11 -9 22 -11 26 -2 4 1 10 7
13 6 4 10 3 9 -2 -4 -23 2 -43 11 -38 6 4 8 10 6 14 -3 4 1 8 9 8 8 0 13 -3
13 -6 -2 -12 14 -41 21 -36 4 2 7 -9 7 -25 0 -16 -3 -27 -8 -24 -4 3 -8 1 -8
-4 0 -6 7 -12 15 -16 9 -3 12 -12 8 -23 -3 -10 10 -1 31 20 20 20 34 42 31 47
-3 5 0 7 7 5 8 -3 92 58 193 141 99 81 186 151 192 156 9 7 29 -4 68 -37 45
-39 53 -50 43 -62 -6 -8 -56 -50 -110 -94 -105 -84 -135 -94 -188 -64 -14 8
-38 14 -55 14 -16 0 -25 -2 -20 -5 6 -2 -27 -42 -72 -89 -70 -71 -83 -90 -83
-118 0 -43 16 -65 97 -128 61 -48 191 -157 219 -183 7 -6 62 -51 124 -101 61
-49 368 -301 682 -560 314 -259 599 -492 634 -520 35 -27 71 -60 79 -72 8 -11
149 -131 312 -265 164 -133 356 -293 428 -353 150 -127 204 -169 210 -164 2 3
-61 58 -141 123 -79 65 -144 124 -144 130 0 7 3 8 8 0 7 -10 198 -169 279
-232 32 -25 48 -32 65 -27 18 6 21 5 11 -5 -15 -17 -112 1 -159 29 -18 11
-207 163 -421 338 -330 271 -877 719 -1993 1632 -279 228 -278 227 -301 276
-21 46 -26 31 -5 -18 16 -38 51 -70 407 -363 146 -120 479 -395 740 -610 261
-215 713 -588 1004 -829 292 -240 553 -448 580 -463 40 -21 64 -26 120 -26
125 0 127 2 602 482 l422 427 27 -27 28 -28 -89 -92 c-49 -51 -251 -256 -448
-455 -260 -262 -372 -369 -406 -385 -62 -31 -180 -37 -251 -13 -59 20 -42 6
-1065 854 -379 315 -697 575 -705 578 -22 9 -191 152 -218 185 -13 15 -28 28
-34 28 -13 0 -137 100 -192 155 -23 22 -80 72 -127 110 -48 39 -129 106 -180
150 -52 43 -87 70 -79 59 8 -11 -1 -2 -21 20 -20 22 -44 41 -54 42 -10 1 -37
21 -60 44 -22 22 -44 38 -47 35 -3 -3 -11 3 -19 12 -13 16 -12 17 3 4 16 -12
18 -11 18 8 0 12 -4 20 -9 17 -5 -3 -11 1 -14 8 -3 8 -1 17 6 20 9 3 8 5 -1 5
-7 1 -10 6 -7 11 3 6 1 10 -5 10 -6 0 -10 8 -9 18 4 40 0 44 -36 40 -19 -2
-35 0 -35 4 0 4 12 8 28 9 16 0 21 3 12 6 -23 9 -99 95 -103 118 -2 11 -5 -1
-6 -27 0 -29 3 -48 10 -48 6 0 9 -6 6 -14 -3 -8 5 -22 19 -32 23 -18 35 -42
14 -29 -5 3 -10 0 -10 -8 0 -8 7 -18 16 -21 8 -3 13 -10 10 -15 -3 -5 1 -14 9
-21 13 -11 12 -16 -4 -39 -115 -163 -132 -392 -42 -569 49 -96 123 -171 375
-382 49 -41 110 -93 137 -115 26 -22 105 -89 176 -150 70 -60 232 -192 358
-294 127 -101 255 -205 285 -231 30 -26 134 -112 230 -191 96 -80 303 -251
460 -381 547 -453 596 -493 667 -546 39 -29 105 -68 146 -87 l76 -35 194 0
c316 0 303 -8 794 487 l371 374 134 3 c149 2 235 20 333 68 52 26 138 108 616
586 622 623 599 594 640 782 16 75 20 117 16 200 -8 179 -55 305 -145 393 -61
58 -2680 2050 -2746 2087 -105 60 -316 97 -459 79 -164 -20 -268 -59 -364
-135 -23 -19 -44 -34 -48 -34 -3 0 -101 72 -218 161 -233 177 -273 201 -385
230 -86 23 -296 34 -374 19z m664 -578 c84 -65 158 -125 165 -133 9 -12 -35
-14 -305 -16 -175 -2 -328 -5 -342 -8 -19 -5 -5 13 54 67 147 135 250 219 262
214 7 -3 82 -58 166 -124z m1436 -233 c77 -58 92 -73 78 -81 -9 -5 -16 -16
-16 -23 0 -8 -7 -15 -16 -15 -9 0 -18 -9 -21 -20 -3 -11 -10 -20 -15 -20 -10
0 -39 -26 -150 -132 -22 -21 -42 -38 -45 -38 -3 0 -25 -18 -49 -40 -31 -28
-48 -38 -61 -33 -16 6 -17 5 -3 -13 14 -18 13 -18 -9 1 -14 11 -21 15 -18 9 4
-7 0 -15 -9 -18 -8 -3 -13 -2 -10 2 3 4 -6 8 -20 8 -16 0 -23 -4 -20 -13 4 -8
-9 -6 -37 8 -38 20 -40 20 -27 3 8 -10 -14 4 -50 31 -36 27 -67 50 -69 51 -2
2 3 10 12 18 8 8 17 13 20 10 2 -3 29 19 60 48 30 29 70 64 88 78 48 36 93 80
83 80 -5 1 3 8 19 16 15 8 27 22 27 31 0 9 3 14 6 10 4 -3 12 -1 19 6 7 7 22
18 33 26 12 8 19 18 16 23 -3 4 -1 8 5 8 5 0 22 11 37 25 15 14 31 25 37 25 6
0 53 -32 105 -71z m-2199 -482 c29 -148 50 -271 47 -274 -3 -4 -6 -2 -6 4 0 5
-7 10 -15 10 -8 0 -15 -4 -15 -9 0 -5 -5 -6 -12 -2 -7 5 -9 2 -5 -9 3 -8 -1
-21 -8 -27 -8 -7 -12 -17 -8 -23 3 -5 1 -7 -5 -3 -6 3 -13 2 -17 -4 -4 -6 -10
-8 -15 -5 -5 3 -12 0 -15 -5 -5 -8 -13 -6 -25 5 -15 13 -20 14 -26 3 -17 -27
-13 -40 7 -22 11 10 19 12 19 6 0 -7 -5 -12 -11 -12 -5 0 -7 -5 -3 -12 4 -6 3
-8 -3 -5 -13 8 -36 -17 -25 -28 4 -5 1 -4 -7 0 -11 6 -13 4 -8 -8 9 -24 0 -21
-14 4 -7 13 -7 19 -1 15 6 -3 14 -2 17 4 4 6 1 9 -7 8 -7 -2 -12 4 -10 12 2 8
0 11 -5 7 -4 -5 -8 -14 -8 -20 -1 -7 -6 -11 -13 -10 -6 2 -9 -4 -6 -12 4 -10
0 -13 -14 -10 -16 3 -19 -1 -14 -18 5 -20 6 -20 13 -1 6 15 7 14 6 -8 -1 -18
-5 -24 -11 -18 -6 6 -14 6 -23 -2 -11 -9 -11 -14 -1 -26 7 -9 -70 51 -172 132
-102 81 -186 151 -188 156 -2 4 28 35 65 68 303 269 479 419 484 413 3 -3 30
-127 58 -274z m585 -821 c72 -30 101 -125 50 -165 -82 -65 -214 -5 -214 98 0
64 86 100 164 67z m2666 -991 c28 -15 50 -42 50 -64 0 -6 -16 -29 -36 -51 -27
-30 -44 -40 -66 -40 -44 0 -88 35 -88 70 0 37 43 88 78 93 15 2 28 5 30 6 2 0
16 -6 32 -14z"/>
</g>
</svg>
