<?xml version="1.0" standalone="no"?>
<!DOCTYPE svg PUBLIC "-//W3C//DTD SVG 20010904//EN"
 "http://www.w3.org/TR/2001/REC-SVG-20010904/DTD/svg10.dtd">
<svg version="1.0" xmlns="http://www.w3.org/2000/svg"
 width="1920.000000pt" height="1280.000000pt" viewBox="0 0 1920.000000 1280.000000"
 preserveAspectRatio="xMidYMid meet">
<metadata>
Created by potrace 1.15, written by Peter Selinger 2001-2017
</metadata>
<g transform="translate(0.000000,1280.000000) scale(0.100000,-0.100000)"
fill="#000000" stroke="none">
<path d="M13874 12628 c11 -294 25 -813 36 -1293 6 -253 17 -678 25 -945 8
-267 20 -658 26 -870 23 -840 36 -1152 46 -1158 19 -13 20 -37 5 -75 -13 -33
-13 -44 -1 -80 7 -23 17 -45 23 -48 5 -4 4 -25 -3 -52 -12 -50 -8 -72 16 -81
8 -4 13 -12 10 -20 -4 -9 0 -13 11 -12 14 3 17 14 15 74 -1 39 2 74 7 77 6 4
10 -2 10 -12 0 -10 7 -27 15 -37 14 -19 15 -19 15 6 0 15 3 33 6 42 4 12 0 16
-15 16 -18 0 -21 6 -21 45 0 38 3 45 20 45 11 0 20 5 20 11 0 6 -9 13 -20 16
-23 6 -25 14 -7 32 10 11 10 13 0 7 -8 -5 -13 -1 -13 9 0 9 4 14 9 10 5 -3 13
0 18 7 7 12 13 217 10 383 -1 39 -1 183 -2 322 0 138 -3 246 -7 240 -4 -7 -5
44 -2 113 7 132 -1 455 -41 1720 -31 968 -44 1358 -50 1480 -2 52 -5 120 -6
150 l-2 55 -7 -45 -7 -45 -1 43 -2 42 -71 0 -71 0 6 -172z"/>
<path d="M18604 12718 c6 -80 25 -421 46 -853 6 -115 26 -509 45 -875 19 -366
53 -1014 75 -1440 22 -426 47 -901 55 -1055 14 -261 51 -982 75 -1475 6 -118
15 -269 19 -335 l8 -120 82 -167 c61 -124 90 -173 113 -190 18 -12 28 -15 23
-7 -5 7 -11 82 -12 164 -1 83 -4 173 -7 200 -3 28 -7 75 -10 105 -3 30 -10
141 -16 245 -5 105 -15 251 -21 325 -6 74 -12 169 -13 210 -2 41 -8 138 -14
215 -13 149 -38 632 -47 905 -3 91 -8 199 -10 240 -6 108 -24 518 -30 705 -3
88 -10 232 -15 320 -14 220 -18 295 -30 560 -11 240 -24 482 -41 720 -5 77
-14 223 -19 325 -5 102 -12 214 -15 250 -3 36 -7 128 -10 205 -3 77 -10 212
-15 300 -5 88 -12 241 -15 340 -3 99 -8 199 -11 223 l-5 42 -96 0 -95 0 6 -82z"/>
<path d="M10289 10125 c-4 -3 -78 -6 -164 -6 -115 0 -155 -3 -147 -11 13 -13
170 -28 220 -21 28 3 33 2 22 -6 -18 -13 -260 -6 -269 7 -6 9 -113 -2 -133
-14 -12 -8 -10 -42 3 -46 6 -2 -10 -28 -35 -58 -48 -56 -55 -70 -34 -70 7 0
-2 -15 -20 -33 -18 -18 -32 -36 -32 -40 0 -5 -18 -32 -40 -61 -45 -59 -47 -66
-23 -66 15 0 15 -1 0 -18 -10 -10 -17 -24 -17 -30 0 -7 -3 -12 -7 -12 -5 0
-16 -12 -27 -26 -18 -26 -18 -26 2 -15 29 16 52 14 32 -2 -15 -12 -20 -23 -27
-68 -4 -21 0 -27 18 -32 19 -5 20 -8 9 -21 -12 -15 -7 -21 14 -17 5 1 3 -6 -5
-15 -8 -9 -12 -19 -11 -21 2 -3 1 -7 -2 -10 -3 -4 -6 -1 -6 5 0 7 -6 12 -14
12 -9 0 -12 -7 -9 -19 3 -11 11 -17 18 -15 10 4 13 -7 12 -46 -2 -35 2 -54 13
-60 25 -16 34 -11 16 8 -11 13 -14 28 -10 51 7 34 31 38 26 4 -1 -11 2 -32 8
-47 8 -22 7 -28 -8 -34 -19 -8 -25 -62 -6 -62 13 0 28 -28 25 -46 -3 -19 32
-27 42 -9 7 14 12 13 40 -7 17 -13 39 -27 48 -33 9 -5 39 -23 65 -39 27 -16
59 -41 71 -55 20 -24 27 -26 100 -25 43 1 101 9 128 17 139 43 194 56 230 57
41 0 67 10 67 26 0 5 4 8 10 6 9 -2 52 28 89 63 9 9 22 13 30 10 14 -5 49 -79
49 -101 0 -16 49 -102 63 -111 7 -5 23 -8 36 -8 21 0 26 -7 38 -55 8 -30 21
-77 29 -105 14 -45 14 -54 0 -94 -20 -54 -20 -56 -2 -42 8 7 27 11 43 9 28 -3
28 -3 26 -68 -2 -36 -9 -85 -17 -110 -8 -25 -21 -70 -31 -100 -20 -66 -77
-190 -86 -190 -10 0 -1 74 17 141 8 31 16 83 18 115 2 33 7 67 11 77 4 10 3
17 -4 17 -7 0 -5 14 5 40 9 23 14 44 10 47 -3 4 -6 -1 -6 -10 0 -9 -12 -28
-26 -42 -16 -16 -24 -33 -21 -44 3 -11 -5 -29 -18 -43 -12 -14 -26 -35 -30
-47 -12 -40 -108 -70 -180 -58 -11 2 -46 11 -78 21 -76 23 -88 18 -77 -31 11
-45 -4 -66 -59 -84 -20 -7 -45 -18 -56 -25 -11 -7 -44 -18 -72 -24 -44 -10
-56 -9 -75 4 -25 18 -58 21 -58 6 0 -5 7 -10 15 -10 18 0 37 -34 30 -53 -6
-13 12 -21 93 -42 12 -4 22 -13 22 -22 0 -13 -8 -15 -46 -9 -46 6 -93 38 -94
64 0 6 -6 12 -14 12 -7 0 -25 9 -39 20 -14 11 -32 17 -41 14 -23 -9 -20 -41 4
-49 21 -7 107 -75 95 -75 -4 0 11 -21 34 -47 23 -27 48 -56 56 -66 14 -15 31
-18 123 -16 88 2 110 5 126 21 11 10 27 18 36 18 9 0 25 9 35 20 16 17 55 28
55 15 0 -2 -13 -30 -29 -62 -51 -99 -77 -115 -210 -128 -30 -3 -60 -10 -68
-16 -7 -7 -54 -13 -104 -15 -50 -2 -98 -8 -106 -13 -14 -7 -13 -11 9 -25 35
-23 207 -31 215 -11 3 8 14 15 24 15 29 0 24 -38 -6 -50 -14 -5 -25 -14 -25
-20 0 -6 -8 -10 -17 -9 -10 1 -55 1 -100 0 -66 -1 -83 -4 -83 -16 0 -23 35
-36 111 -39 57 -3 71 0 79 14 6 12 18 15 39 12 25 -3 31 -9 31 -28 0 -19 -5
-24 -26 -24 -17 0 -28 -6 -31 -19 -4 -17 -13 -19 -88 -15 -65 3 -84 1 -88 -10
-10 -25 16 -34 90 -34 51 1 73 5 77 14 3 8 18 14 34 14 28 0 29 -2 36 -61 3
-34 6 -123 6 -197 0 -129 1 -134 20 -129 12 3 24 -1 30 -11 7 -12 9 68 5 249
-4 259 -4 267 15 272 26 7 26 23 0 30 -15 4 -20 14 -20 36 0 37 26 47 99 38
32 -4 57 -1 76 9 15 8 44 14 64 14 28 0 38 4 38 16 0 12 -10 15 -46 12 -71 -4
-65 18 27 110 74 73 122 146 122 186 0 9 4 16 8 16 21 0 32 -30 33 -89 l0 -66
21 45 c16 33 22 66 22 125 1 67 4 84 22 103 27 29 37 50 74 155 39 115 39 151
0 77 -33 -62 -34 -60 -20 30 17 112 15 109 62 112 24 2 43 9 46 17 4 11 -3 12
-32 7 -23 -4 -36 -3 -36 4 0 5 5 10 12 10 6 0 9 3 5 6 -3 4 -25 -1 -48 -10
-23 -9 -44 -14 -47 -11 -3 2 3 20 13 39 18 33 18 35 1 52 -15 14 -17 27 -12
66 9 69 15 81 32 67 8 -6 14 -18 14 -25 0 -35 53 -3 71 43 14 37 11 61 -9 81
-15 15 -16 20 -5 31 10 9 13 9 13 -1 0 -8 5 -6 11 5 5 9 17 17 24 17 17 0 21
65 6 89 -9 14 -16 9 -55 -44 -15 -19 -15 -18 -16 16 0 24 -5 39 -16 43 -12 5
-14 13 -9 34 4 15 6 62 6 106 -1 43 6 114 15 159 28 136 -5 286 -74 344 -15
12 -35 22 -44 23 -18 0 -51 57 -42 71 3 5 -1 9 -9 9 -8 0 -22 16 -31 35 -13
26 -31 41 -74 62 -31 14 -59 29 -62 33 -3 3 -21 12 -40 20 -19 7 -39 18 -45
25 -5 6 -46 15 -90 18 -44 3 -94 9 -110 12 -17 4 -33 4 -36 0z"/>
<path d="M12324 9115 c-12 -8 -24 -11 -28 -8 -3 3 -6 1 -6 -5 0 -7 -7 -9 -17
-5 -17 7 -17 6 0 -20 9 -15 13 -27 7 -27 -16 0 -12 -18 10 -40 23 -23 15 -25
-20 -5 -14 8 -42 14 -62 15 -20 0 -41 6 -45 13 -7 10 -71 38 -125 54 -10 3
-29 2 -43 -1 -21 -5 -24 -10 -15 -26 15 -28 12 -40 -9 -40 -11 0 -23 -4 -26
-10 -3 -5 -17 -10 -30 -10 -13 0 -25 -6 -27 -12 -3 -8 -19 -1 -46 21 -33 26
-42 29 -42 16 0 -12 -5 -15 -17 -10 -45 18 -52 17 -71 -15 -16 -25 -21 -28
-26 -15 -3 9 -10 13 -16 10 -5 -3 -10 2 -11 12 0 10 -6 1 -12 -21 -13 -43 -29
-49 -37 -14 -3 13 -14 24 -23 26 -14 3 -17 -5 -18 -50 -1 -56 -27 -115 -49
-110 -9 2 -11 -10 -7 -45 4 -41 3 -45 -8 -30 -11 16 -13 13 -11 -24 1 -24 9
-46 18 -53 8 -6 18 -22 22 -36 8 -27 23 -64 37 -92 12 -24 12 -58 0 -40 -5 9
-12 -1 -21 -32 -19 -67 -7 -75 19 -12 l22 55 52 -1 c30 0 63 -7 77 -17 14 -9
32 -16 40 -17 104 -9 157 -17 171 -25 21 -11 42 -12 36 -1 -3 4 14 8 36 8 143
4 178 7 183 15 3 5 9 7 13 4 5 -2 27 4 49 15 23 11 45 19 50 18 5 -2 18 7 28
20 15 18 38 26 119 38 55 9 127 13 159 11 71 -6 82 -17 121 -122 15 -38 32
-83 39 -100 13 -34 6 -135 -13 -175 -23 -50 -36 -67 -49 -62 -12 4 -13 -1 -16
-73 -1 -33 2 -40 19 -43 12 -2 33 -13 48 -25 27 -21 28 -27 32 -122 2 -57 12
-134 24 -178 13 -52 18 -93 14 -125 -4 -37 -2 -51 11 -61 9 -7 16 -25 17 -40
0 -23 1 -24 9 -6 6 17 9 14 15 -17 6 -32 3 -43 -23 -76 -20 -25 -28 -43 -22
-52 4 -8 11 -31 14 -50 l7 -35 -21 35 c-18 29 -20 31 -16 10 3 -14 1 -32 -4
-40 -7 -11 -10 -11 -10 -2 0 10 -10 12 -37 7 -44 -7 -47 -9 -39 -31 6 -15 8
-16 19 -1 15 19 57 6 57 -18 0 -15 -2 -15 -15 -1 -13 13 -20 13 -35 4 -16 -10
-37 -59 -33 -78 1 -3 -11 -5 -26 -5 -24 0 -26 3 -23 28 3 15 0 27 -7 27 -6 0
-8 8 -5 18 5 14 4 15 -5 2 -6 -8 -11 -23 -11 -32 0 -11 -8 -18 -19 -18 -27 0
-34 15 -19 39 16 26 4 38 -17 18 -8 -9 -15 -18 -15 -22 0 -10 -28 -35 -39 -35
-6 0 -11 -4 -11 -9 0 -5 10 -7 23 -5 12 2 16 2 10 -2 -7 -3 -13 -15 -13 -25 0
-11 -4 -17 -10 -14 -6 3 -7 -1 -4 -9 4 -11 0 -16 -10 -16 -9 0 -16 6 -16 13
-1 6 -8 0 -16 -16 -10 -19 -12 -33 -5 -45 7 -14 6 -18 -9 -18 -12 0 -24 12
-31 28 -6 15 -15 25 -20 22 -15 -9 -10 13 6 26 8 7 15 21 15 31 0 11 5 19 11
19 7 0 8 11 4 30 -4 20 -3 30 5 30 6 0 -8 18 -32 40 -72 67 -268 214 -275 207
-7 -8 9 -35 27 -43 10 -5 47 -36 83 -70 l65 -61 -39 2 c-28 2 -39 -2 -39 -12
0 -8 -4 -11 -10 -8 -5 3 -15 -3 -21 -14 -7 -10 -19 -17 -26 -14 -9 4 -11 0 -7
-11 7 -18 20 -21 29 -6 9 15 25 12 25 -6 0 -8 -4 -12 -10 -9 -5 3 -10 0 -10
-9 0 -16 -37 -24 -149 -31 -40 -3 -79 -9 -86 -15 -9 -7 -21 -7 -41 1 -16 6
-55 11 -86 11 -44 0 -62 5 -80 22 l-23 21 22 3 c11 2 37 -4 57 -12 38 -16 171
-12 182 5 3 5 16 9 29 9 13 0 27 5 30 10 4 7 13 6 27 -1 15 -8 22 -8 28 1 4 7
13 9 19 6 6 -4 11 -1 11 8 0 8 -6 17 -12 19 -10 4 -10 6 -1 6 7 1 10 8 6 18
-4 11 -3 14 5 9 18 -11 14 0 -5 15 -11 10 -14 10 -9 2 4 -7 3 -13 -3 -13 -5 0
-12 -8 -14 -17 -4 -17 -5 -17 -6 -1 -1 10 -7 15 -15 12 -23 -9 -27 25 -6 48
22 24 27 47 7 30 -7 -6 -33 -14 -57 -17 -68 -9 -130 -27 -130 -36 0 -5 -5 -9
-11 -9 -5 0 -7 5 -3 12 5 8 2 9 -10 5 -10 -4 -22 -7 -27 -7 -6 0 -7 -4 -4 -10
9 -14 -28 -13 -43 2 -8 8 -15 8 -27 -2 -14 -11 -18 -11 -25 -1 -11 19 -56 6
-86 -24 -14 -14 -29 -25 -34 -25 -5 0 -11 -8 -13 -17 -4 -16 -5 -16 -6 1 -1
21 56 116 70 116 9 0 33 40 27 45 -2 3 -21 -11 -43 -30 -21 -19 -44 -35 -52
-35 -38 0 -58 -108 -21 -118 9 -2 20 -14 24 -26 3 -11 20 -36 37 -53 17 -18
26 -33 19 -33 -7 0 -14 0 -17 0 -2 0 -15 -10 -27 -23 l-23 -22 34 -65 c41 -78
84 -137 89 -121 7 20 30 12 25 -9 -3 -11 -9 -18 -13 -15 -5 3 -6 -4 -3 -15 3
-11 11 -20 18 -20 8 0 11 -8 9 -17 -3 -11 3 -23 16 -31 18 -11 20 -10 20 12 0
13 -6 26 -12 29 -10 3 -10 10 2 33 8 16 16 34 19 39 3 6 -3 4 -12 -4 -15 -12
-17 -11 -17 3 0 9 -5 16 -11 16 -5 0 -7 5 -3 12 5 8 2 9 -9 5 -14 -5 -16 -2
-11 19 4 14 1 44 -6 65 -10 30 -11 42 -2 51 7 7 12 25 12 40 0 15 2 28 5 28 3
0 25 -16 51 -35 41 -32 104 -49 89 -25 -3 6 -13 10 -20 10 -16 0 -39 32 -49
66 l-7 22 70 -18 c54 -14 78 -16 106 -9 19 6 39 7 44 4 5 -3 12 -1 16 5 9 14
55 13 55 -2 0 -6 7 -4 18 5 23 21 42 22 42 2 0 -20 17 -19 29 3 9 16 10 16 16
0 9 -24 -3 -40 -25 -33 -12 4 -19 -1 -23 -15 -8 -30 18 -25 87 14 l60 34 26
-37 c28 -38 44 -81 30 -81 -8 0 -25 -48 -22 -62 3 -12 -38 -30 -54 -24 -8 3
-14 1 -14 -4 0 -18 5 -25 15 -22 6 2 7 0 3 -4 -4 -4 -3 -13 3 -21 9 -9 8 -13
0 -13 -6 0 -11 5 -11 11 0 8 -5 8 -15 -1 -8 -7 -15 -22 -15 -33 0 -21 0 -21
16 -1 15 17 15 17 0 -8 -9 -15 -13 -35 -10 -45 4 -13 3 -14 -4 -5 -12 18 -65
5 -58 -14 3 -8 2 -23 -2 -35 -8 -20 -9 -19 -21 8 -9 18 -15 23 -19 14 -2 -7 2
-17 9 -22 12 -8 11 -11 -3 -20 -10 -5 -18 -18 -18 -28 0 -11 -7 -22 -16 -25
-26 -10 -36 -7 -30 9 6 17 -19 21 -29 5 -8 -14 -35 -12 -65 3 -41 21 -62 28
-55 17 3 -6 0 -13 -9 -16 -8 -3 -12 -12 -9 -20 7 -20 -14 -17 -26 4 -10 16
-12 16 -26 -2 -11 -14 -12 -22 -4 -27 6 -4 8 -12 5 -18 -10 -15 20 -25 137
-46 53 -9 97 -21 97 -26 0 -5 0 -12 -1 -15 0 -4 5 -10 12 -15 11 -6 11 -17 1
-54 -10 -39 -10 -48 3 -61 8 -9 13 -20 9 -25 -3 -6 -1 -15 4 -22 5 -7 11 -24
14 -38 4 -25 1 -27 -34 -33 -21 -4 -40 -12 -43 -19 -16 -52 -14 -67 11 -96 31
-38 40 -39 48 -6 7 29 43 35 53 8 3 -10 14 -27 25 -39 10 -11 19 -38 21 -60 1
-21 11 -50 22 -63 44 -53 75 -83 75 -72 0 8 5 9 19 1 30 -15 33 -12 16 14 -13
19 -13 25 -3 29 10 4 8 10 -6 21 -11 9 -16 16 -10 16 5 0 1 7 -9 15 -18 13
-18 14 2 25 12 6 26 8 31 5 5 -3 14 3 20 14 10 19 14 16 64 -38 l54 -59 6 29
c4 22 13 31 35 35 22 5 30 13 35 37 8 41 1 45 -32 15 -21 -20 -35 -25 -61 -22
-42 5 -71 29 -71 60 0 12 -4 34 -9 47 -9 22 -15 24 -81 25 -62 0 -69 -2 -53
-14 17 -13 17 -13 -2 -14 -26 0 -47 14 -43 28 2 6 -6 17 -17 26 -18 14 -13 15
65 9 106 -7 127 -15 148 -54 23 -43 48 -64 77 -64 13 -1 21 3 19 7 -3 4 -13 8
-22 8 -11 0 -13 3 -5 11 8 8 18 6 36 -6 23 -15 29 -15 54 -2 57 30 66 49 59
129 -6 69 -5 76 24 126 34 58 52 71 75 52 21 -18 19 -41 -10 -80 -30 -41 -24
-52 10 -20 27 25 32 21 14 -12 -8 -15 -8 -19 0 -14 6 4 11 1 11 -7 0 -8 -8
-18 -17 -22 -16 -6 -15 -8 6 -16 23 -9 23 -10 5 -32 -62 -75 -91 -97 -77 -60
4 11 3 14 -5 9 -7 -4 -12 -18 -12 -31 0 -18 4 -22 20 -18 14 4 20 0 20 -11 0
-9 5 -16 10 -16 6 0 10 7 10 16 0 8 4 13 9 10 13 -8 26 12 40 63 9 30 16 40
23 33 6 -6 16 -8 24 -5 15 6 45 -85 38 -114 -4 -15 1 -18 29 -18 34 0 35 1 22
25 -43 83 -74 163 -80 206 -9 59 -34 110 -69 144 -23 21 -30 22 -46 12 -39
-24 -21 12 60 118 44 58 84 117 89 132 10 27 8 28 -22 28 -24 0 -28 3 -19 12
7 7 12 29 12 49 0 21 5 41 10 44 6 4 7 11 4 17 -5 7 -10 3 -15 -10 -15 -39
-26 -23 -19 25 4 26 5 53 3 60 -3 7 0 13 6 13 6 0 11 10 10 23 0 21 -1 21 -9
2 -5 -11 -9 -15 -9 -8 -2 21 11 43 25 43 10 0 12 8 8 30 -5 24 13 171 31 256
3 15 -1 23 -13 26 -20 6 -47 -18 -32 -27 6 -4 8 -11 4 -16 -9 -15 -24 0 -24
26 0 16 7 25 23 29 21 5 24 13 35 118 6 62 14 151 18 198 7 91 32 168 65 203
11 12 31 42 44 67 31 62 59 84 100 83 32 -1 35 1 35 29 0 16 7 55 16 86 12 41
15 77 11 134 -5 65 -4 76 8 71 18 -6 20 19 5 47 -7 13 -7 21 0 25 5 3 10 17
10 31 0 13 5 24 11 24 5 0 7 5 4 10 -4 6 -11 8 -16 5 -8 -6 -13 9 -6 19 1 2
-6 13 -16 24 -17 19 -15 50 6 64 17 11 -19 55 -70 85 l-48 28 30 5 30 6 -43
23 c-24 12 -46 20 -49 17 -8 -8 -63 26 -62 39 3 23 -1 36 -10 31 -5 -3 -15 1
-22 10 -9 11 -22 14 -52 8 -28 -4 -38 -3 -33 5 4 6 0 11 -8 11 -9 0 -16 7 -16
15 0 21 -50 118 -57 111 -3 -3 -12 1 -19 9 -10 9 -30 13 -62 10 -42 -4 -53 0
-83 25 -28 24 -30 28 -11 23 13 -3 22 -1 22 6 0 6 -15 11 -34 11 -18 0 -62 9
-97 20 -44 15 -65 17 -70 9 -6 -11 -46 8 -77 38 -16 16 -13 16 -38 -2z"/>
<path d="M7986 9089 c-21 -11 -47 -29 -59 -40 -22 -20 -49 -27 -29 -7 7 7 12
17 12 22 0 6 -10 -3 -22 -18 -13 -16 -31 -38 -41 -50 -18 -21 -18 -21 -6 4 11
24 10 24 -21 -5 -69 -64 -152 -217 -198 -370 -44 -143 -52 -176 -41 -170 5 4
9 13 9 21 0 8 5 14 10 14 12 0 15 11 -20 -98 -16 -51 -27 -99 -24 -106 3 -8 1
-17 -5 -20 -5 -4 -8 -23 -6 -44 4 -34 4 -34 -4 -7 -5 20 -10 25 -13 15 -8 -22
-27 -183 -33 -280 -3 -47 -8 -116 -11 -155 -3 -44 -1 -66 5 -60 7 8 31 270 31
347 0 11 4 17 8 14 4 -2 4 -44 1 -93 -4 -48 -6 -127 -4 -175 2 -53 0 -90 -6
-94 -13 -8 3 -679 16 -693 3 -2 5 47 6 110 1 201 7 423 12 469 8 67 22 282 19
305 -1 14 0 16 7 7 10 -17 21 31 21 94 0 23 5 46 11 49 7 5 8 -12 2 -57 -4
-34 -8 -82 -8 -105 0 -26 -4 -43 -11 -43 -15 0 -30 -203 -15 -208 6 -2 11 -10
11 -18 0 -9 -4 -12 -10 -9 -6 4 -10 -14 -9 -47 0 -39 3 -48 9 -33 l9 20 1 -20
c1 -11 2 -55 2 -97 1 -43 5 -75 9 -72 5 3 9 26 9 52 0 26 5 54 10 62 7 11 8 5
5 -20 -2 -19 -7 -159 -10 -310 -4 -151 -9 -369 -13 -485 -14 -429 -6 -709 22
-744 6 -7 12 -34 13 -60 1 -25 11 -95 22 -156 l20 -110 -5 105 c-10 207 -11
405 -3 385 5 -12 7 36 6 117 -1 76 -5 138 -8 138 -3 0 -6 19 -7 43 0 31 2 37
8 22 6 -16 9 -12 12 20 3 22 6 -27 8 -110 2 -82 5 -163 5 -180 3 -44 27 -207
30 -203 4 4 12 237 20 538 16 680 15 649 33 690 11 25 11 25 11 -7 1 -18 -3
-33 -8 -33 -5 0 -8 -74 -8 -167 1 -93 -3 -331 -7 -530 -8 -321 -7 -363 6 -363
11 0 14 7 11 24 -7 36 21 40 34 5 6 -16 7 -27 2 -23 -5 3 -9 -19 -9 -50 0 -31
4 -56 10 -56 12 0 24 45 17 64 -4 9 -1 13 6 10 9 -3 12 43 14 188 2 243 9 436
17 467 3 13 12 31 20 40 14 15 26 160 27 321 0 48 1 52 10 30 8 -17 7 -61 0
-143 -6 -65 -9 -123 -5 -128 3 -5 16 1 29 13 22 21 22 24 8 51 -17 34 -12 169
6 175 6 2 11 13 11 24 0 14 5 18 16 14 9 -3 22 -6 30 -6 20 0 154 -135 154
-155 0 -8 -6 -24 -12 -35 -11 -17 -10 -22 2 -30 12 -8 13 -13 3 -30 -16 -24
-16 -33 -2 -25 20 13 97 -16 104 -39 7 -23 7 -161 -1 -198 -2 -13 -7 -43 -9
-68 -5 -41 -3 -46 22 -57 36 -17 38 -17 57 12 10 15 20 62 25 120 7 64 15 102
28 119 10 14 21 26 24 26 4 0 24 -18 45 -39 21 -22 42 -38 46 -35 4 3 8 -4 8
-14 0 -11 7 -22 15 -26 8 -3 15 -12 15 -21 0 -8 3 -15 8 -15 10 0 69 -118 77
-155 5 -24 4 -27 -5 -12 -19 30 -37 20 -43 -27 -10 -73 -24 -92 -84 -115 -30
-12 -60 -18 -65 -14 -6 3 -16 0 -22 -8 -13 -17 -82 -59 -97 -59 -6 0 -37 -27
-70 -59 -56 -56 -72 -92 -49 -106 6 -3 10 -1 10 5 0 6 5 8 10 5 6 -3 10 4 10
17 0 18 2 20 10 8 8 -13 10 -12 10 3 0 20 16 23 23 5 3 -7 6 0 6 15 1 16 5 26
11 22 6 -3 10 4 11 17 1 23 1 23 9 -2 4 -14 8 -19 9 -12 1 7 6 10 11 7 6 -3
10 -1 10 4 0 20 31 11 40 -11 9 -23 9 -23 10 2 0 20 2 22 10 10 8 -12 10 -10
10 10 l1 25 11 -25 c10 -22 12 -23 16 -6 3 15 6 16 13 5 6 -10 9 -7 9 11 1 24
1 24 15 6 15 -20 15 -20 16 0 0 18 1 18 9 -1 5 -12 9 -14 9 -6 1 11 5 10 16
-5 14 -18 14 -18 16 11 l1 30 8 -30 8 -30 2 30 2 30 13 -35 c10 -26 14 -30 15
-15 1 11 8 -3 15 -31 17 -72 28 -86 36 -49 7 32 11 -24 12 -177 0 -56 4 -78
13 -78 7 0 15 -8 17 -17 3 -11 6 -6 7 12 2 26 3 23 11 -15 13 -71 40 -151 49
-145 4 2 16 -23 27 -56 11 -33 23 -60 26 -60 27 3 32 0 20 -7 -10 -6 -5 -21
19 -58 18 -27 42 -70 55 -96 35 -75 36 -56 2 35 -127 340 -126 338 -132 387
-3 25 -4 37 -1 28 3 -10 9 -18 14 -18 5 0 11 8 13 18 4 14 5 13 6 -4 0 -11 12
-34 24 -52 13 -17 39 -61 57 -98 19 -36 36 -62 38 -56 1 5 -6 25 -17 43 -24
39 -26 49 -9 49 6 0 9 -3 5 -6 -3 -3 4 -23 17 -43 12 -20 28 -51 35 -68 8 -18
18 -33 23 -33 5 0 7 -4 4 -9 -3 -4 8 -23 24 -41 16 -18 37 -56 45 -84 9 -28
22 -67 30 -86 7 -19 16 -44 19 -54 4 -12 10 -16 16 -10 9 9 -22 112 -48 160
-6 10 -23 45 -39 77 -15 32 -42 86 -60 120 -30 59 -58 126 -49 116 21 -21 116
-177 116 -191 0 -9 19 -52 41 -95 33 -62 41 -71 36 -43 -6 33 -6 34 8 16 8
-11 13 -27 10 -36 -9 -27 29 -134 48 -138 11 -2 17 3 17 14 0 14 3 15 12 6 8
-8 5 -16 -13 -32 -13 -12 -19 -19 -13 -16 12 6 50 -72 40 -81 -2 -3 2 -26 10
-51 17 -56 17 -65 4 -57 -11 7 -13 -6 -4 -29 3 -9 10 -14 14 -11 9 5 49 -136
51 -176 0 -13 7 3 15 36 10 39 13 91 11 150 -4 82 -22 191 -26 155 -1 -8 -20
28 -41 80 -22 52 -45 103 -50 113 -8 13 -8 22 0 32 8 10 8 15 -1 20 -6 4 -26
41 -45 81 -26 57 -39 75 -59 80 -18 4 -24 11 -21 23 3 9 -4 27 -15 41 l-21 25
16 -27 c10 -17 12 -29 6 -33 -6 -3 -13 2 -16 12 -9 26 -18 49 -58 136 -46 99
-46 109 1 27 20 -36 42 -69 48 -75 7 -5 22 -27 34 -47 34 -57 37 -45 3 15 -16
28 -44 78 -62 110 -18 32 -30 61 -27 64 3 3 -3 27 -13 54 -11 27 -15 49 -10
49 6 0 14 -8 17 -17 4 -10 22 -32 40 -50 18 -18 30 -26 27 -18 -4 9 -1 15 7
15 13 0 3 13 -61 75 -25 25 -37 31 -43 22 -6 -8 -7 -6 -3 6 3 10 -3 27 -14 40
-55 63 -112 188 -175 383 -2 6 1 17 5 24 6 10 10 6 15 -16 26 -113 38 -152 54
-174 10 -14 22 -37 26 -50 11 -35 57 -113 71 -123 7 -4 23 -25 35 -47 13 -22
37 -46 56 -55 23 -11 40 -31 58 -68 17 -34 24 -42 20 -24 -3 16 -19 56 -35 90
-16 34 -30 69 -32 77 -2 8 -5 17 -8 20 -12 12 -43 88 -46 114 -2 16 -10 70
-18 120 -18 111 -21 154 -13 186 3 14 9 57 12 95 3 39 10 72 15 73 6 2 8 7 5
12 -3 5 6 44 19 87 13 43 30 101 36 128 7 28 19 73 27 100 8 28 18 88 23 135
13 112 20 141 30 135 5 -3 7 -12 4 -19 -3 -8 0 -17 6 -21 8 -5 10 5 5 38 -4
28 -3 47 4 51 6 4 11 0 11 -10 0 -41 11 -2 16 57 8 88 23 204 34 264 16 82 24
615 11 735 -23 208 -68 319 -179 436 -64 68 -87 84 -230 161 -62 34 -177 61
-234 57 -19 -2 -34 5 -50 24 -26 30 -79 52 -127 52 -18 0 -30 4 -26 9 3 6 -23
9 -62 9 -84 -1 -192 8 -215 17 -11 4 -35 -2 -60 -14 l-43 -22 35 30 c41 35 31
40 -24 10z m571 -210 c27 -11 74 -34 106 -51 32 -16 65 -27 72 -24 8 3 17 1
19 -3 3 -5 35 -23 71 -41 36 -18 77 -47 91 -64 117 -143 140 -206 147 -396 5
-161 1 -182 -38 -195 -77 -26 -124 -76 -121 -128 1 -19 6 -22 39 -19 35 3 37
2 37 -27 0 -35 1 -35 -34 -21 -26 10 -26 9 -20 -33 8 -53 18 -65 59 -73 40 -7
46 -27 35 -126 -9 -81 -36 -122 -65 -98 -9 8 -13 20 -9 33 6 18 3 19 -31 13
-27 -5 -42 -3 -54 8 -9 8 -52 21 -96 29 -44 8 -89 17 -100 22 -12 4 -4 -8 20
-31 39 -38 97 -108 103 -125 2 -5 -3 -9 -12 -9 -9 0 -21 -8 -27 -19 -13 -20
-40 -17 -116 14 -23 9 -48 15 -54 13 -7 -2 10 -12 37 -22 27 -10 54 -20 59
-22 17 -7 47 -28 67 -47 18 -17 18 -19 1 -48 -15 -25 -22 -29 -48 -23 -16 3
-40 12 -52 20 -12 8 -35 14 -50 14 l-28 -1 31 -13 c18 -8 35 -19 38 -25 4 -6
15 -11 25 -11 10 0 25 -8 34 -17 13 -16 13 -20 1 -31 -8 -7 -14 -8 -14 -2 0 5
-3 9 -7 9 -5 -1 -10 0 -13 1 -3 1 -18 4 -33 6 l-29 5 27 -35 c15 -19 24 -40
21 -45 -4 -5 -1 -13 5 -17 8 -4 7 -9 -2 -15 -11 -7 -11 -9 -1 -9 7 0 10 -4 7
-10 -3 -5 -2 -10 3 -10 6 0 8 -10 5 -22 -4 -19 -3 -21 7 -8 10 13 11 12 6 -3
-3 -10 -6 -23 -6 -28 0 -6 -4 -7 -10 -4 -5 3 -7 0 -5 -8 3 -7 -12 -29 -34 -50
-22 -20 -41 -33 -43 -28 -2 5 -28 12 -58 15 -111 12 -174 26 -221 51 -27 14
-49 22 -49 19 0 -3 -15 11 -32 32 -18 20 -50 55 -70 77 -21 22 -38 45 -38 51
0 6 -14 27 -30 46 -16 19 -30 41 -30 49 0 7 -9 28 -19 45 -23 37 -40 103 -51
201 l-7 70 -3 -65 c-7 -182 -18 -170 -16 17 1 161 -1 199 -11 191 -10 -8 -13
0 -13 36 0 25 3 46 8 46 4 0 8 17 8 38 1 63 15 178 24 208 8 23 9 14 7 -38 -3
-64 5 -89 17 -50 3 9 3 -35 1 -98 -3 -63 -3 -110 0 -105 2 6 14 75 25 154 14
97 28 158 44 190 13 25 34 79 47 118 15 48 37 91 65 124 23 29 45 68 49 88 4
19 15 47 26 62 10 15 19 32 19 37 0 6 17 41 39 79 29 52 51 77 96 108 32 22
63 48 69 58 14 22 25 22 83 -4z m-667 -1014 c10 6 2 -151 -15 -295 -7 -58 -13
-236 -14 -400 -1 -162 -4 -296 -6 -299 -3 -2 -6 67 -6 155 -1 87 -3 150 -6
139 -10 -40 -23 -39 -23 1 0 61 20 485 25 524 13 116 30 221 33 197 2 -15 7
-25 12 -22z"/>
<path d="M8590 8270 c-9 -6 -8 -9 7 -14 11 -3 32 -19 47 -35 l27 -28 -77 -2
c-83 -2 -128 -19 -137 -50 -3 -14 1 -21 16 -25 12 -3 24 0 28 6 4 6 32 13 63
16 l56 4 0 -36 c0 -41 -13 -45 -61 -20 -48 24 -42 13 12 -26 50 -36 62 -59 32
-61 -10 0 -5 -5 11 -10 17 -4 32 -6 35 -4 2 3 -1 5 -7 5 -7 0 -12 4 -12 10 0
5 7 7 16 3 8 -3 28 4 44 16 16 11 34 21 40 21 5 0 10 7 10 15 0 8 5 15 10 15
6 0 8 11 4 25 -6 23 -4 25 19 21 15 -2 31 1 37 9 29 35 -177 172 -220 145z"/>
<path d="M8537 7734 c-27 -14 -80 -36 -120 -49 -81 -28 -94 -38 -103 -83 -5
-27 -4 -31 9 -26 10 3 23 -5 38 -25 20 -28 23 -29 36 -13 12 16 14 16 29 -3
15 -18 16 -18 10 -1 -6 17 -2 18 36 13 24 -3 54 -9 68 -12 l25 -7 -25 20 c-13
11 -42 25 -65 32 -83 25 -92 40 -38 65 44 21 149 90 158 105 10 15 -6 11 -58
-16z"/>
<path d="M4577 8894 c-3 -4 -26 -9 -49 -11 -53 -6 -105 -32 -138 -69 -14 -16
-18 -23 -10 -17 21 15 60 26 60 16 0 -4 -19 -20 -43 -35 -23 -15 -54 -40 -67
-55 l-25 -28 26 23 c42 37 43 25 0 -25 -141 -169 -172 -213 -224 -316 -58
-118 -148 -377 -131 -377 3 0 1 -8 -4 -17 -5 -10 -12 -38 -15 -63 l-6 -45 15
40 c8 22 26 78 39 125 34 124 143 360 152 333 3 -7 -3 -27 -11 -45 -9 -17 -14
-33 -12 -36 4 -3 96 173 96 184 0 16 -20 -3 -39 -37 -13 -22 -25 -38 -28 -36
-2 3 9 24 24 49 19 29 34 42 46 40 12 -3 17 3 17 20 0 18 -2 20 -10 8 -5 -8
-10 -12 -10 -7 0 8 63 100 88 130 18 21 40 23 22 2 -7 -9 -8 -15 -2 -15 5 0
18 12 27 27 16 24 16 26 0 20 -11 -5 -15 -3 -13 5 3 7 14 14 26 16 11 2 42 23
68 48 27 24 53 43 58 41 14 -5 20 -27 6 -27 -6 0 -8 5 -5 10 3 6 2 10 -3 10
-15 0 -23 -28 -11 -36 6 -3 24 3 39 14 23 17 30 19 39 8 8 -10 -3 -27 -45 -72
-30 -32 -60 -68 -66 -79 -5 -11 12 3 39 31 51 54 124 108 92 69 -34 -43 -33
-49 7 -26 47 28 109 38 100 16 -6 -18 15 -20 32 -3 19 19 25 2 7 -19 -9 -11
-28 -39 -42 -64 l-26 -44 36 34 c19 18 40 30 46 27 7 -5 8 -1 4 11 -6 15 -5
16 9 3 12 -11 13 -20 6 -35 -8 -14 -1 -11 21 10 l32 30 -14 -35 c-8 -19 -18
-48 -21 -65 l-8 -30 28 25 27 25 -18 -28 c-10 -15 -15 -30 -11 -34 3 -3 6 -2
6 4 0 5 6 10 13 10 25 1 43 9 60 27 13 15 20 17 29 8 7 -7 21 -12 33 -12 17 0
13 -6 -19 -35 -22 -19 -35 -35 -30 -35 5 -1 -2 -7 -16 -15 -14 -8 -23 -15 -20
-15 30 -7 39 -4 55 16 47 63 44 60 45 43 0 -9 -13 -33 -30 -54 -16 -21 -30
-42 -30 -48 0 -15 39 23 45 44 9 28 35 24 27 -3 -7 -28 -27 -49 -37 -40 -5 4
-5 1 -1 -6 4 -7 0 -26 -8 -44 -20 -38 -20 -42 -1 -35 8 4 17 2 20 -3 4 -6 1
-10 -6 -10 -7 0 -10 -3 -7 -6 4 -3 15 -1 27 5 14 8 22 8 27 0 8 -13 -16 -30
-30 -22 -5 3 -6 1 -2 -5 4 -7 1 -12 -8 -12 -9 0 -15 -3 -15 -7 4 -22 -3 -34
-15 -31 -8 2 -22 -6 -31 -17 -16 -20 -16 -19 -9 5 4 14 8 32 11 40 2 8 -5 -4
-17 -28 -19 -43 -50 -82 -50 -65 0 5 7 18 15 29 8 10 15 25 15 33 0 11 -4 9
-14 -5 -13 -17 -15 -17 -21 -2 -4 10 -16 15 -31 13 -15 -1 -23 2 -21 9 3 6 9
10 14 9 5 -1 10 14 10 33 1 19 -1 34 -3 34 -8 0 -41 -34 -52 -55 -16 -29 -14
1 3 50 19 52 19 63 -1 39 -15 -18 -15 -18 -9 11 l6 30 -33 -37 c-40 -46 -113
-186 -130 -250 -7 -27 -15 -48 -18 -49 -3 0 -13 -2 -22 -4 -10 -2 -18 1 -18 6
0 5 6 9 13 9 8 0 9 3 1 8 -6 4 -13 14 -16 22 -4 10 -8 6 -13 -12 -4 -16 -12
-28 -17 -28 -6 0 -7 8 -3 18 4 9 10 28 13 42 2 14 9 31 15 38 7 9 6 11 -5 7
-8 -3 -22 -28 -32 -55 -10 -27 -24 -54 -32 -61 -8 -6 -14 -18 -14 -25 0 -8 -5
-14 -11 -14 -5 0 -8 -4 -4 -9 3 -5 1 -12 -4 -16 -6 -3 -8 -12 -5 -19 3 -7 -1
-20 -8 -27 -21 -22 -48 -87 -49 -117 0 -15 -4 -36 -8 -47 -7 -17 -9 -15 -13
12 -3 20 -1 30 6 26 5 -4 7 0 4 8 -3 8 0 26 8 40 7 13 13 33 14 43 0 11 -17
-16 -39 -60 -21 -43 -50 -96 -64 -118 -15 -21 -38 -61 -52 -90 -14 -28 -43
-79 -65 -113 -49 -80 -38 -81 19 -3 24 33 45 60 47 60 9 0 -27 -61 -54 -92
-15 -18 -36 -46 -46 -61 -10 -16 -21 -25 -24 -21 -4 3 -1 9 6 11 20 8 13 26
-8 20 -21 -5 -29 16 -10 28 6 3 7 17 4 30 -3 12 -1 26 4 29 6 4 8 -3 4 -16 -3
-14 -2 -19 6 -14 7 4 12 13 12 21 0 7 16 36 35 65 19 29 35 54 35 56 0 5 15
25 42 55 35 37 148 267 141 285 -4 11 -2 15 4 11 6 -4 14 0 17 9 3 8 2 12 -4
9 -6 -3 -7 1 -4 9 3 9 10 14 14 11 4 -3 11 2 14 11 3 8 2 12 -4 9 -16 -10 -11
7 13 50 48 83 46 102 -2 25 -17 -28 -35 -48 -41 -45 -5 3 -12 0 -16 -6 -4 -8
-3 -9 4 -5 18 11 15 0 -13 -44 -14 -22 -25 -44 -25 -50 0 -6 -4 -9 -9 -6 -5 3
-11 -1 -14 -8 -3 -8 -1 -17 6 -20 7 -2 5 -5 -5 -5 -10 -1 -21 -16 -29 -38 -16
-48 -73 -168 -104 -218 -27 -44 -55 -102 -55 -116 0 -5 -5 -9 -11 -9 -8 0 -10
19 -6 63 4 48 3 55 -4 32 -17 -51 -59 -254 -85 -400 -13 -77 -26 -146 -29
-152 -2 -7 0 -13 5 -13 5 0 12 16 16 35 10 55 37 46 123 -44 42 -43 91 -84
110 -91 25 -10 39 -25 54 -59 10 -25 29 -59 41 -76 13 -16 35 -67 51 -111 29
-82 29 -82 11 -122 -10 -22 -35 -57 -56 -77 l-38 -37 -21 21 c-27 27 -27 60 2
91 25 27 25 65 0 56 -8 -3 -21 -6 -29 -6 -10 0 -14 -15 -14 -60 0 -49 4 -65
24 -88 13 -15 34 -38 45 -52 13 -16 20 -20 21 -11 0 11 4 9 15 -5 14 -18 15
-17 6 8 l-10 27 34 -20 c20 -12 42 -18 54 -14 11 3 26 -1 37 -12 10 -10 25
-18 33 -18 9 -1 15 -5 14 -10 -1 -6 19 -9 46 -7 42 3 48 1 61 -22 12 -24 12
-28 -6 -41 -10 -8 -14 -15 -7 -15 6 0 10 -6 8 -12 -10 -41 -18 -56 -28 -52
-16 5 -29 -6 -47 -39 -8 -17 -25 -30 -42 -34 -16 -3 -28 -12 -28 -21 0 -8 -3
-12 -7 -8 -15 15 -34 -115 -42 -279 -5 -119 -4 -211 5 -305 15 -159 24 -203
59 -287 29 -73 29 -73 11 -73 -24 0 -36 -25 -30 -62 5 -30 13 -39 47 -54 23
-11 45 -20 49 -20 4 -1 12 -2 16 -3 5 0 14 -13 21 -28 l13 -27 19 24 c10 14
19 30 19 37 0 15 99 97 107 89 4 -3 -11 -22 -33 -42 l-39 -36 49 26 c34 19 52
23 56 15 5 -7 12 -4 22 10 8 11 18 18 21 14 4 -3 7 5 8 18 0 22 1 23 9 4 7
-17 9 -15 9 12 1 19 10 41 24 55 12 13 28 35 36 50 8 15 18 25 24 21 5 -3 6 3
2 16 -3 11 -2 21 2 21 5 0 19 17 31 39 24 43 49 67 59 57 3 -3 -1 -14 -10 -24
-10 -10 -17 -23 -17 -29 0 -5 -9 -18 -20 -28 -11 -10 -20 -23 -20 -29 0 -6 5
-4 10 4 8 12 10 11 10 -5 0 -12 -5 -26 -12 -33 -7 -7 -8 -12 -3 -12 4 0 -13
-16 -38 -36 -26 -20 -47 -41 -47 -46 0 -5 -4 -6 -10 -3 -5 3 -10 -1 -10 -9 0
-9 2 -16 5 -16 12 0 101 89 135 135 21 28 58 72 84 99 35 35 66 87 112 184 58
121 85 162 105 158 18 -3 143 210 135 231 -5 12 6 18 27 14 5 -1 6 2 3 7 -3 5
11 28 30 51 24 28 34 47 29 58 -3 10 -3 14 1 10 4 -4 18 3 31 15 19 17 23 18
23 6 0 -9 -6 -18 -12 -21 -7 -2 -10 -7 -7 -11 9 -10 100 87 94 102 -3 7 3 28
12 45 9 19 18 27 21 19 2 -7 -4 -22 -14 -33 -9 -10 -15 -22 -12 -25 6 -6 48
49 48 63 0 4 16 26 35 47 19 22 36 44 37 50 0 6 2 16 3 21 5 35 38 114 47 112
6 -1 14 10 19 26 4 16 4 25 -2 21 -13 -8 -11 10 3 24 15 15 21 52 8 52 -6 0
-10 4 -10 10 0 5 6 7 13 5 7 -3 13 4 13 20 1 15 -2 22 -8 19 -7 -5 -8 9 -2 42
5 27 9 90 10 139 0 50 4 128 8 175 4 47 9 96 9 110 1 14 7 30 14 35 9 7 14 75
19 220 4 116 4 208 1 205 -3 -3 -7 -31 -8 -63 -4 -86 -21 -53 -20 37 1 72 5
88 39 166 27 59 27 139 2 198 -12 28 -19 56 -15 62 4 6 -1 22 -10 37 -14 20
-14 27 -4 33 15 10 -18 57 -94 131 -28 27 -46 49 -41 49 16 -1 85 -58 110 -92
25 -33 54 -56 54 -41 0 4 -9 19 -20 33 -11 14 -20 30 -20 36 0 7 -19 31 -42
54 -24 24 -43 45 -43 49 0 32 -144 131 -190 131 -8 0 -15 5 -15 11 0 6 7 8 16
5 9 -3 28 -9 42 -12 l27 -7 -20 20 c-11 11 -23 19 -27 16 -5 -2 -8 3 -8 12 0
9 -4 14 -9 10 -5 -3 -13 0 -17 6 -4 8 3 9 26 4 38 -8 34 9 -4 19 -13 3 -43 24
-66 46 -28 27 -54 42 -81 46 -21 4 -36 10 -34 14 3 4 22 4 42 -1 62 -14 72 -9
18 9 -27 9 -57 21 -65 26 -8 6 -25 11 -38 12 -43 5 -36 13 17 20 31 4 49 10
43 16 -14 14 -191 30 -210 19 -14 -8 -12 -11 13 -16 17 -4 39 -10 50 -15 18
-8 17 -9 -7 -9 -39 -1 -37 -30 2 -38 28 -5 29 -7 13 -19 -17 -12 -16 -13 7
-14 19 0 22 -2 10 -10 -12 -7 -10 -11 10 -19 22 -8 19 -10 -25 -11 l-50 -2 55
-12 c52 -12 111 -33 100 -36 -3 0 -34 -4 -70 -7 -36 -3 -66 -7 -68 -8 -2 -2
20 -7 49 -12 50 -8 81 -32 42 -34 -10 0 19 -14 65 -30 45 -17 82 -35 82 -41 0
-5 -4 -6 -10 -3 -5 3 -10 0 -10 -9 0 -8 -6 -16 -12 -19 -10 -3 -10 -7 -1 -17
9 -10 9 -16 -2 -26 -20 -20 -73 -9 -96 20 -11 14 -27 26 -35 26 -8 0 -12 5 -9
10 4 6 16 8 28 5 17 -5 19 -4 7 4 -13 10 -13 11 0 11 9 1 5 6 -10 15 -14 8
-34 12 -45 9 -16 -4 -17 -3 -5 5 11 8 12 11 2 11 -7 0 -20 7 -28 15 -14 13
-13 15 5 15 12 0 21 -4 21 -10 0 -5 5 -10 11 -10 5 0 8 4 5 9 -4 5 -1 11 6 13
12 4 -29 23 -74 32 -15 3 -33 13 -42 21 -8 8 -19 15 -25 15 -6 0 -11 5 -11 10
0 6 10 10 23 10 17 0 19 2 8 9 -11 7 -7 10 15 13 l29 4 -34 10 c-38 11 -54 34
-24 35 10 0 -8 10 -39 22 -31 12 -71 36 -90 52 -18 17 -41 34 -51 38 -10 4
-16 11 -13 16 3 5 -16 15 -44 22 -31 8 -45 16 -38 21 18 10 -20 39 -47 35 -31
-3 -31 -35 -1 -43 14 -3 24 -10 21 -14 -3 -5 1 -10 7 -13 7 -2 10 -8 6 -12 -4
-4 -26 2 -48 13 -25 12 -36 22 -28 26 7 3 4 4 -7 1 -13 -3 -25 2 -33 16 -8 12
-9 18 -3 15 11 -7 61 13 61 26 0 14 -68 9 -83 -7 -8 -8 -17 -11 -21 -8 -3 4
-6 1 -6 -5 0 -9 -5 -9 -19 0 -15 9 -23 9 -36 -2 -12 -10 -18 -11 -28 -1 -9 10
-8 11 6 6 9 -4 17 -3 17 3 0 13 -29 24 -43 15 -7 -4 -5 2 3 12 8 10 10 16 4
12 -6 -3 -20 0 -30 8 -21 16 -37 19 -47 9z m175 -84 c9 0 25 -9 35 -19 17 -18
34 -30 112 -76 19 -11 41 -28 50 -37 8 -10 21 -18 28 -18 7 0 26 -14 43 -31
16 -18 30 -28 30 -24 0 4 9 -2 20 -15 11 -13 20 -29 20 -37 0 -7 5 -13 10 -13
6 0 10 -14 10 -31 0 -19 -4 -28 -11 -23 -6 3 -9 15 -6 25 4 15 0 19 -19 19
-13 0 -23 3 -23 8 5 28 -29 72 -55 72 -9 0 -19 6 -22 14 -3 8 -15 17 -27 20
-12 3 -35 17 -51 31 -16 14 -33 25 -38 25 -5 0 -19 11 -31 24 -12 13 -42 29
-66 36 -33 9 -41 14 -30 21 10 6 10 9 2 9 -7 0 -12 6 -10 13 1 6 -4 11 -11 9
-8 -1 -11 2 -7 9 5 8 10 8 18 0 6 -6 19 -11 29 -11z m571 -533 c21 -30 37 -58
37 -65 0 -6 6 -17 13 -24 6 -8 17 -22 22 -32 6 -10 33 -34 60 -54 45 -32 48
-33 25 -8 l-25 29 32 -17 c20 -10 34 -12 38 -6 3 6 0 10 -7 10 -10 0 -10 2 1
9 11 7 9 10 -8 16 -13 4 -20 9 -18 12 6 6 46 -15 65 -34 11 -11 11 -13 0 -13
-7 0 -1 -6 13 -14 27 -14 87 -74 144 -145 53 -66 25 -73 -39 -10 -27 27 -52
47 -54 44 -5 -5 35 -72 46 -77 21 -9 92 -134 119 -208 17 -47 34 -93 38 -102
8 -20 -59 -96 -137 -155 -27 -21 -58 -53 -69 -70 -18 -28 -19 -38 -9 -68 10
-29 16 -35 38 -34 21 1 23 2 7 6 -47 12 -36 23 23 23 52 0 62 3 63 18 0 10 3
12 6 5 7 -18 28 4 38 42 l8 30 13 -40 c16 -51 17 -129 3 -197 -13 -63 -58
-150 -72 -141 -6 4 -8 -3 -3 -18 20 -64 19 -117 -3 -152 -33 -54 -110 -69
-137 -26 -5 8 -3 10 7 4 11 -6 11 -5 3 4 -6 7 -39 14 -72 16 -88 6 -133 16
-139 30 -2 8 -12 16 -21 20 -15 5 27 -46 68 -83 10 -9 10 -11 1 -6 -9 5 -12 1
-7 -12 8 -27 -41 -72 -74 -67 -67 10 -216 45 -224 54 -6 6 -6 9 2 9 7 0 12 6
12 14 0 8 7 17 16 20 9 4 15 9 12 11 -3 3 -32 -8 -65 -24 -61 -31 -68 -42 -49
-83 11 -24 64 -55 122 -73 62 -19 63 -19 57 5 -4 14 -11 18 -27 15 -28 -7 -49
8 -44 31 4 23 43 30 65 12 9 -7 26 -11 39 -10 13 2 32 -2 44 -8 16 -9 25 -8
36 0 7 7 25 10 38 6 13 -3 40 1 60 9 44 18 46 19 46 1 0 -25 -62 -76 -92 -76
-15 0 -30 -5 -33 -10 -4 -7 -24 -8 -51 -4 -47 7 -58 -1 -21 -15 38 -15 102
-17 100 -3 -2 6 4 9 12 6 8 -4 15 -9 15 -13 0 -14 -64 -41 -96 -41 -71 0 -21
-37 60 -46 49 -5 60 -15 52 -48 -12 -48 -85 -112 -149 -131 -98 -28 -133 -25
-231 23 -48 24 -94 41 -102 38 -8 -3 -13 -2 -10 3 3 4 -6 13 -21 20 -14 6 -23
14 -20 17 3 3 -6 17 -19 31 -17 18 -22 33 -18 49 6 25 -10 34 -19 12 -3 -7 -3
2 0 20 3 20 1 32 -6 32 -6 0 -11 -4 -11 -10 0 -5 -5 -10 -11 -10 -6 0 -8 7 -5
16 8 22 -45 73 -84 81 -18 3 -34 13 -38 22 -3 9 -10 19 -16 23 -6 4 -12 12
-12 18 -1 5 -2 15 -3 21 0 6 -8 9 -16 5 -10 -4 -15 1 -16 17 0 12 -3 16 -6 9
-7 -18 -53 25 -53 49 0 10 -9 23 -20 29 -11 6 -17 16 -14 25 4 8 11 12 18 8 6
-4 5 1 -2 10 -8 9 -11 21 -7 27 3 5 -2 10 -12 10 -17 1 -17 2 1 15 14 11 16
15 5 15 -12 1 -11 3 1 13 39 30 66 179 40 226 -6 12 -4 35 5 69 7 30 9 54 4
58 -5 3 -9 0 -9 -7 0 -7 -3 -9 -6 -6 -9 9 16 38 27 32 4 -3 7 3 7 12 -1 10 11
45 25 78 27 59 40 71 120 112 15 8 27 19 27 24 0 5 7 9 15 9 8 0 23 17 34 39
14 27 41 52 95 86 42 26 76 51 76 54 0 4 14 15 30 25 76 44 120 120 115 197
-3 33 2 53 16 75 20 28 20 28 14 4 -5 -20 4 -14 44 29 42 45 51 51 51 33 l0
-22 25 22 c26 22 31 56 15 93 -8 18 -9 18 -9 2 -1 -10 -6 -15 -11 -12 -6 4
-10 21 -9 38 1 18 -2 47 -6 65 -4 17 -5 32 -3 32 3 0 21 -24 41 -53z m-743
-2305 c0 -22 -23 -126 -36 -162 -4 -11 -17 -2 -49 34 -36 40 -42 53 -34 68 6
11 8 24 6 31 -6 17 53 55 86 55 22 -1 27 -6 27 -26z"/>
<path d="M5347 7354 c-11 -11 3 -24 18 -17 8 3 15 0 15 -7 0 -8 -10 -9 -30 -5
-20 4 -43 1 -63 -8 -18 -8 -79 -25 -137 -37 -109 -23 -160 -39 -160 -52 0 -5
14 -8 31 -8 42 0 119 -20 119 -32 0 -5 5 -6 10 -3 6 3 10 2 10 -2 0 -11 112
-6 119 5 3 5 14 11 24 15 9 4 17 10 16 14 -3 21 3 32 21 38 11 3 19 12 17 18
-1 7 7 11 18 9 13 -1 30 8 44 24 21 25 22 26 4 40 -19 14 -65 19 -76 8z"/>
<path d="M10605 8803 c-16 -2 -43 -10 -60 -17 -105 -47 -179 -70 -245 -77 -41
-4 -93 -12 -114 -18 -22 -5 -44 -7 -49 -4 -4 2 -31 7 -59 10 -28 3 -73 11
-100 19 -26 8 -70 20 -97 28 -55 16 -95 11 -87 -11 3 -7 -1 -16 -9 -19 -25
-10 -17 -19 30 -38 39 -17 79 -56 80 -79 0 -14 29 -27 60 -27 49 0 148 29 171
51 16 15 32 19 65 17 39 -3 44 -6 53 -35 5 -19 16 -33 25 -34 9 -1 66 -1 126
0 121 0 186 19 222 64 10 12 37 36 60 52 24 17 43 37 42 45 0 20 -55 80 -71
79 -7 -1 -26 -4 -43 -6z"/>
<path d="M9539 8694 c-10 -12 -14 -54 -14 -153 0 -91 -5 -144 -14 -159 -18
-33 -29 -312 -12 -312 7 0 10 3 7 8 -5 9 5 61 33 164 24 93 33 235 20 337 -7
61 -6 77 6 91 8 9 15 22 15 28 0 17 -25 15 -41 -4z"/>
<path d="M16391 8681 c-11 -7 -11 -9 0 -13 8 -3 11 -8 8 -12 -4 -4 -18 -1 -33
5 -34 16 -44 5 -20 -22 l19 -22 -25 15 c-35 22 -80 31 -80 17 0 -8 -5 -8 -15
1 -9 7 -18 10 -22 6 -3 -3 -1 -6 6 -6 7 0 11 -6 8 -12 -2 -7 -12 -13 -23 -13
-10 0 -19 -5 -19 -12 0 -6 -3 -15 -7 -19 -5 -4 -8 -1 -8 6 0 15 -85 7 -106
-11 -7 -6 -17 -8 -22 -5 -14 9 -142 -36 -142 -49 0 -7 -16 -16 -35 -19 -40 -8
-44 -19 -14 -40 l21 -14 -22 -12 c-12 -6 -19 -18 -16 -25 3 -9 0 -12 -10 -8
-13 5 -11 10 7 29 12 13 18 24 12 24 -6 0 -16 -7 -23 -15 -14 -17 -45 -21 -35
-5 6 10 -12 9 -45 -2 -66 -22 -79 -25 -91 -17 -10 6 -9 12 6 29 10 11 29 26
41 33 159 87 194 118 120 107 -40 -6 -91 -32 -91 -48 0 -3 -4 -7 -10 -7 -23
-1 -91 -29 -110 -45 -11 -10 -30 -21 -42 -25 -13 -3 -23 -10 -23 -14 0 -5 -20
-16 -44 -25 -24 -9 -71 -42 -104 -74 -103 -97 -162 -248 -227 -574 -19 -98
-41 -204 -49 -235 -8 -32 -20 -89 -26 -128 -13 -74 -53 -226 -76 -285 -7 -19
-16 -56 -20 -82 -8 -57 -28 -120 -36 -112 -4 3 -4 -12 -1 -33 2 -21 0 -56 -4
-78 -6 -27 -5 -62 5 -110 14 -69 23 -85 122 -219 36 -49 49 -47 31 6 -20 57
-42 222 -36 268 3 25 19 99 35 165 40 169 43 185 32 185 -5 0 -12 -17 -15 -37
-4 -21 -13 -60 -21 -88 l-15 -50 5 85 c2 47 8 103 13 125 5 22 12 74 16 115 8
95 44 302 54 313 4 4 11 -112 14 -259 4 -196 9 -269 18 -275 10 -6 10 -11 0
-23 -8 -9 -10 -16 -5 -16 5 0 10 -128 12 -284 2 -273 3 -287 28 -368 14 -45
28 -96 31 -113 3 -16 22 -46 42 -65 20 -19 50 -51 68 -71 40 -48 82 -76 92
-61 4 7 12 8 21 2 8 -6 24 -9 35 -9 14 0 10 5 -15 16 -53 23 -92 54 -86 68 2
7 -1 16 -9 19 -23 8 -43 58 -48 116 -3 30 -13 95 -22 145 -14 73 -16 115 -9
225 4 74 7 147 6 163 -1 15 3 27 7 27 5 0 12 -50 16 -111 4 -61 11 -123 16
-138 6 -19 8 -8 5 37 -2 34 0 62 5 62 5 0 9 -5 9 -11 0 -28 96 -235 164 -352
44 -77 117 -156 144 -155 9 0 26 -3 37 -7 13 -4 9 3 -13 22 -43 37 -45 66 -3
43 13 -6 24 -5 37 5 16 12 17 14 3 15 -20 0 -52 16 -96 48 -55 39 -99 131 -55
115 9 -4 19 -9 22 -13 37 -44 174 -118 208 -112 6 2 12 -2 12 -8 0 -6 5 -8 10
-5 6 3 10 26 10 51 0 64 45 102 111 92 18 -2 28 4 39 27 21 43 106 71 153 52
18 -8 38 -21 46 -30 7 -10 18 -17 24 -17 6 0 -4 15 -22 34 -25 26 -31 38 -26
59 21 80 139 85 209 8 29 -32 46 -27 46 15 0 26 8 43 31 66 36 37 46 30 56
-37 4 -30 26 -87 54 -140 55 -104 119 -266 119 -300 0 -27 -16 -42 -23 -23 -4
12 -9 -62 -10 -167 -2 -99 28 -202 83 -288 18 -28 37 -47 48 -47 25 0 226
-214 311 -331 18 -26 28 -24 35 6 4 14 11 23 16 20 6 -3 10 -1 10 5 0 6 16 44
35 84 19 40 35 77 35 82 0 5 12 34 26 64 62 129 89 198 80 207 -3 3 -6 1 -6
-5 0 -7 -5 -12 -11 -12 -6 0 -19 -10 -30 -22 -16 -19 -14 -11 8 42 14 36 30
70 34 75 4 6 12 36 19 68 6 31 15 57 20 57 5 0 14 15 20 34 15 45 39 68 32 30
-3 -19 -1 -25 7 -20 19 12 12 -6 -39 -103 -28 -51 -50 -96 -50 -98 0 -15 23
17 61 82 23 41 46 75 51 75 4 0 8 5 8 11 0 6 20 47 45 92 25 44 53 103 62 130
9 27 22 51 28 54 10 3 12 28 10 91 -2 60 3 111 16 166 21 88 25 186 8 186 -16
0 -1 88 19 116 16 22 50 35 37 14 -3 -5 0 -7 9 -4 8 3 12 12 10 19 -3 7 -1 16
5 20 6 3 11 10 11 15 0 16 -29 -1 -65 -37 -34 -34 -62 -40 -35 -8 9 11 10 18
1 29 -6 7 -9 21 -5 30 3 9 1 22 -5 29 -8 10 -6 19 5 35 19 28 28 28 41 0 6
-14 12 -18 16 -11 4 6 0 18 -8 26 -8 9 -15 18 -15 22 0 7 -38 62 -63 92 -11
12 -16 26 -12 32 3 6 -1 11 -9 11 -9 0 -16 9 -16 20 0 12 -7 21 -17 22 -10 0
-24 2 -31 2 -8 1 -21 10 -29 21 -15 19 -15 19 -8 -5 l7 -25 -17 24 c-14 18
-15 25 -5 31 9 5 -10 41 -64 124 -43 65 -81 128 -86 141 -5 13 -15 27 -22 32
-7 4 -14 17 -16 28 -14 112 -16 120 -23 95 -6 -23 -7 -22 -8 8 -1 19 -5 31
-11 27 -5 -3 -10 -1 -10 4 0 6 4 11 10 11 9 0 6 16 -10 55 -5 11 -14 61 -20
110 -6 50 -15 106 -20 125 -5 19 -10 38 -10 42 -3 38 -108 240 -139 268 -13
12 -51 70 -51 79 0 8 -70 99 -113 146 l-18 20 6 -20 c4 -15 3 -14 -6 3 -8 14
-18 21 -27 17 -10 -3 -12 0 -8 10 3 10 -3 17 -19 21 -14 3 -25 9 -25 13 0 3
-21 17 -47 31 -27 14 -54 30 -61 37 -7 7 -19 14 -25 14 -7 1 -23 3 -37 4 -79
8 -225 27 -230 30 -3 2 -12 0 -19 -4z m-38 -212 c10 -8 24 -20 32 -27 13 -11
15 -11 15 0 0 8 -5 19 -11 25 -7 7 -7 13 -1 17 5 3 22 -12 37 -34 15 -22 32
-40 37 -40 6 0 8 -7 4 -15 -7 -19 3 -45 16 -45 6 0 5 7 -2 15 -7 9 -11 18 -8
20 3 3 18 -14 34 -37 36 -53 50 -68 63 -68 5 0 14 -15 21 -34 6 -19 20 -45 31
-57 12 -13 25 -31 29 -39 5 -8 12 -12 16 -8 4 4 1 15 -7 24 -17 21 -90 166
-85 171 2 2 18 -19 36 -47 18 -28 35 -48 38 -45 3 2 11 0 19 -7 31 -26 20 4
-32 80 -30 45 -50 82 -45 82 4 0 19 -17 31 -37 13 -21 26 -40 30 -43 7 -6 56
-101 89 -172 12 -27 26 -50 31 -54 5 -3 9 -10 9 -15 0 -6 -4 -7 -10 -4 -5 3
-10 -2 -11 -12 0 -10 -6 0 -13 23 -18 58 -40 104 -48 104 -4 0 -5 8 -1 18 3 9
2 14 -2 9 -5 -4 -17 0 -27 10 -24 21 -23 9 4 -38 16 -29 18 -41 10 -52 -8 -10
-6 -21 8 -45 23 -38 25 -52 7 -52 -7 0 -18 12 -24 28 -7 15 -18 36 -25 46 -94
142 -134 190 -151 183 -8 -3 -19 5 -27 16 -12 21 -12 21 5 7 30 -24 7 10 -25
36 -14 12 -38 34 -55 48 -49 43 -51 45 -79 42 -14 -2 -26 1 -26 5 0 5 9 9 20
9 26 0 25 8 -2 39 l-23 26 25 -21 c14 -11 33 -27 43 -35z m-446 -153 c82 -38
163 -100 209 -158 40 -51 134 -208 134 -222 0 -4 12 -23 28 -43 69 -90 157
-267 204 -408 22 -66 43 -124 47 -130 22 -28 45 -167 45 -270 0 -105 -1 -114
-29 -160 -16 -28 -37 -64 -45 -81 -30 -62 -121 -160 -195 -209 -22 -15 -52
-38 -66 -51 -25 -24 -61 -46 -160 -99 -31 -16 -71 -26 -120 -30 -67 -6 -77 -5
-108 17 -20 13 -49 50 -70 88 -19 36 -63 94 -97 130 -101 106 -144 165 -137
190 4 17 11 21 30 17 13 -2 26 0 29 4 3 5 25 -2 50 -16 25 -14 47 -25 49 -25
3 0 5 15 5 34 0 21 6 36 16 40 8 3 12 11 8 17 -4 8 1 9 17 5 21 -6 22 -6 6 5
-14 8 -22 8 -30 0 -16 -16 -38 -14 -59 6 -14 13 -21 14 -30 5 -16 -16 -28 -15
-28 2 0 7 -6 19 -14 25 -8 7 -17 30 -21 52 -7 38 -17 51 -42 55 -14 2 -43 -56
-48 -97 -2 -16 -7 -34 -10 -39 -17 -28 -63 10 -90 72 -18 44 -20 154 -4 208
11 35 14 37 50 37 47 0 65 14 71 52 3 21 1 28 -9 24 -9 -3 -13 4 -13 21 0 16
6 26 15 26 21 0 20 57 -1 100 -12 23 -32 39 -73 57 -49 22 -60 23 -95 13 -44
-13 -56 -5 -56 40 0 14 -8 72 -17 129 -14 86 -15 115 -5 172 26 152 97 266
196 316 28 14 58 32 66 39 59 54 75 60 150 63 41 1 77 4 79 7 12 12 117 -7
168 -30z m1143 -250 c0 -24 46 -126 57 -126 6 0 14 -8 17 -17 2 -10 2 0 0 22
-7 54 9 28 43 -68 33 -97 81 -397 64 -397 -6 0 -11 10 -13 23 -2 12 -7 20 -13
17 -5 -3 -9 -8 -7 -12 1 -5 -3 -8 -9 -8 -6 0 -9 7 -6 15 4 8 -1 37 -9 66 -9
28 -13 53 -10 56 3 3 -2 22 -10 42 -17 39 -45 128 -46 149 -1 6 -5 12 -9 12
-5 0 -6 6 -3 13 4 11 -23 91 -70 208 -5 10 -2 16 9 16 8 0 15 -5 15 -11z
m-1940 -877 c-6 -30 -13 -67 -14 -84 -1 -16 -7 -39 -13 -50 -11 -21 -28 -137
-39 -272 -4 -46 -10 -83 -14 -83 -15 0 -29 124 -20 175 13 74 10 98 -5 40 -20
-77 -18 -12 2 76 13 57 18 68 23 50 5 -22 7 -20 19 20 19 66 65 189 69 185 2
-2 -2 -28 -8 -57z m1729 -279 c1 -20 5 -40 10 -45 11 -12 49 -233 57 -330 3
-38 7 -76 10 -83 4 -14 -16 -105 -22 -99 -4 4 -9 39 -24 173 -15 135 -28 214
-45 269 -18 60 -18 68 -4 59 9 -5 10 17 6 82 -4 63 -3 77 3 49 5 -22 9 -56 9
-75z"/>
<path d="M15824 7775 c-101 -25 -136 -48 -139 -94 -2 -28 1 -32 18 -27 12 3
25 -1 32 -11 11 -14 18 -12 68 23 30 21 53 42 51 46 -17 27 102 73 189 73 31
0 57 4 57 8 0 15 -191 3 -276 -18z"/>
<path d="M15953 7723 c-45 -6 -41 -20 7 -28 48 -8 53 -25 8 -26 -20 -1 -25 -3
-13 -6 11 -2 30 -6 43 -9 13 -2 20 -9 17 -14 -3 -5 3 -14 12 -20 14 -8 1 -10
-54 -8 -39 1 -75 -1 -79 -4 -3 -4 -14 -4 -23 0 -28 13 -54 8 -57 -12 -1 -10
-9 -23 -16 -28 -10 -8 -10 -11 0 -15 6 -2 12 -13 12 -24 0 -11 9 -23 19 -27
11 -4 19 -11 18 -17 -1 -5 18 -10 43 -12 36 -1 40 0 20 7 -23 7 -24 8 -3 9 12
1 24 5 27 10 3 4 18 11 33 14 16 3 37 9 48 13 l20 7 -20 -17 c-14 -11 -15 -14
-4 -11 9 3 26 19 38 35 12 17 28 30 35 30 8 0 16 7 20 15 3 8 12 15 21 15 9 0
15 6 14 13 -1 6 1 20 6 30 13 30 -9 62 -53 75 -38 12 -74 13 -139 5z"/>
<path d="M16061 7158 c39 -25 73 -57 68 -63 -2 -2 -33 -10 -69 -19 -36 -8 -94
-29 -130 -46 -38 -18 -52 -29 -35 -25 17 3 50 10 75 16 25 5 52 10 60 11 8 0
21 5 27 10 18 15 63 1 63 -19 0 -13 7 -10 30 12 25 24 30 37 28 65 -3 29 -9
38 -39 52 -19 9 -53 19 -75 23 l-39 6 36 -23z"/>
<path d="M9784 8215 c-3 -14 -1 -62 5 -107 5 -46 13 -227 16 -403 5 -268 4
-332 -9 -395 -21 -99 -20 -118 9 -234 14 -55 24 -111 23 -125 -1 -15 2 -33 7
-41 6 -8 11 -24 12 -35 8 -56 12 -73 28 -110 9 -22 24 -82 31 -134 9 -57 23
-108 34 -126 68 -104 77 -144 54 -235 -6 -24 -6 -24 12 -8 15 15 18 34 19 105
0 49 -4 105 -9 126 -8 35 -7 37 18 37 26 0 38 19 14 22 -7 0 -17 2 -23 3 -5 2
-18 3 -27 4 -31 2 -50 48 -59 138 -6 60 -6 90 2 99 9 11 7 15 -5 20 -9 3 -16
15 -16 25 0 15 7 19 35 19 19 0 35 5 35 10 0 6 -15 10 -32 10 -38 0 -63 13
-54 28 3 5 40 13 81 17 106 10 97 28 -12 24 l-88 -4 -17 65 c-31 111 -50 259
-44 324 12 116 9 658 -4 723 -10 48 -10 69 0 97 10 31 9 41 -4 61 -20 31 -24
31 -32 0z"/>
<path d="M10712 7878 c-7 -7 -12 -21 -12 -32 0 -12 -8 -34 -18 -51 -14 -23
-16 -39 -10 -65 4 -19 21 -145 38 -280 17 -135 33 -251 35 -258 3 -7 11 -77
19 -155 8 -78 15 -149 16 -157 0 -8 3 -35 6 -60 2 -25 8 -67 13 -95 14 -73 13
-141 -3 -178 -13 -32 -32 -44 -128 -86 -56 -25 -74 -26 -82 -6 -8 21 -22 19
-47 -6 -18 -18 -19 -28 -13 -82 7 -66 6 -142 -2 -168 -5 -17 -80 -56 -90 -46
-5 4 -32 262 -34 313 0 6 -13 9 -30 6 -16 -2 -28 -8 -25 -12 3 -4 8 -79 11
-167 l6 -159 -28 -14 -29 -14 28 -4 c23 -3 28 -8 24 -23 -6 -23 4 -31 23 -19
9 5 19 5 26 -1 9 -7 22 -5 44 6 21 11 50 15 92 13 54 -3 63 -1 66 16 4 16 -1
18 -40 12 -107 -16 -138 -18 -138 -6 0 17 80 50 121 50 20 0 42 7 49 15 7 8
23 15 37 15 15 0 22 4 17 11 -3 6 -16 8 -29 5 -36 -9 -41 11 -32 121 l9 102
32 11 c17 6 51 17 76 24 25 7 52 16 61 20 18 8 26 -19 49 -152 15 -84 8 -100
-41 -108 -21 -4 -39 -11 -39 -16 0 -6 11 -7 27 -3 52 13 63 9 63 -20 0 -21 -8
-27 -69 -45 -37 -11 -76 -20 -86 -20 -10 0 -15 -3 -12 -6 4 -4 41 -1 83 5 58
10 79 10 88 1 19 -19 -23 -44 -108 -64 -104 -24 -89 -33 20 -11 55 11 89 14
96 7 25 -25 48 -201 30 -228 -9 -13 -164 -84 -184 -84 -8 0 -19 5 -25 11 -12
12 -53 -4 -53 -21 0 -13 -36 -31 -72 -37 -25 -4 -30 0 -43 31 -31 74 -66 235
-56 255 14 26 6 30 -33 17 -31 -9 -33 -12 -20 -31 7 -11 25 -66 39 -123 32
-121 29 -158 -15 -191 -31 -22 -31 -22 -100 -5 -71 17 -83 26 -54 42 13 7 14
13 5 30 -10 18 -15 20 -30 10 -15 -9 -28 -9 -59 0 -22 7 -53 12 -71 12 -40 0
-191 78 -191 99 0 9 16 49 36 89 27 54 34 80 30 100 -24 96 -28 136 -17 154 7
11 16 31 22 46 l9 27 -20 -24 c-11 -13 -20 -29 -20 -36 0 -7 -7 -18 -15 -25
-21 -18 -30 -96 -16 -152 12 -44 11 -51 -13 -102 -14 -30 -26 -61 -26 -70 0
-8 -8 -16 -17 -18 -14 -3 -10 -8 14 -21 31 -16 54 -60 39 -74 -7 -8 -122 25
-157 45 -17 9 -25 21 -22 32 2 9 -3 23 -13 31 -16 13 -17 12 -10 -13 8 -33 -6
-36 -58 -14 -49 20 -53 35 -20 62 25 20 27 25 14 34 -25 17 -45 7 -48 -24 -2
-18 -11 -30 -24 -34 -16 -4 -19 -11 -15 -32 3 -15 9 -63 12 -106 9 -109 12
-122 32 -120 14 1 18 -6 16 -33 -1 -18 -5 -36 -11 -40 -22 -15 -20 -501 4
-681 l7 -50 404 0 c393 0 406 -1 443 -21 76 -43 75 -33 78 -499 l3 -415 25 59
c14 35 44 81 74 112 27 29 50 62 50 74 0 34 38 130 66 167 14 19 30 50 35 69
9 31 13 34 50 34 50 0 58 18 70 149 30 337 79 477 163 469 30 -3 31 -2 44 57
7 33 10 84 7 112 -5 49 -4 53 19 59 18 4 26 16 35 52 7 26 23 68 36 94 14 26
22 55 18 64 -3 9 3 24 16 37 12 12 47 60 78 107 30 47 89 134 130 193 62 91
72 111 62 124 -7 8 -23 13 -35 10 -20 -3 -23 1 -28 42 -3 25 -5 71 -3 101 3
58 -10 99 -31 92 -6 -2 -12 -14 -12 -26 0 -30 -27 -66 -51 -66 -10 0 -19 -7
-19 -15 0 -13 3 -13 26 1 34 23 42 11 48 -68 5 -68 -6 -98 -37 -98 -7 0 -22
-3 -35 -6 -23 -7 -23 -6 -21 88 1 52 -1 100 -5 106 -4 7 -7 57 -8 113 0 107 5
120 54 145 27 14 29 13 37 -8 9 -22 9 -22 16 -3 4 11 11 30 16 43 23 58 -1 69
-47 21 -16 -17 -36 -35 -46 -40 -14 -8 -15 -3 -11 34 3 23 9 49 13 57 5 8 3
18 -5 25 -15 11 -35 136 -35 215 0 42 4 52 37 84 21 20 41 36 45 36 4 0 10
-16 14 -35 3 -19 11 -38 16 -41 16 -10 37 29 38 66 0 61 -1 73 -6 188 -6 111
-5 113 21 149 l28 35 -26 -16 c-32 -22 -45 -5 -23 29 20 30 20 35 1 35 -27 0
-16 27 25 64 46 42 55 70 10 32 -52 -43 -61 -29 -54 93 4 58 6 115 6 126 -1
10 4 25 10 32 7 9 7 13 -1 13 -7 0 -17 13 -22 29 -15 42 -36 29 -42 -27 -3
-25 -10 -48 -17 -50 -7 -3 -5 -8 5 -16 13 -9 16 -34 17 -140 2 -125 1 -129
-23 -147 -26 -20 -58 -33 -64 -27 -3 2 -5 63 -6 136 -1 146 -16 228 -42 226
-10 -1 -22 13 -31 36 -8 21 -20 41 -26 45 -7 4 -7 -2 -1 -17 5 -14 5 -31 0
-40 -6 -12 -4 -17 10 -21 21 -5 24 -29 37 -289 l6 -127 -41 -20 c-22 -12 -47
-21 -54 -21 -8 0 -40 -11 -72 -25 -31 -14 -97 -33 -146 -42 -104 -20 -124 -43
-26 -32 34 4 86 12 116 18 77 16 84 15 72 -8 -7 -12 -34 -25 -78 -35 -37 -10
-93 -23 -123 -31 -63 -16 -72 -13 -68 24 1 14 -3 40 -9 56 -14 36 -30 148 -38
265 -4 47 -12 121 -20 165 -7 44 -13 91 -14 105 0 14 -5 66 -10 115 -5 50 -6
93 -3 97 4 4 34 10 66 15 33 4 61 14 64 21 2 6 -3 12 -12 12 -9 0 -16 -5 -16
-11 0 -8 -4 -8 -13 -1 -7 6 -33 12 -57 14 -41 3 -45 6 -48 30 -4 30 2 33 93
43 72 8 91 15 74 26 -21 13 -163 11 -177 -3z m687 -915 c7 -18 8 -48 2 -86 -6
-47 -14 -64 -37 -83 -33 -29 -35 -27 -50 61 -14 79 -7 112 24 124 42 15 49 13
61 -16z m-153 -66 c1 -18 7 -57 12 -87 14 -74 7 -101 -32 -128 -40 -27 -52
-28 -66 -3 -16 31 -12 66 11 96 14 17 18 29 11 34 -6 3 -14 19 -17 34 -6 22
-1 33 29 63 40 40 50 38 52 -9z m-138 -326 c2 -13 -1 -28 -7 -34 -14 -14 -14
-30 -1 -22 17 10 10 -28 -11 -60 -11 -16 -25 -42 -31 -57 -7 -16 -18 -28 -25
-28 -7 0 -13 -6 -13 -13 0 -24 -93 -97 -124 -97 -10 0 -17 26 -26 101 l-12
101 53 50 c89 84 190 114 197 59z m142 25 c0 -5 27 -139 35 -174 5 -19 -1 -25
-29 -37 -20 -8 -54 -15 -76 -15 -23 0 -50 -5 -61 -11 -11 -5 -28 -8 -37 -6
-12 3 -6 9 21 21 42 18 49 33 66 121 6 33 18 65 26 71 8 6 15 16 15 23 0 6 9
11 20 11 11 0 20 -2 20 -4z m43 -251 c11 -27 -26 -57 -78 -62 -57 -6 -284 -70
-302 -85 -7 -6 -13 -7 -13 -2 0 11 150 88 210 108 25 8 70 24 100 35 66 25 76
25 83 6z m-17 -97 c-7 -24 -7 -243 -1 -356 3 -59 2 -64 -21 -73 -47 -17 -54
-13 -54 39 0 26 5 53 12 60 9 9 7 13 -6 18 -16 6 -17 16 -11 98 8 95 14 115
47 148 29 29 19 30 -43 7 -30 -11 -65 -25 -79 -30 -23 -8 -190 -39 -211 -39
-5 0 -9 4 -9 10 0 22 179 90 238 90 22 0 75 19 112 40 25 15 33 11 26 -12z
m-126 -138 c0 -49 -102 -175 -172 -212 -27 -15 -34 -16 -40 -4 -12 21 -39 158
-34 171 2 6 30 17 62 24 33 8 73 17 89 21 44 12 95 12 95 0z"/>
<path d="M12195 7868 c-38 -4 -80 -12 -93 -18 -31 -14 -112 -82 -112 -94 0
-21 54 -66 79 -66 14 0 45 -9 69 -20 23 -10 59 -20 80 -21 42 -1 148 18 174
32 10 5 27 9 38 9 11 0 20 5 20 10 0 6 -5 10 -11 10 -5 0 -7 5 -4 10 3 6 15
10 26 10 12 0 19 5 17 13 -6 17 -49 36 -97 42 -32 4 -41 2 -41 -10 0 -12 -12
-15 -57 -14 -44 1 -52 3 -33 9 14 4 35 8 48 9 13 1 30 8 39 17 11 10 30 14 62
13 35 -3 46 0 46 11 0 9 -12 16 -30 18 -16 2 -38 11 -47 19 -21 18 -75 22
-173 11z"/>
<path d="M11538 7846 c-42 -31 1 -64 87 -67 29 -1 30 -1 5 -9 -23 -7 -23 -8
-3 -9 31 -1 37 -18 10 -25 -40 -10 -60 -7 -53 9 3 10 -1 15 -14 15 -21 0 -40
-22 -23 -27 6 -2 9 -13 6 -23 -5 -17 0 -20 30 -20 20 0 42 -7 51 -15 18 -18
57 -19 142 -3 63 11 64 12 64 43 0 56 -59 98 -183 130 -70 18 -97 18 -119 1z"/>
<path d="M7361 7673 c-1 -88 -10 -213 -15 -222 -5 -8 -9 -176 -6 -318 1 -51
-1 -96 -4 -101 -7 -11 -21 -614 -19 -782 3 -201 13 -388 29 -545 13 -128 30
-232 33 -195 3 34 28 -41 30 -86 1 -27 5 -74 10 -104 5 -37 8 23 8 181 0 130
4 242 8 249 6 9 4 11 -4 6 -10 -6 -12 18 -10 105 2 63 -1 129 -5 148 -6 23 -5
31 2 27 13 -8 23 42 21 94 -1 19 0 51 2 70 2 19 6 -137 9 -348 4 -302 8 -384
18 -391 7 -4 15 -19 17 -32 2 -13 8 -55 14 -94 6 -38 15 -101 20 -140 6 -38
11 -76 11 -82 0 -7 5 -13 11 -13 10 0 7 109 -7 215 -3 28 -2 36 5 24 5 -8 12
-33 15 -55 6 -55 17 -79 27 -63 5 9 10 4 14 -17 12 -53 13 -50 15 36 1 65 3
79 11 61 5 -13 10 -36 11 -50 1 -14 8 -37 15 -51 13 -23 13 -22 8 20 -2 25
-12 81 -20 125 -9 44 -26 161 -40 260 -25 180 -39 259 -56 304 -5 12 -16 84
-24 160 -21 194 -31 264 -54 366 -10 50 -29 153 -40 230 -12 77 -24 156 -27
175 -8 41 -7 545 0 675 5 80 4 84 -4 35 -17 -91 -19 -81 -13 53 4 86 2 127 -5
127 -6 0 -11 -24 -11 -57z"/>
<path d="M10324 7068 c3 -13 6 -42 6 -66 0 -26 4 -41 10 -37 6 3 10 2 10 -4 0
-5 -6 -11 -12 -14 -10 -3 -10 -7 1 -20 8 -11 9 -17 2 -17 -17 0 -25 -48 -11
-65 11 -13 11 -20 0 -39 -9 -18 -9 -29 -1 -45 9 -16 9 -26 0 -42 -8 -15 -8
-24 0 -32 6 -6 11 -33 11 -59 0 -44 2 -48 23 -45 19 2 23 9 28 62 3 33 1 65
-4 72 -5 7 -6 26 -2 42 3 16 1 39 -5 50 -8 15 -7 26 2 40 9 15 8 24 -5 44 -12
18 -17 50 -18 111 -1 79 -3 86 -21 86 -16 0 -19 -5 -14 -22z"/>
<path d="M11886 6894 c-3 -9 4 -30 16 -47 13 -18 21 -39 20 -47 -3 -12 -1 -13
9 -2 7 6 20 12 29 12 13 0 13 -2 0 -11 -11 -8 -7 -9 19 -5 18 3 44 6 57 6 14
0 24 6 24 14 0 7 15 21 33 30 38 19 72 44 66 50 -2 2 -63 6 -135 10 -115 5
-133 4 -138 -10z"/>
<path d="M11589 6745 c-1 -49 -4 -103 -5 -120 -9 -134 -6 -481 4 -471 6 7 17
183 26 434 2 46 -2 120 -9 165 l-13 82 -3 -90z"/>
<path d="M7226 6748 c-3 -13 -6 -37 -6 -54 0 -16 -14 -91 -30 -165 -43 -192
-52 -222 -60 -208 -11 17 -33 -56 -25 -83 6 -19 5 -21 -6 -10 -11 10 -16 5
-31 -30 -22 -55 -23 -81 -3 -54 8 11 15 28 15 38 0 10 4 18 10 18 9 0 7 -14
-10 -55 -18 -45 -34 -145 -36 -225 -1 -50 -8 -100 -17 -120 -15 -34 -15 -35
-16 -7 -1 15 3 27 8 27 9 0 25 110 17 117 -5 5 -26 -65 -31 -102 -2 -11 -10
-49 -18 -85 -23 -101 -27 -130 -18 -130 5 0 12 27 16 60 7 63 25 92 25 41 0
-16 -5 -33 -11 -36 -6 -4 -9 -19 -8 -33 2 -15 0 -32 -4 -39 -4 -6 -4 -18 -1
-27 3 -9 2 -16 -4 -16 -6 0 -9 -8 -7 -17 2 -10 7 -36 10 -57 8 -51 24 -30 26
34 l2 45 7 -55 c6 -46 7 -35 10 65 l4 120 3 -92 c4 -112 19 -124 19 -15 0 196
28 493 34 367 1 -22 1 -44 0 -50 -1 -5 -4 -86 -7 -180 -4 -93 -6 -182 -7 -197
-1 -14 -4 -24 -8 -21 -17 10 5 -132 23 -152 5 -5 9 -25 9 -45 0 -19 9 -52 20
-73 22 -40 25 -51 12 -43 -5 3 -6 -8 -4 -25 2 -16 8 -29 12 -29 4 0 10 -22 14
-48 3 -27 9 -52 13 -56 9 -9 14 -33 15 -81 1 -30 3 -35 9 -20 5 14 8 16 9 5 2
-8 2 -19 1 -23 -2 -12 29 -40 36 -33 4 3 1 12 -5 18 -7 7 -12 26 -12 42 l1 31
13 -30 c10 -24 13 -26 19 -12 4 10 2 25 -3 35 -10 19 -26 83 -43 182 -7 36
-15 70 -19 76 -13 20 -21 501 -9 484 7 -9 11 -61 10 -135 -2 -138 10 -305 21
-305 8 0 23 -63 25 -105 3 -47 5 -56 13 -51 5 3 6 -8 4 -25 -5 -31 13 -41 21
-11 3 9 3 -13 0 -49 -4 -43 -1 -73 6 -85 12 -18 12 -17 8 4 -6 28 23 31 30 2
7 -27 21 -25 26 3 3 13 5 8 6 -15 2 -62 16 -43 16 21 0 33 -3 55 -6 49 -7 -10
-19 14 -19 38 0 12 4 11 19 -3 10 -10 21 -25 24 -33 4 -8 4 7 0 34 -4 38 -3
47 7 41 10 -6 12 -2 8 13 -4 12 -2 25 3 28 6 3 5 11 -2 20 -6 8 -12 39 -13 69
0 30 -3 55 -7 55 -13 0 -21 141 -9 155 12 15 5 55 -10 55 -9 0 -33 127 -26
139 3 5 -1 31 -9 59 -8 27 -13 66 -11 86 3 20 2 36 -3 36 -4 0 -8 17 -8 38 0
20 -4 84 -8 142 -5 58 -8 125 -7 150 1 25 -3 59 -8 75 -5 17 -12 107 -15 200
-3 94 -10 197 -16 230 -6 33 -11 75 -11 93 0 38 -3 41 -12 10z"/>
<path d="M3552 6602 c-6 -26 -13 -82 -16 -125 -3 -42 -12 -87 -20 -100 -7 -12
-19 -47 -26 -77 -6 -30 -16 -69 -21 -86 -5 -17 -9 -39 -10 -50 -1 -15 -3 -13
-8 6 -6 17 -10 -5 -16 -74 -7 -86 -5 -101 9 -111 20 -15 21 -26 1 -19 -11 4
-15 -1 -15 -17 -1 -24 -1 -23 -25 6 -26 31 -30 45 -40 139 l-7 60 -18 -25
c-12 -15 -15 -28 -9 -33 5 -6 9 -21 8 -35 0 -24 -1 -24 -9 -6 -6 14 -9 4 -9
-37 -2 -98 34 -236 71 -276 17 -17 22 -37 24 -94 3 -88 23 -206 35 -214 5 -3
9 -12 9 -20 0 -37 98 -217 133 -245 13 -11 16 -18 8 -23 -6 -4 -11 -2 -11 5 0
7 -3 10 -6 6 -3 -3 -20 8 -36 24 -17 16 -34 29 -38 29 -4 0 -10 15 -13 34 -8
47 -37 92 -49 74 -6 -8 -7 -4 -3 12 3 14 1 39 -4 55 l-9 30 -2 -35 c-1 -19 -6
-44 -11 -55 -6 -14 -7 -5 -4 30 3 34 2 42 -4 25 -7 -23 -8 -21 -17 20 -4 25
-8 52 -6 60 2 20 -35 202 -55 263 -8 26 -18 45 -23 42 -7 -4 1 -58 16 -109 4
-12 2 -16 -5 -12 -13 8 -15 -6 -3 -19 14 -16 34 -94 27 -105 -3 -6 -1 -10 5
-10 6 0 8 -5 5 -10 -4 -6 -15 -8 -26 -5 -25 8 -24 0 6 -59 19 -38 22 -52 13
-58 -12 -7 -4 -12 14 -9 4 0 5 -6 2 -13 -9 -24 47 -126 78 -142 16 -9 28 -10
28 -4 0 5 5 10 10 10 6 0 10 -7 10 -15 0 -9 16 -29 35 -46 30 -27 35 -37 35
-75 0 -24 -9 -67 -20 -96 -11 -28 -17 -54 -15 -57 3 -2 5 -2 5 1 0 3 16 2 35
-2 33 -7 35 -6 37 19 1 14 4 -1 8 -34 l7 -60 2 55 c1 30 5 49 8 43 7 -18 21
-16 26 5 3 9 6 1 7 -18 2 -33 3 -33 10 -10 7 22 8 20 10 -15 l3 -40 7 35 c6
30 8 27 10 -30 2 -39 5 -52 7 -32 2 18 9 30 14 27 5 -4 9 1 9 10 0 10 -5 13
-12 9 -8 -5 -9 -2 -4 12 31 75 47 132 44 156 -3 15 -1 28 2 28 4 0 17 34 29
75 13 41 26 77 30 80 5 2 11 28 15 57 8 60 27 166 63 352 48 243 22 384 -105
581 -89 138 -147 235 -170 288 -11 26 -26 47 -31 47 -6 0 -11 15 -11 34 0 53
-17 52 -28 -2z m-25 -999 c-4 -4 5 -19 19 -34 20 -21 27 -39 29 -73 1 -47 9
-60 77 -128 34 -34 36 -39 32 -90 -2 -29 -1 -47 3 -39 6 16 33 -40 32 -68 0
-12 -2 -12 -9 4 l-9 20 -1 -20 c-1 -11 -4 -14 -7 -7 -7 18 -23 15 -24 -5 0
-15 -2 -15 -9 2 -5 11 -9 14 -9 7 -1 -9 -12 -7 -41 8 -38 20 -56 38 -25 26 20
-7 20 -6 -15 71 -16 36 -29 78 -29 92 2 23 2 24 6 4 2 -13 9 -23 14 -23 5 0 9
-7 9 -15 0 -8 5 -15 10 -15 6 0 10 -7 10 -15 0 -14 57 -115 65 -115 2 0 -3 20
-13 45 -9 25 -20 45 -24 45 -4 0 -8 14 -8 32 0 17 -7 39 -16 49 -8 9 -16 26
-17 38 -1 11 -7 21 -15 21 -7 0 -12 6 -11 13 1 6 1 23 0 37 -1 18 -4 21 -10
11 -7 -11 -12 -9 -22 10 -16 28 -21 91 -6 82 5 -3 6 3 2 16 -4 14 -2 21 6 21
7 0 9 -3 6 -7z"/>
<path d="M1306 6228 c-3 -57 -10 -238 -16 -403 -6 -165 -15 -408 -20 -540 -15
-334 -30 -784 -30 -882 0 -76 2 -83 20 -83 12 0 21 8 24 23 6 27 37 1453 38
1760 1 119 -1 220 -4 223 -3 2 -8 -41 -12 -98z"/>
<path d="M15485 5960 c-22 -24 -32 -25 -37 -5 -3 14 -6 14 -27 -1 -22 -16 -23
-21 -16 -78 8 -73 12 -81 31 -61 9 8 19 13 24 10 4 -2 10 18 14 45 4 27 10 51
14 54 4 2 27 -25 50 -60 47 -69 75 -88 41 -26 -12 20 -26 42 -31 49 -5 7 -8
18 -6 24 2 7 15 -3 28 -22 13 -19 39 -52 57 -74 49 -58 53 -63 53 -73 0 -5 11
-19 25 -32 25 -23 32 -40 18 -40 -5 0 -23 14 -41 31 -54 51 -48 26 8 -31 28
-28 48 -56 44 -62 -4 -6 -2 -13 5 -17 12 -8 -18 -134 -37 -153 -12 -12 -5 29
8 47 4 6 10 30 14 55 6 44 5 43 -24 -25 -17 -38 -36 -74 -43 -80 -18 -14 -28
-43 -17 -50 6 -4 10 0 10 8 0 8 9 17 21 20 19 5 19 4 6 -11 -26 -29 -30 -59
-10 -71 14 -8 16 -12 6 -22 -11 -11 -13 -10 -13 0 0 11 -3 11 -15 1 -17 -14
-20 -50 -5 -50 6 0 10 -9 10 -20 0 -31 17 -24 30 13 l13 32 7 -25 c18 -64 23
-72 41 -67 16 4 17 2 8 -15 -10 -19 -9 -20 17 -14 28 7 28 7 10 -13 -25 -27
-13 -40 14 -16 11 10 23 16 26 12 3 -3 -6 -13 -20 -22 -23 -15 -26 -22 -20
-51 4 -24 1 -42 -10 -59 -21 -31 -63 -50 -81 -35 -8 7 -20 3 -39 -13 -55 -44
-86 -76 -86 -85 0 -15 38 -2 44 14 14 36 86 2 102 -48 4 -14 9 -16 25 -8 15 8
19 7 19 -3 0 -9 15 -17 40 -21 24 -4 45 -14 52 -26 7 -11 23 -20 35 -20 12 0
37 -9 55 -20 28 -17 30 -20 11 -20 -39 0 -53 -11 -53 -41 0 -31 26 -69 47 -69
7 0 13 -4 13 -10 0 -5 12 -21 28 -36 25 -24 25 -25 5 -19 -17 4 -28 -1 -45
-21 -13 -15 -33 -38 -46 -50 -20 -19 -22 -26 -12 -44 6 -11 9 -29 5 -39 -6
-20 35 -123 42 -105 2 6 -5 32 -16 57 -17 40 -18 48 -6 59 33 30 43 37 48 32
2 -3 16 18 30 45 17 34 27 46 31 36 3 -8 14 -15 24 -15 24 0 72 37 72 55 0 14
-28 29 -48 26 -10 -2 -9 5 4 23 16 25 15 27 -9 59 -20 27 -23 35 -11 43 8 5
14 31 15 67 2 31 6 57 10 57 4 0 15 7 23 16 23 22 20 82 -9 157 -13 36 -27 88
-31 117 -7 51 -6 52 15 45 20 -6 21 -5 10 13 -7 12 -16 19 -19 17 -8 -5 -36
18 -48 42 -13 23 -17 61 -5 50 3 -4 11 -3 17 2 18 13 56 20 56 9 0 -5 5 -6 10
-3 6 3 10 1 10 -4 0 -6 7 -11 16 -11 9 0 12 -5 8 -12 -4 -6 -3 -8 4 -4 6 3 18
-1 26 -10 9 -8 16 -12 16 -7 0 4 4 2 9 -6 7 -11 10 -9 16 8 6 21 7 22 21 4 7
-10 13 -22 14 -28 0 -5 -5 -3 -11 5 -9 12 -10 12 -5 -3 3 -10 6 -21 6 -23 0
-2 29 25 65 61 37 36 63 70 59 76 -4 8 -9 7 -15 -2 -6 -10 -9 -8 -9 9 0 13 -6
29 -12 37 -7 7 -24 27 -38 44 -14 17 -30 31 -36 31 -6 0 -48 35 -94 78 -45 42
-87 76 -91 74 -5 -1 -9 6 -9 15 0 9 -6 24 -14 32 -8 9 -42 69 -74 135 -41 79
-62 112 -65 99 -3 -13 -5 -12 -6 7 -2 46 -21 -1 -21 -54 0 -39 3 -47 15 -42 8
3 15 2 15 -3 0 -5 -9 -11 -20 -14 -17 -4 -20 0 -20 28 0 19 -4 37 -10 40 -5 3
-10 11 -10 16 0 6 5 7 11 4 6 -4 5 2 -3 14 -15 25 -28 27 -28 6 0 -8 -6 -24
-12 -35 -9 -15 -10 -23 -2 -28 6 -4 10 -17 9 -29 -1 -13 2 -23 7 -23 4 0 8 -7
8 -16 0 -31 -175 82 -255 165 -44 46 -55 49 -80 21z"/>
<path d="M6586 5689 c-8 -43 -8 -51 4 -44 6 3 10 0 10 -8 0 -8 9 -22 20 -32
11 -10 20 -26 20 -36 0 -10 4 -20 9 -24 6 -3 13 -26 17 -50 5 -40 24 -74 24
-46 0 6 5 11 11 11 8 0 7 -5 -1 -15 -11 -13 -9 -19 7 -38 10 -12 24 -34 31
-50 11 -25 9 -32 -19 -69 -26 -38 -28 -43 -13 -48 10 -4 21 -15 25 -26 5 -15
8 -12 14 18 4 20 13 39 21 42 8 3 14 11 14 18 0 9 -3 9 -11 -2 -8 -11 -9 -8
-4 15 4 17 9 40 10 52 2 12 10 32 19 45 l16 23 6 -23 c6 -21 7 -21 20 -5 13
17 13 17 14 -2 0 -17 2 -17 10 -5 8 13 11 11 16 -7 4 -13 13 -23 20 -23 8 0
14 -11 15 -27 l1 -28 8 25 c6 19 8 21 9 6 1 -11 3 -17 7 -14 10 11 -33 122
-51 132 -10 6 -36 29 -58 51 -22 22 -37 33 -32 25 4 -8 -3 -6 -16 6 -38 33
-57 36 -65 11 -5 -12 -7 -25 -6 -29 3 -13 -5 -9 -19 9 -12 14 -12 16 0 8 11
-6 13 -4 8 9 -4 11 -3 15 4 10 8 -4 7 0 0 15 -13 24 -23 28 -19 7 2 -8 -1 -15
-6 -16 -5 -1 -22 31 -37 71 -35 89 -44 100 -53 58z"/>
<path d="M14294 5585 c-10 -8 -27 -15 -38 -15 -17 0 -18 -6 -12 -57 4 -31 13
-61 20 -67 8 -6 25 -32 40 -59 25 -46 25 -47 6 -59 -11 -7 -20 -21 -20 -31 0
-11 4 -15 12 -11 8 5 9 2 5 -10 -9 -22 21 -83 44 -89 12 -3 17 -13 15 -30 -2
-16 3 -28 11 -32 9 -3 13 -12 9 -21 -3 -8 -2 -13 3 -10 12 8 22 -20 15 -39 -6
-15 19 -101 42 -145 32 -62 52 -119 63 -173 5 -31 31 -96 56 -143 47 -90 51
-127 15 -139 -10 -3 -17 -13 -16 -21 0 -9 -9 -20 -21 -25 -19 -7 -25 -4 -39
22 l-15 30 -34 -20 c-23 -13 -32 -15 -29 -6 4 10 -3 10 -30 -3 -20 -9 -36 -22
-36 -30 0 -7 4 -10 10 -7 5 3 7 0 4 -9 -3 -8 4 -35 15 -60 19 -45 21 -46 56
-40 30 4 40 1 57 -18 13 -15 22 -19 25 -11 2 7 12 9 20 6 13 -5 15 -2 8 13
-23 55 -20 61 34 69 59 8 87 -8 121 -68 18 -31 20 -41 9 -53 -10 -12 -10 -17
-1 -23 7 -4 18 -30 24 -59 9 -37 18 -52 31 -54 18 -3 18 -4 -3 -30 -19 -25
-19 -27 -3 -21 10 3 41 25 70 47 45 35 51 44 46 66 -13 55 -72 167 -102 195
-30 28 -32 33 -26 75 6 41 3 48 -24 74 -17 17 -31 36 -31 43 0 7 -4 13 -10 13
-5 0 -9 3 -9 8 4 26 -5 40 -36 55 -85 40 -118 230 -71 404 11 41 11 54 2 63
-18 15 -26 2 -16 -26 6 -14 6 -24 1 -24 -5 0 -13 15 -16 33 -4 17 -16 51 -26
74 -11 23 -19 46 -19 51 0 6 -9 39 -20 75 -32 102 -70 130 -70 52 0 -41 4 -48
30 -63 17 -10 30 -25 30 -37 0 -11 3 -30 6 -42 9 -34 -15 -29 -59 11 l-38 34
7 94 c4 51 10 100 15 109 5 10 2 24 -7 37 -8 12 -28 49 -45 82 -16 33 -31 60
-32 60 -2 0 -12 -7 -23 -15z"/>
<path d="M9110 5235 c0 -11 13 -64 35 -140 16 -57 28 -161 27 -252 0 -35 4
-63 9 -63 5 0 6 19 3 43 -4 23 -3 39 1 34 7 -6 12 -25 14 -64 1 -7 14 -13 30
-13 l28 0 -18 80 c-10 44 -28 106 -40 137 -12 32 -28 85 -36 117 -13 55 -52
143 -53 121z"/>
<path d="M11847 5110 c-13 -15 -16 -30 -12 -51 4 -18 3 -29 -5 -29 -26 0 0
-54 50 -105 51 -51 53 -56 36 -68 -11 -8 -17 -18 -14 -23 3 -5 2 -18 -3 -29
-7 -17 -8 -17 -8 8 -1 15 -4 28 -8 28 -40 7 -55 4 -68 -14 -14 -20 -12 -24 23
-60 l37 -38 22 25 c28 32 33 32 33 1 0 -14 7 -42 16 -63 17 -41 12 -93 -10
-111 -8 -7 -12 -21 -9 -31 6 -22 -12 -28 -20 -7 -3 6 -6 2 -6 -10 -1 -13 -5
-23 -10 -23 -5 0 -12 -18 -16 -40 -7 -39 -39 -75 -57 -64 -13 8 -10 -10 8 -45
11 -22 21 -30 32 -27 10 3 23 1 31 -3 12 -8 9 -15 -17 -37 -20 -18 -32 -38
-32 -53 0 -16 -15 -41 -42 -69 -29 -28 -39 -45 -31 -50 6 -4 13 -23 15 -42 l3
-34 28 42 c15 23 27 55 27 72 0 16 4 30 8 30 5 0 14 18 21 41 9 30 23 47 55
67 83 53 106 78 106 116 0 44 -11 51 -44 25 -31 -25 -31 -24 -6 26 11 22 20
45 20 52 0 18 29 31 78 35 l42 3 48 -105 c28 -61 55 -106 64 -108 17 -3 19 13
5 36 -5 6 -4 12 2 12 6 0 13 -11 17 -25 6 -24 15 -31 26 -19 8 7 -169 375
-214 445 -19 30 -44 79 -57 109 -13 30 -33 71 -44 90 -23 38 -67 86 -67 73 0
-13 -27 31 -31 50 -4 16 -5 16 -22 -3z"/>
<path d="M16402 4861 c-7 -19 -12 -46 -12 -60 0 -14 -5 -44 -11 -66 -10 -33
-13 -37 -19 -20 -6 18 -11 16 -47 -23 -23 -24 -44 -58 -48 -75 -6 -28 -8 -30
-14 -12 -7 18 -9 16 -15 -11 -4 -17 -4 -42 -1 -55 3 -13 -1 -43 -9 -66 -8 -23
-12 -51 -9 -63 5 -20 4 -21 -16 -11 -18 10 -29 8 -69 -14 -26 -15 -68 -29 -94
-32 -32 -4 -49 -11 -53 -23 -7 -21 8 -101 42 -223 22 -80 24 -100 13 -110 -9
-8 -11 -9 -6 0 3 6 -3 28 -14 49 -12 20 -20 47 -18 59 2 15 -8 31 -32 51 -19
16 -37 31 -40 35 -3 3 -16 9 -30 12 -14 4 -59 38 -99 76 -40 38 -87 75 -104
81 -18 6 -47 18 -65 26 -55 24 -195 16 -422 -25 -59 -10 -127 -47 -133 -71 -7
-28 11 -25 62 10 64 43 102 53 232 56 176 5 284 -26 373 -108 11 -10 27 -18
36 -18 19 0 47 -30 74 -80 11 -19 30 -48 44 -65 20 -25 23 -36 18 -73 -3 -25
-6 -62 -6 -83 0 -33 -5 -41 -30 -54 -16 -9 -30 -23 -30 -33 0 -9 -5 -24 -11
-32 -9 -13 -10 -12 -5 3 5 15 2 17 -17 11 -12 -4 -25 -11 -28 -16 -4 -6 -18
-11 -32 -11 -14 -1 -23 -5 -21 -9 6 -9 -6 -38 -15 -38 -4 0 -13 11 -19 25
l-11 25 -26 -26 c-14 -14 -25 -29 -25 -33 0 -5 -7 -11 -15 -15 -9 -3 -15 0
-15 10 0 8 5 12 10 9 6 -3 10 -1 10 4 0 6 -7 11 -15 11 -9 0 -15 9 -15 24 0
14 -4 28 -10 31 -6 4 -8 -10 -4 -37 7 -48 -17 -87 -48 -80 -10 2 -18 -2 -18
-8 0 -19 -63 -77 -68 -62 -6 20 -21 14 -36 -17 -9 -16 -24 -31 -36 -34 -12 -3
-20 -13 -20 -26 0 -11 -12 -28 -26 -37 -23 -16 -25 -21 -18 -58 11 -63 5 -366
-11 -506 -13 -114 -12 -126 2 -137 21 -16 76 -17 143 -2 45 10 54 9 71 -7 14
-12 41 -19 85 -22 l65 -4 -14 33 c-13 33 -13 33 22 51 49 25 58 23 80 -21 12
-22 30 -41 43 -45 24 -6 98 -8 98 -3 0 2 -9 30 -20 62 -25 74 -26 72 10 80 17
4 28 10 25 15 -3 5 0 12 6 16 7 4 9 3 6 -3 -4 -6 -1 -13 7 -16 16 -6 86 -128
86 -150 0 -18 21 -27 60 -27 l29 0 -48 103 c-26 56 -66 140 -89 187 -40 83
-60 176 -39 183 11 3 89 -140 101 -183 21 -73 94 -236 121 -267 l31 -36 179
-19 c241 -25 409 -27 454 -6 l34 16 -4 308 c-2 170 -4 408 -4 529 l0 220 25
-3 c93 -11 186 -118 320 -367 84 -157 186 -302 309 -440 30 -33 91 -109 136
-170 122 -163 108 -155 261 -160 138 -5 439 -23 489 -30 33 -4 159 -7 215 -5
l35 1 -35 17 c-283 132 -317 151 -360 199 -23 26 -53 72 -66 101 -27 59 -31
83 -8 37 46 -87 141 -178 236 -226 l43 -21 -25 24 c-14 14 -38 33 -54 43 -30
20 -86 90 -86 108 0 5 11 2 25 -7 33 -22 32 -9 -6 42 -35 48 -32 68 5 33 13
-12 27 -18 30 -13 5 9 -46 61 -106 109 -16 11 -28 24 -28 27 0 8 71 -38 125
-80 66 -51 73 -50 20 6 -27 29 -44 50 -37 46 21 -12 13 8 -9 22 -12 7 -19 16
-16 19 3 3 27 -10 52 -27 31 -21 50 -29 57 -22 6 6 0 17 -18 31 -33 26 -24 40
11 17 14 -9 30 -14 36 -11 5 4 9 3 8 -2 -3 -19 2 -27 10 -14 6 10 3 20 -12 33
-22 19 -22 19 21 13 29 -5 42 -3 42 5 0 7 8 9 19 5 39 -12 61 -14 61 -4 0 6
14 7 36 3 24 -4 39 -3 44 5 5 9 16 8 43 -5 21 -10 37 -21 37 -24 0 -16 70 -78
76 -68 4 6 -15 30 -42 53 -50 44 -54 68 -9 47 19 -9 27 -8 39 3 12 13 19 13
50 0 32 -14 35 -14 29 1 -5 14 -1 16 18 12 13 -3 32 -9 42 -13 14 -6 16 -4 10
10 -7 19 -9 19 57 -1 12 -4 20 -3 19 2 -4 21 3 22 40 9 35 -12 39 -12 34 1 -5
13 1 14 31 9 25 -5 36 -4 36 5 0 7 8 10 20 7 17 -4 20 0 20 33 0 38 -22 61
-36 38 -4 -6 -23 -8 -50 -4 -29 4 -44 2 -47 -7 -2 -8 -24 -12 -60 -11 -35 1
-54 -2 -51 -8 4 -7 -8 -8 -35 -3 -29 5 -41 3 -41 -5 0 -9 -11 -10 -35 -6 -23
5 -35 3 -35 -4 0 -8 -13 -10 -41 -5 -29 5 -40 4 -35 -4 10 -15 -27 -14 -43 2
-10 10 -15 9 -25 -5 -18 -24 -29 -23 -60 9 -32 32 -88 113 -78 113 3 0 32 -25
63 -56 35 -34 59 -52 63 -45 4 6 0 11 -8 11 -10 0 -13 6 -10 18 5 14 4 15 -5
2 -9 -13 -11 -12 -11 5 0 11 -9 31 -20 45 -31 40 -23 44 22 11 23 -17 43 -29
46 -27 2 2 -4 18 -13 35 -18 36 -15 38 22 14 42 -28 58 -26 38 3 -19 29 -12
30 23 6 29 -20 62 -34 62 -27 0 2 -15 21 -32 42 l-33 37 38 -22 c45 -26 79
-29 71 -7 -5 13 -2 14 18 6 14 -5 31 -6 38 -1 9 6 1 16 -30 36 -63 42 -30 41
40 -1 70 -42 99 -42 52 0 -18 15 -30 30 -28 32 2 3 30 -9 62 -26 61 -32 78
-33 51 -3 -29 31 -19 33 33 7 63 -32 75 -32 53 1 l-17 26 42 -21 42 -21 0 67
c0 47 -3 63 -10 53 -8 -12 -13 -13 -30 -2 -24 15 -47 16 -52 1 -2 -7 -12 -7
-31 2 -24 11 -30 10 -37 -1 -8 -13 -13 -12 -38 2 -31 19 -44 15 -35 -9 5 -13
2 -13 -15 -4 -11 6 -33 15 -47 21 -24 9 -26 8 -20 -11 7 -20 6 -20 -24 -5 -39
21 -44 20 -36 -4 9 -27 -7 -25 -39 5 -15 14 -31 25 -37 25 -5 0 -9 5 -9 10 0
6 -23 38 -51 72 -53 64 -58 81 -15 52 35 -22 41 -14 15 19 -22 29 -19 33 13
16 25 -14 33 -6 18 20 -12 24 -5 26 37 11 27 -10 27 -9 -7 19 -19 16 -31 33
-26 38 4 4 15 -2 23 -13 9 -14 21 -20 33 -17 18 5 17 8 -8 47 -15 22 -33 47
-39 54 -7 7 -13 19 -13 25 1 12 14 -2 72 -72 16 -18 34 -31 42 -29 11 2 5 18
-24 60 -25 37 -35 60 -28 64 6 4 19 -4 29 -17 42 -55 52 -66 65 -66 19 0 -17
62 -37 62 -8 1 -13 7 -11 14 1 7 -2 10 -8 6 -11 -7 -56 82 -47 92 3 2 16 -14
29 -36 13 -22 27 -41 31 -41 20 0 15 32 -13 94 -35 80 -36 85 -10 61 11 -10
20 -22 20 -27 0 -17 50 -83 51 -68 3 33 -4 54 -32 98 -35 55 -37 73 -6 44 38
-35 50 -27 27 18 -27 52 -25 68 4 41 30 -28 42 -12 21 28 -21 42 -19 58 5 36
19 -17 20 -17 26 0 4 10 -1 30 -11 47 -17 29 -17 30 1 26 10 -2 25 -16 32 -31
14 -28 26 -34 37 -17 3 5 -3 15 -15 22 -24 15 -28 53 -4 44 12 -4 14 -1 9 14
-6 18 -4 19 20 10 22 -8 27 -7 34 12 5 14 10 17 15 10 10 -16 49 -15 43 1 -2
8 -24 12 -60 12 -31 0 -56 2 -55 5 3 10 -23 50 -32 50 -5 0 -16 -15 -24 -34
-8 -19 -26 -52 -40 -72 -14 -21 -23 -41 -20 -46 3 -4 1 -8 -5 -8 -5 0 -25 -30
-44 -67 -19 -38 -100 -196 -179 -353 -89 -175 -159 -300 -182 -324 -20 -22
-36 -43 -36 -48 0 -4 -4 -8 -9 -8 -5 0 -13 -9 -16 -20 -4 -11 -10 -18 -15 -15
-4 3 -13 -2 -20 -10 -7 -8 -18 -15 -25 -15 -6 0 -32 -20 -56 -45 -28 -29 -59
-49 -84 -56 -22 -6 -64 -18 -93 -26 -81 -23 -192 -14 -267 22 -83 40 -85 41
-40 9 57 -40 157 -74 223 -75 56 -1 56 -1 17 -9 -62 -12 -129 0 -201 36 -36
18 -60 26 -53 18 7 -8 49 -33 93 -55 45 -22 68 -38 51 -34 -51 10 -164 74
-205 115 -22 22 -44 40 -50 40 -5 0 -10 6 -10 13 0 8 -12 24 -26 38 -15 14
-23 31 -21 41 3 10 1 15 -4 12 -5 -3 -17 9 -27 26 -9 17 -32 47 -50 67 -18 19
-29 39 -26 45 4 6 3 9 -2 6 -13 -8 -54 9 -54 22 0 8 6 8 20 0 15 -8 18 -7 15
2 -5 13 -87 61 -109 64 -19 3 -87 46 -82 52 3 3 25 -8 48 -23 24 -16 37 -21
29 -11 -8 9 -45 35 -83 57 -37 22 -68 44 -68 49 0 14 7 12 38 -7 l27 -17 -21
21 c-11 11 -30 23 -41 27 -11 3 -31 18 -44 32 l-24 25 28 -10 c40 -16 32 1
-11 22 -20 9 -46 29 -57 44 l-19 27 30 -21 c30 -21 47 -27 74 -24 19 2 -79 43
-102 43 -10 -1 -18 6 -18 14 0 8 -4 14 -9 14 -5 0 -40 39 -77 88 -50 65 -57
78 -29 52 53 -50 28 -7 -37 62 -29 31 -73 83 -98 115 -25 31 -64 78 -87 104
-44 47 -88 132 -78 148 3 5 0 13 -6 17 -7 4 -9 3 -5 -4 3 -6 1 -14 -5 -18 -9
-5 -11 5 -7 37 3 24 4 38 1 31 -3 -6 -9 -10 -14 -6 -5 3 -9 -4 -9 -15 0 -35
-20 -23 -21 12 0 24 -2 27 -8 14 -6 -17 -8 -17 -20 -3 -7 8 -10 20 -6 26 3 5
-1 10 -9 10 -9 0 -16 9 -16 20 0 11 -4 20 -9 20 -5 0 -14 14 -21 30 -7 17 -25
38 -40 46 -15 9 -31 28 -36 43 l-10 26 -12 -34z"/>
<path d="M12610 4755 c0 -10 48 -102 110 -210 84 -146 150 -272 151 -288 1 -6
23 -32 50 -56 42 -38 49 -41 49 -23 0 11 -15 40 -32 64 -56 74 -88 124 -88
136 0 27 -71 162 -82 156 -7 -5 -8 -2 -3 5 4 8 -2 33 -13 60 -11 25 -26 60
-33 77 -7 18 -18 30 -24 28 -6 -3 -17 7 -23 21 -7 14 -17 23 -22 20 -6 -3 -10
-1 -10 4 0 6 -7 11 -15 11 -8 0 -15 -2 -15 -5z"/>
<path d="M15320 4744 c-115 -28 -129 -31 -137 -24 -4 4 -41 5 -80 2 -60 -3
-73 -7 -73 -21 0 -22 -131 -57 -142 -38 -25 41 -28 43 -38 27 -6 -8 -13 -26
-17 -40 -3 -14 -11 -28 -17 -32 -7 -5 -8 -10 -1 -17 10 -10 83 8 135 35 14 7
42 15 63 19 21 4 41 14 44 21 7 19 67 32 133 29 30 -1 75 4 100 11 25 8 54 14
66 14 11 0 29 7 40 15 19 14 19 14 -1 13 -11 0 -45 -7 -75 -14z"/>
<path d="M885 4570 c-3 -5 -28 -6 -55 -3 l-50 6 0 -44 c0 -39 -4 -47 -29 -62
-15 -9 -32 -13 -36 -9 -4 4 -5 -2 -3 -13 2 -11 8 -18 13 -15 6 3 9 9 7 13 -1
5 3 7 10 5 20 -7 23 -48 4 -48 -20 0 -21 -16 -3 -27 18 -11 28 -51 13 -57 -6
-2 -4 -5 5 -5 19 -1 33 25 19 34 -16 10 -12 55 4 55 10 0 16 -14 18 -42 3 -41
4 -43 37 -45 21 -1 29 2 22 7 -9 5 -10 10 -2 14 6 4 11 16 11 26 0 10 7 25 15
34 17 16 23 106 10 145 -8 26 3 27 21 4 11 -15 13 -15 14 -3 0 19 -37 43 -45
30z"/>
<path d="M13067 4564 c3 -9 1 -19 -6 -23 -16 -11 7 -74 25 -67 8 3 11 0 8 -9
-3 -7 5 -37 19 -67 13 -29 32 -73 43 -98 31 -75 56 -111 82 -121 32 -12 38 -5
20 23 -9 13 -19 39 -23 58 -4 19 -14 42 -22 50 -18 19 -77 111 -86 134 -4 9
-11 15 -16 12 -5 -4 -7 10 -4 32 4 27 0 43 -11 54 -9 9 -16 21 -16 27 0 6 -4
11 -10 11 -5 0 -7 -7 -3 -16z"/>
<path d="M12875 4530 c3 -6 -1 -7 -9 -4 -10 4 -16 1 -16 -9 0 -24 29 -99 43
-111 25 -20 87 -103 87 -115 0 -6 7 -23 16 -36 16 -25 44 -24 44 1 0 20 -91
188 -123 226 -15 18 -27 39 -27 46 0 6 -5 12 -11 12 -5 0 -7 -4 -4 -10z"/>
<path d="M13245 4443 c4 -10 16 -40 26 -68 10 -27 32 -69 49 -93 16 -23 30
-46 30 -51 0 -4 11 -25 25 -45 14 -21 22 -42 19 -48 -9 -15 46 -127 65 -131 9
-1 31 1 48 7 29 8 32 12 26 35 -13 56 -70 146 -92 146 -8 0 -17 -9 -22 -20 -6
-15 -8 -11 -9 20 -2 22 -2 43 -1 47 0 4 -6 5 -14 2 -8 -4 -15 -1 -15 5 0 6 3
11 8 11 4 0 15 7 25 15 18 13 18 15 -1 57 -25 58 -82 136 -82 114 0 -15 -2
-15 -26 0 -22 15 -27 15 -35 3 -6 -10 -9 -10 -9 -1 0 6 -5 12 -11 12 -7 0 -8
-7 -4 -17z"/>
<path d="M12385 4321 c-6 -5 -19 -11 -30 -13 -16 -3 -19 -10 -16 -55 1 -28 -2
-54 -8 -58 -6 -3 -11 -13 -11 -20 0 -28 35 -56 116 -94 45 -21 86 -46 91 -56
7 -12 12 -14 17 -6 10 16 -3 51 -19 51 -8 0 -18 15 -23 33 -8 29 -6 34 20 49
27 17 31 17 81 -1 28 -11 44 -14 34 -8 -10 7 -34 27 -54 45 -20 17 -58 40 -86
50 -36 12 -56 27 -75 55 -28 42 -25 40 -37 28z"/>
<path d="M5940 4304 c-19 -9 -43 -20 -52 -25 -10 -5 -27 -9 -38 -9 -10 0 -24
-9 -30 -20 -6 -11 -17 -20 -24 -20 -12 0 -27 -27 -30 -56 -1 -6 -7 -19 -15
-28 -7 -9 -9 -16 -3 -16 5 0 8 -9 5 -21 -4 -15 0 -22 16 -26 16 -4 20 -11 16
-24 -4 -13 -1 -19 9 -19 9 0 16 -6 16 -13 0 -9 30 -12 123 -12 67 0 125 4 128
8 11 16 10 149 -2 203 -15 67 -28 69 -91 9 -41 -40 -47 -49 -41 -75 5 -25 3
-29 -10 -24 -10 4 -26 -5 -42 -22 -21 -22 -30 -26 -43 -18 -34 22 -26 53 25
102 67 66 117 108 134 115 12 5 12 6 -1 6 -8 0 -31 -7 -50 -15z"/>
<path d="M10944 4299 c-3 -6 -13 -8 -21 -5 -28 11 -104 -16 -121 -43 -9 -14
-19 -28 -22 -31 -4 -3 -6 -15 -6 -27 0 -24 -5 -26 91 33 74 44 128 65 155 59
85 -19 231 -74 273 -102 27 -18 52 -32 54 -30 5 6 -73 68 -117 94 -51 30 -274
70 -286 52z"/>
<path d="M13580 4228 c0 -6 7 -20 17 -30 9 -10 11 -18 5 -18 -7 0 4 -28 22
-62 30 -55 38 -63 61 -61 73 5 74 122 2 124 -30 1 -31 1 -7 9 l25 7 -27 8
c-16 4 -28 12 -28 17 0 5 -6 8 -12 5 -7 -2 -23 0 -35 4 -16 6 -23 5 -23 -3z"/>
<path d="M6169 4133 c-1 -10 -1 -21 0 -25 0 -5 -6 -8 -15 -8 -14 0 -14 -3 -4
-15 9 -11 9 -15 1 -15 -7 0 -9 -5 -5 -11 5 -8 -5 -10 -31 -7 -32 4 -35 2 -20
-9 10 -7 22 -10 26 -7 5 3 17 0 26 -6 15 -9 10 -10 -24 -8 -33 3 -39 1 -31
-10 6 -7 19 -10 29 -7 10 4 27 1 36 -5 14 -9 6 -10 -39 -6 -44 3 -56 2 -52 -9
5 -13 -69 -35 -118 -35 -15 0 -19 -5 -15 -20 3 -11 1 -20 -4 -20 -5 0 -9 7 -9
15 0 8 -9 19 -21 25 -23 13 -44 1 -54 -31 -4 -10 -15 -19 -26 -19 -10 0 -19
-7 -19 -15 0 -8 8 -15 18 -15 27 0 32 -9 19 -31 -6 -10 -23 -19 -36 -19 -17 0
-21 -3 -14 -12 6 -7 13 -23 16 -35 4 -19 1 -23 -20 -23 -13 0 -22 3 -19 8 2 4
-14 6 -36 4 -26 -3 -44 0 -50 9 -8 11 -9 10 -4 -3 3 -11 0 -18 -8 -18 -9 0
-13 -11 -12 -32 2 -28 6 -33 25 -30 12 1 30 -2 39 -8 13 -7 9 -9 -20 -10 -21
0 -38 -3 -38 -7 0 -5 24 -8 53 -8 l53 0 -7 38 c-6 35 -5 37 15 31 29 -9 31
-11 16 -29 -10 -12 -9 -16 4 -21 21 -8 21 -34 0 -34 -12 0 -15 -6 -10 -25 5
-20 3 -25 -13 -25 -11 0 -23 5 -26 10 -3 6 -19 10 -36 10 -16 0 -29 4 -29 9 0
5 18 7 40 4 26 -4 40 -2 40 5 0 8 -25 11 -70 11 -60 -1 -69 -3 -59 -15 6 -8
19 -14 29 -14 24 0 32 -11 18 -28 -7 -8 -13 -22 -13 -31 0 -9 -7 -16 -15 -16
-8 0 -21 -4 -29 -9 -19 -12 7 -27 36 -19 16 3 23 1 23 -10 0 -8 10 -18 23 -22
20 -7 20 -8 3 -12 -11 -3 -23 2 -28 11 -5 9 -16 16 -23 16 -17 0 -20 -16 -5
-25 17 -11 11 -25 -11 -25 -19 0 -20 -4 -14 -37 4 -21 9 -47 10 -58 2 -23 35
-34 35 -11 0 8 -7 19 -16 24 -14 8 -15 15 -6 38 l10 29 7 -33 c6 -24 17 -38
39 -49 25 -11 31 -21 30 -41 -1 -15 3 -33 9 -40 15 -19 -6 -37 -22 -18 -14 17
-41 11 -41 -10 0 -14 12 -18 38 -15 7 1 20 -5 29 -14 8 -9 22 -14 30 -11 8 4
13 1 11 -5 -4 -13 -63 -20 -170 -20 -109 0 -116 -24 -9 -27 32 -1 72 -22 42
-22 -7 0 -9 -5 -4 -12 4 -7 6 -22 4 -32 -2 -14 2 -17 13 -13 10 4 16 1 16 -8
0 -8 6 -15 13 -15 8 0 7 -4 -3 -10 -8 -5 -10 -10 -4 -10 5 0 15 5 22 12 8 8
15 8 27 -2 13 -11 14 -10 9 5 -5 13 -4 16 4 11 14 -8 32 32 32 69 0 12 7 26
16 29 10 4 13 13 9 26 -4 11 -2 20 4 20 6 0 11 6 11 13 0 7 9 20 20 30 21 18
28 43 8 31 -7 -4 -8 -3 -4 5 4 6 12 8 18 5 7 -5 9 -1 5 9 -4 11 -2 14 9 10 8
-3 14 1 14 10 0 8 7 20 15 27 9 7 13 15 10 18 -2 3 2 10 10 16 21 17 106 176
99 187 -3 5 0 8 8 7 8 -2 12 5 11 17 -1 11 0 14 3 7 4 -9 21 1 53 30 26 24 56
48 66 54 11 6 16 15 11 23 -6 9 -13 7 -27 -8 -22 -23 -38 -29 -20 -7 9 11 8
15 -4 20 -8 3 -20 17 -25 31 -8 20 -5 32 15 61 13 19 27 44 30 55 7 20 23 22
65 9 23 -7 23 -8 -10 -10 l-35 -2 40 -13 c35 -12 33 -21 -4 -16 -7 2 -10 -2
-6 -8 3 -6 16 -12 28 -12 17 -1 18 -2 5 -6 -26 -6 -22 -23 5 -23 16 0 18 -3 8
-9 -7 -5 -10 -14 -7 -20 4 -6 12 -9 17 -6 5 3 6 -1 3 -9 -3 -9 -13 -16 -21
-16 -8 0 -11 -5 -8 -10 4 -6 2 -16 -3 -23 -17 -22 -21 -57 -6 -57 13 0 18 11
15 36 -1 6 6 11 14 11 8 0 15 -7 16 -16 0 -10 2 -12 6 -3 8 20 23 14 33 -13 5
-14 17 -25 25 -25 12 0 15 -6 10 -20 -5 -16 -2 -20 19 -20 14 0 26 -4 26 -8 0
-4 -44 -14 -97 -21 -67 -9 -101 -18 -110 -29 -15 -20 -17 -52 -3 -52 6 0 10 4
10 10 0 5 7 7 15 4 8 -4 15 -15 15 -26 0 -10 4 -16 10 -13 29 18 50 11 83 -24
21 -23 32 -43 28 -50 -8 -13 -24 1 -32 27 -3 8 -9 4 -18 -9 -11 -19 -11 -21 4
-16 10 5 14 3 9 -4 -6 -11 -8 -20 -13 -66 0 -7 -7 -13 -15 -13 -8 0 -17 -7
-20 -16 -5 -14 -4 -15 9 -4 12 10 15 10 15 -1 0 -9 3 -10 8 -4 4 6 17 11 29
13 17 2 21 -1 17 -12 -3 -9 -12 -16 -20 -16 -8 0 -14 -8 -14 -17 0 -9 -3 -13
-7 -10 -3 4 -12 2 -20 -4 -9 -8 -13 -8 -13 0 0 6 -9 3 -20 -6 -11 -10 -20 -22
-20 -27 0 -5 9 -1 20 9 15 14 20 15 20 4 1 -12 3 -11 13 1 7 8 21 17 32 18 16
3 18 1 8 -9 -7 -7 -13 -20 -13 -28 0 -13 1 -13 13 0 6 8 21 22 31 29 18 14 19
14 8 -6 -6 -12 -18 -24 -27 -28 -8 -3 -15 -13 -16 -23 0 -14 -2 -13 -9 5 -5
12 -14 22 -20 22 -5 0 -10 -10 -10 -22 0 -19 2 -20 10 -8 14 21 13 -5 -1 -31
-11 -22 -3 -63 12 -54 5 4 9 14 9 23 0 15 -2 15 -10 2 -9 -13 -10 -13 -10 1 0
8 12 26 27 38 22 20 25 21 18 5 -4 -11 -9 -28 -12 -39 -3 -16 -1 -15 11 5 16
26 22 11 7 -18 -13 -27 -23 -74 -13 -68 4 2 44 7 87 10 47 4 82 11 87 18 5 8
8 9 8 2 0 -15 46 -9 67 8 12 9 15 9 9 1 -9 -16 39 -17 134 -3 36 5 115 12 175
16 61 3 111 7 112 8 3 2 -34 451 -43 524 -3 29 -11 55 -16 58 -5 3 -6 23 -3
45 7 40 -1 48 -25 27 -7 -7 -4 0 8 16 12 16 22 34 22 40 0 19 -49 -47 -61 -82
-6 -18 -13 -31 -16 -29 -7 7 37 105 53 118 8 6 14 18 14 27 0 22 -33 -24 -58
-80 -11 -27 -23 -48 -26 -48 -10 0 27 84 56 129 16 24 27 45 24 48 -8 8 -52
-61 -70 -109 -10 -27 -22 -48 -27 -48 -6 0 -6 8 1 19 15 28 12 35 -6 20 -15
-12 -16 -11 -9 11 7 23 7 24 -10 10 -17 -14 -18 -13 -12 3 20 49 20 51 -2 27
l-22 -25 16 39 c8 22 13 41 11 43 -2 3 -7 -5 -11 -16 -4 -13 -14 -21 -28 -20
-12 0 -16 3 -9 6 7 3 27 33 44 66 17 34 51 88 75 119 25 31 43 62 41 69 -6 19
-66 -63 -108 -149 -21 -44 -45 -82 -54 -85 -23 -9 55 125 134 231 38 50 24 56
-22 9 -18 -18 -48 -39 -65 -46 -18 -7 -33 -20 -33 -28 0 -8 4 -12 9 -9 5 4 7
-3 4 -14 -3 -11 -10 -23 -16 -27 -7 -4 -8 0 -3 13 6 15 1 13 -21 -8 -17 -16
-65 -39 -123 -58 -52 -18 -104 -40 -116 -51 -26 -24 -53 -27 -34 -4 11 13 10
14 -4 9 -18 -7 -21 7 -5 23 8 8 -11 10 -68 8 -43 -2 -62 -1 -43 1 133 16 128
27 -12 25 -56 -1 -99 1 -96 5 4 4 45 7 90 8 46 0 83 5 83 10 0 5 -21 8 -47 7
-27 -1 -48 2 -48 7 0 5 19 7 43 5 33 -4 46 -1 57 13 13 16 13 17 -2 11 -31
-11 -179 -10 -191 2 -13 13 2 14 23 1 9 -5 19 -5 27 1 7 6 35 8 66 5 38 -4 58
-2 65 6 8 10 -6 13 -64 13 -41 0 -74 -3 -74 -6 0 -3 -13 -4 -30 -1 -60 9 -28
18 66 20 53 0 99 3 102 6 6 7 -61 9 -151 7 -40 -2 -57 1 -52 8 3 6 18 10 33 9
15 -1 61 0 102 2 l75 3 -65 6 c-36 3 -69 3 -73 0 -11 -8 -56 1 -64 14 -4 7 6
8 28 4 l34 -6 -40 19 c-26 12 -33 19 -21 19 20 1 20 1 0 16 -19 14 -19 14 1
15 17 0 17 2 5 10 -22 14 -30 12 -31 -7z"/>
<path d="M12613 4030 c-35 -16 -63 -31 -63 -34 0 -3 24 -58 54 -123 45 -97 58
-118 76 -118 16 0 26 -13 44 -58 13 -31 31 -68 39 -81 13 -19 53 -36 88 -36
10 0 -78 202 -93 211 -7 5 -2 22 16 54 14 26 26 48 26 49 0 1 -17 2 -37 3 -62
3 -133 10 -137 14 -9 10 -17 49 -9 48 27 -5 35 2 29 26 -5 21 -2 25 21 31 16
3 33 7 38 8 6 2 26 -10 46 -25 20 -16 41 -29 47 -29 18 0 0 40 -30 65 -39 33
-78 32 -155 -5z"/>
<path d="M13970 4043 c-8 -3 -25 -9 -37 -14 -20 -8 -21 -10 -8 -53 15 -48 62
-136 73 -135 35 3 46 18 44 56 -2 26 2 44 12 52 21 18 20 31 -8 62 -25 29 -53
40 -76 32z"/>
<path d="M5104 3993 c-17 -27 -33 -55 -36 -64 -10 -26 -75 -124 -92 -138 -22
-19 -20 -9 4 19 11 13 18 25 16 27 -3 3 -52 -15 -65 -24 -2 -1 3 -13 12 -27
15 -22 15 -25 1 -37 -19 -15 -54 -19 -54 -6 0 5 -10 3 -23 -6 -12 -8 -40 -17
-62 -20 -22 -2 -66 -12 -98 -21 -63 -18 -158 -18 -164 0 -5 14 73 60 141 83
32 11 52 25 57 39 8 20 6 22 -21 17 -16 -3 -40 -9 -53 -14 -14 -6 -28 -7 -31
-4 -3 4 -6 2 -6 -3 0 -5 -9 -10 -20 -11 -13 -1 -18 2 -13 10 4 7 -1 5 -11 -3
-10 -8 -25 -15 -33 -16 -21 -3 -30 -16 -16 -21 9 -3 9 -11 1 -31 -5 -15 -16
-56 -24 -91 -7 -35 -16 -72 -19 -82 -6 -16 -2 -18 27 -13 65 10 213 13 228 4
22 -14 -4 -52 -64 -94 -52 -36 -136 -114 -136 -126 0 -4 21 4 48 17 26 13 58
23 72 21 23 -3 25 -6 22 -49 l-4 -46 49 7 c65 10 96 23 139 62 20 18 42 37 50
41 8 4 14 17 14 28 0 11 5 17 10 14 6 -4 10 8 11 27 l1 33 8 -30 c7 -28 8 -27
10 15 1 33 3 40 9 25 6 -14 10 -2 15 43 4 34 11 62 16 62 6 0 11 24 11 53 2
52 2 52 9 12 6 -37 7 -34 11 30 3 39 1 75 -4 82 -4 6 -3 13 4 15 6 2 11 21 11
42 0 27 3 34 9 25 6 -10 9 -4 9 19 0 23 4 31 12 26 6 -4 8 -3 5 3 -3 5 7 35
23 66 36 69 26 75 -16 10z"/>
<path d="M12190 3963 c0 -5 34 -42 76 -83 82 -80 95 -102 94 -164 0 -23 3 -66
6 -96 5 -47 2 -63 -19 -103 -14 -26 -22 -47 -18 -47 32 0 83 30 124 72 l48 50
-61 122 c-55 113 -64 126 -112 159 -29 19 -72 49 -95 67 -24 17 -43 28 -43 23z"/>
<path d="M11757 3622 c45 -21 53 -45 55 -152 2 -91 -14 -170 -34 -170 -4 0 -8
-7 -8 -15 0 -8 -5 -15 -12 -15 -6 0 -9 -3 -5 -6 11 -11 46 7 40 22 -3 8 1 14
11 14 26 0 18 -19 -16 -41 -28 -18 -29 -20 -8 -14 14 4 53 11 86 15 34 5 89
22 123 37 l62 28 -7 55 c-7 52 -13 68 -63 152 -35 58 -103 95 -186 101 -68 5
-69 4 -38 -11z"/>
<path d="M10765 3500 c-4 -6 -10 -8 -15 -5 -5 3 -16 -2 -25 -11 -13 -14 -14
-19 -3 -26 10 -7 10 -11 -5 -22 -13 -10 -15 -21 -11 -45 7 -31 24 -43 24 -16
0 12 3 12 18 -2 11 -10 16 -22 14 -28 -3 -5 -7 -4 -10 3 -5 17 -32 -12 -31
-35 0 -10 3 -13 6 -5 2 6 11 12 18 12 15 0 29 -31 18 -39 -4 -3 -8 -15 -8 -26
0 -15 -7 -20 -28 -21 -15 -1 -30 3 -33 7 -3 5 -14 9 -25 9 -29 0 -23 -28 10
-48 29 -18 168 -58 176 -51 3 3 -20 150 -50 327 -6 31 -27 43 -40 22z"/>
<path d="M3011 3485 c-1 -11 -6 -27 -11 -35 -8 -11 -9 -7 -5 15 l6 30 -15 -30
c-14 -30 -14 -30 -16 -5 -2 25 -2 25 -15 -5 -8 -16 -14 -23 -15 -15 0 12 -2
12 -9 2 -4 -8 -12 -13 -17 -12 -4 1 -11 -7 -15 -17 -7 -17 -8 -16 -8 2 -1 12
-4 16 -9 9 -4 -6 -16 -10 -27 -8 -11 2 -23 -2 -27 -9 -6 -9 -8 -9 -8 1 0 10
-5 10 -20 2 -11 -6 -20 -18 -20 -28 0 -15 2 -15 10 -2 8 12 10 12 10 -5 0 -17
2 -17 10 -5 9 13 10 13 10 0 1 -9 6 -6 16 10 l15 25 -5 -25 c-5 -24 -4 -24 9
-6 15 20 15 20 15 0 0 -16 2 -17 10 -4 9 13 10 13 10 0 0 -12 2 -13 9 -1 7 11
9 11 14 0 4 -12 7 -11 16 1 9 13 11 12 12 -5 l0 -20 9 20 9 20 0 -20 c1 -12 4
-16 9 -9 4 6 18 10 32 10 23 0 25 -4 23 -35 l-3 -36 15 35 14 35 -4 -40 -5
-40 15 35 15 35 -5 -40 c-4 -31 -3 -37 5 -25 9 12 10 6 6 -25 l-5 -40 14 35
15 35 -5 -40 -4 -40 14 30 15 30 -5 -45 c-4 -34 -3 -39 4 -20 9 25 9 25 10 -5
1 -24 3 -27 12 -15 7 11 8 6 3 -20 -11 -57 -24 -81 -19 -35 l5 40 -14 -35
c-13 -32 -15 -33 -16 -10 -1 18 -8 7 -21 -34 -23 -72 -19 -100 4 -36 10 25 15
34 12 20 -3 -14 -8 -36 -10 -50 -3 -14 4 -5 15 20 14 30 19 36 15 18 -3 -16
-7 -40 -10 -55 l-6 -28 15 30 15 30 -5 -35 -4 -35 12 32 c18 45 29 52 18 12
-14 -50 -11 -69 5 -34 l15 30 -5 -35 -5 -35 14 30 15 30 -5 -35 -5 -35 15 30
15 30 -4 -40 c-4 -30 -3 -35 4 -20 9 19 10 18 11 -5 1 -23 3 -22 15 10 l14 35
-5 -40 c-3 -22 -8 -48 -11 -57 -2 -10 -2 -18 1 -18 3 0 11 20 17 45 6 25 14
44 16 41 2 -2 0 -21 -6 -42 -8 -29 -8 -40 2 -46 18 -12 25 -10 30 10 4 14 5
13 6 -3 1 -16 9 -21 34 -23 82 -5 99 -17 77 -52 -9 -13 -10 -13 -10 0 0 13 -1
13 -10 0 -9 -13 -10 -13 -10 0 -1 9 -6 5 -15 -10 l-15 -25 6 30 c5 29 5 29
-10 11 -12 -15 -16 -16 -16 -5 0 8 -3 10 -8 4 -4 -5 -16 -10 -27 -10 -11 1
-23 -4 -27 -10 -5 -6 -8 -5 -8 4 0 11 -3 11 -15 1 -12 -10 -15 -10 -15 1 0 11
-2 11 -10 -1 -8 -13 -10 -12 -10 4 0 20 0 20 -15 0 -9 -12 -14 -14 -15 -6 0 7
-4 10 -10 7 -5 -3 -10 -1 -10 6 0 7 -7 4 -15 -7 -11 -14 -14 -15 -15 -4 0 13
-1 13 -10 0 -5 -8 -10 -10 -10 -4 0 6 -11 10 -25 9 -14 -2 -25 2 -25 8 0 6 -7
2 -15 -9 -8 -10 -15 -14 -15 -8 0 7 -97 11 -300 12 -291 1 -300 1 -300 -18 0
-24 -17 -22 165 -25 83 -2 164 -6 180 -10 17 -3 59 -8 95 -10 61 -3 89 -7 128
-19 75 -23 147 -23 376 0 92 9 168 22 180 29 12 8 38 15 59 17 21 1 40 5 43 9
3 6 -66 81 -97 104 -8 6 -36 29 -63 53 -27 23 -74 57 -104 74 -85 49 -168 136
-179 189 -4 23 -8 27 -15 17 -7 -9 -8 -6 -5 11 4 14 -1 30 -11 41 -9 10 -26
36 -37 57 -11 21 -22 40 -25 43 -3 3 -18 31 -35 62 -16 31 -33 54 -37 52 -4
-3 -8 3 -9 13 0 16 -1 16 -8 -2 -8 -19 -9 -18 -13 5 -4 19 -6 20 -7 5z"/>
<path d="M14975 3390 c-4 -11 -54 -69 -111 -127 -57 -58 -104 -109 -104 -113
0 -4 20 -5 45 -2 30 3 45 1 45 -7 0 -6 7 -11 16 -11 9 0 14 7 13 18 -4 26 10
75 28 95 9 9 29 17 44 17 35 0 47 21 51 90 3 55 -14 80 -27 40z"/>
<path d="M5055 3269 c-38 -4 -101 -13 -140 -20 -38 -6 -81 -13 -95 -14 -14 -1
-42 -9 -62 -18 -21 -9 -38 -14 -38 -11 0 3 -7 -2 -16 -10 -8 -9 -21 -16 -29
-16 -18 0 -27 -28 -15 -48 5 -10 10 -12 10 -4 0 6 9 12 20 12 23 0 95 34 104
49 9 13 89 29 181 35 44 3 98 8 120 11 142 21 175 28 175 36 0 11 -117 10
-215 -2z"/>
<path d="M12601 3070 c-40 -30 -181 -166 -181 -176 0 -3 14 -3 31 1 17 4 45 7
62 7 26 0 48 15 111 73 71 65 78 75 66 90 -29 35 -46 36 -89 5z"/>
<path d="M14489 2926 c-9 -9 7 -196 17 -206 13 -13 44 -2 44 16 0 21 38 17 50
-6 13 -24 33 -26 50 -5 7 8 16 13 20 10 5 -3 15 -2 24 1 12 5 9 11 -17 28 -18
13 -33 32 -35 46 -2 14 -8 29 -13 35 -5 5 -9 20 -9 33 0 17 -9 27 -35 38 -32
13 -87 19 -96 10z"/>
<path d="M19190 2880 c0 -5 -11 -10 -24 -10 -13 0 -26 -7 -30 -15 -3 -8 -14
-15 -25 -15 -11 0 -24 -6 -28 -14 -4 -8 -17 -16 -28 -18 -11 -2 -19 -9 -18
-15 1 -6 -11 -13 -27 -17 -18 -3 -30 -12 -30 -21 0 -8 -9 -15 -20 -15 -11 0
-23 -7 -26 -15 -4 -8 -14 -15 -25 -15 -10 0 -22 -6 -26 -13 -4 -8 -16 -17 -26
-20 -25 -9 -12 -27 19 -27 38 0 112 -65 124 -109 16 -59 20 -61 113 -68 l87
-6 0 157 c0 86 -4 156 -9 156 -5 0 -14 -7 -21 -15 -7 -8 -23 -15 -35 -15 -13
0 -26 -7 -29 -16 -4 -10 -15 -14 -31 -12 -15 2 -29 -4 -37 -15 -9 -11 -20 -16
-31 -11 -26 9 -20 24 9 24 18 0 28 6 31 21 5 17 11 20 34 15 24 -5 29 -2 29
14 0 15 7 20 25 20 16 0 25 6 25 15 0 8 9 15 20 15 16 0 20 7 20 35 0 19 -2
35 -5 35 -3 0 -5 -4 -5 -10z"/>
<path d="M5970 2861 c-25 -9 -25 -9 5 -11 24 -2 25 -4 8 -7 -13 -2 -20 -10
-17 -17 3 -8 -9 -17 -33 -24 -21 -6 -64 -18 -96 -27 -48 -14 -56 -19 -46 -31
6 -8 19 -14 28 -14 9 0 31 -9 49 -20 35 -22 97 -25 235 -14 75 7 76 7 83 38 4
20 2 32 -6 34 -15 5 -37 26 -67 65 -17 22 -32 29 -70 32 -26 2 -59 0 -73 -4z"/>
<path d="M6295 2801 c-3 -11 -15 -21 -27 -23 -21 -3 -21 -4 5 -28 19 -18 23
-28 15 -37 -8 -10 -2 -13 28 -13 69 0 334 24 334 30 0 4 -68 25 -150 49 l-151
42 -19 -23 -19 -23 6 23 c7 27 -13 30 -22 3z"/>
<path d="M4918 2805 c-2 -1 -48 -6 -103 -9 -55 -4 -111 -10 -124 -13 -25 -6
-25 -6 -3 -14 27 -10 28 -19 3 -46 -28 -30 -145 -50 -194 -34 -21 7 -37 16
-37 20 0 4 -11 7 -25 7 -30 0 -41 -28 -32 -80 5 -30 2 -35 -29 -49 -78 -38
-25 -45 197 -27 68 5 207 17 309 25 102 8 188 15 191 15 3 0 16 8 27 19 18 14
22 28 20 67 l-1 49 -7 -50 c-6 -46 -7 -44 -10 35 -3 75 -4 80 -10 40 l-7 -45
-1 48 -2 48 -80 -2 c-43 -1 -81 -3 -82 -4z"/>
<path d="M8405 2740 c-341 -3 -613 -6 -605 -8 108 -18 323 -21 865 -12 336 5
749 12 919 15 170 3 311 7 314 10 6 5 -459 4 -1493 -5z"/>
<path d="M2625 2710 c-11 -4 -29 -18 -40 -31 -102 -121 -165 -197 -165 -203 0
-3 15 -6 34 -6 25 0 49 12 95 48 157 122 158 123 193 118 74 -9 107 -19 121
-34 33 -38 60 -188 36 -203 -8 -5 -54 -9 -102 -9 -83 0 -88 -1 -82 -20 3 -10
-1 -33 -9 -49 -9 -17 -16 -32 -16 -36 0 -3 53 -5 118 -5 101 0 122 3 151 21
33 20 34 21 28 75 -5 52 -39 154 -75 223 -23 46 -59 71 -112 78 -24 3 -51 14
-62 25 -19 19 -76 24 -113 8z"/>
<path d="M6690 2631 c0 -21 -26 -31 -79 -31 -28 0 -31 2 -22 14 18 22 3 24
-89 15 -47 -4 -95 -8 -107 -8 -16 -1 -23 -7 -23 -20 0 -14 -9 -21 -27 -25 -16
-2 44 -3 132 0 190 5 435 29 449 45 8 8 -2 9 -39 5 -174 -20 -164 -20 -158 3
4 16 1 21 -16 21 -14 0 -21 -6 -21 -19z"/>
<path d="M13815 2590 c-22 -5 -139 -21 -260 -35 -121 -15 -227 -29 -235 -33
-26 -10 80 -20 215 -21 209 -1 416 15 461 35 34 15 36 18 16 21 -12 3 -20 9
-17 14 4 5 -8 9 -24 9 -17 0 -31 5 -31 10 0 12 -67 11 -125 0z"/>
<path d="M5240 2485 c-74 -7 -348 -30 -607 -51 -260 -21 -473 -42 -473 -46 0
-11 65 -10 191 2 57 5 190 16 294 25 540 44 767 65 783 74 22 13 -9 13 -188
-4z"/>
<path d="M10070 2165 c-27 -14 -254 -47 -523 -75 -92 -9 -171 -20 -175 -24 -3
-4 170 -6 387 -4 375 3 393 4 407 22 19 26 18 31 -8 60 -29 31 -56 37 -88 21z"/>
<path d="M15880 2138 c36 -5 98 -18 138 -30 40 -11 100 -22 133 -25 66 -6 190
15 166 28 -21 12 -320 39 -417 38 l-85 -2 65 -9z"/>
<path d="M2110 2079 c-177 -44 -419 -67 -725 -68 -176 -1 -224 -5 -242 -17
-79 -51 50 -71 363 -54 323 17 737 65 793 93 45 22 37 37 -18 37 -37 0 -53 4
-57 15 -7 18 -19 18 -114 -6z"/>
</g>
</svg>
