<?xml version="1.0" standalone="no"?>
<!DOCTYPE svg PUBLIC "-//W3C//DTD SVG 20010904//EN"
 "http://www.w3.org/TR/2001/REC-SVG-20010904/DTD/svg10.dtd">
<svg version="1.0" xmlns="http://www.w3.org/2000/svg"
 width="1200.000000pt" height="1062.000000pt" viewBox="0 0 1200.000000 1062.000000"
 preserveAspectRatio="xMidYMid meet">
<metadata>
Created by potrace 1.15, written by Peter Selinger 2001-2017
</metadata>
<g transform="translate(0.000000,1062.000000) scale(0.100000,-0.100000)"
fill="#000000" stroke="none">
<path d="M3563 10581 c-111 -27 -229 -89 -299 -157 -89 -85 -225 -208 -235
-212 -22 -9 -4 -47 52 -106 71 -76 82 -114 53 -178 -15 -35 -138 -141 -759
-657 -407 -339 -761 -633 -786 -654 -104 -84 -183 -89 -315 -22 -48 25 -93 45
-100 45 -22 0 -422 -399 -464 -463 -36 -55 -40 -67 -34 -102 16 -104 70 -168
304 -357 80 -64 192 -156 250 -204 58 -47 128 -104 155 -126 28 -22 75 -62
105 -89 30 -27 172 -143 315 -259 143 -116 361 -293 484 -393 123 -100 265
-216 315 -257 538 -439 809 -663 850 -705 27 -27 55 -50 64 -51 16 -3 48 -29
112 -94 25 -25 68 -64 95 -86 28 -23 95 -79 151 -125 55 -46 119 -100 143
-119 63 -51 257 -214 321 -269 30 -26 93 -79 140 -116 47 -38 96 -79 110 -91
14 -13 101 -85 194 -161 479 -391 581 -476 595 -496 24 -37 84 -97 97 -97 7 0
14 -3 16 -7 3 -8 58 -57 124 -110 40 -33 170 -139 214 -177 14 -11 46 -37 70
-56 64 -49 62 -48 93 -75 15 -14 60 -51 100 -82 40 -32 77 -62 83 -68 7 -5 27
-22 45 -37 148 -117 206 -164 215 -173 6 -5 30 -26 54 -45 59 -47 118 -95 160
-130 69 -56 186 -152 220 -180 82 -66 125 -103 130 -109 3 -4 28 -25 55 -46
28 -22 52 -43 55 -46 3 -4 37 -33 75 -65 39 -33 86 -73 105 -90 87 -78 326
-282 359 -306 20 -15 50 -34 66 -42 17 -9 43 -27 58 -41 15 -14 27 -23 27 -21
0 3 12 1 26 -5 15 -5 29 -8 31 -6 6 6 -139 129 -472 402 -238 195 -290 242
-292 264 -1 14 1 18 3 8 3 -9 130 -120 282 -245 416 -342 530 -432 551 -432
10 0 24 7 31 15 7 8 21 15 31 15 31 0 0 -39 -36 -45 -42 -8 -199 19 -266 44
-93 35 -159 84 -591 439 -1031 845 -1324 1085 -1478 1210 -224 183 -64 52
-1960 1604 -1786 1462 -2125 1739 -2560 2096 -376 308 -404 336 -458 462 l-23
55 6 -43 c7 -57 43 -125 94 -183 22 -26 38 -49 35 -51 -2 -3 186 -163 418
-355 919 -760 6227 -5130 6293 -5181 86 -67 205 -127 288 -147 91 -22 257 -19
353 5 175 44 287 124 538 381 88 90 340 346 561 569 980 991 1666 1689 1704
1735 23 28 58 83 79 124 32 65 37 84 40 165 8 171 -44 303 -167 426 -51 51
-376 302 -976 753 -971 730 -3517 2648 -4077 3072 -1125 851 -1685 1266 -1757
1304 -43 22 -107 47 -142 56 -87 20 -255 18 -346 -4z m-1070 -1730 c-3 -13 53
-56 73 -56 23 0 21 -20 -3 -23 -13 -2 -37 8 -57 23 -30 23 -40 25 -86 19 -30
-4 -54 -13 -57 -21 -9 -24 5 -27 57 -14 44 11 54 11 75 -3 30 -20 32 -39 4
-67 -14 -14 -30 -19 -52 -17 -18 2 -30 8 -27 13 3 6 15 9 26 7 27 -3 52 24 36
40 -7 7 -25 7 -61 -3 -46 -11 -52 -11 -71 6 -25 23 -25 40 1 66 17 17 28 20
56 14 32 -6 34 -4 28 14 -6 19 -3 21 27 17 18 -2 32 -9 31 -15z m3046 -694
c31 -13 101 -76 101 -92 1 -26 24 -36 142 -60 121 -24 257 -64 343 -100 110
-45 197 -87 213 -102 6 -6 21 -15 32 -18 11 -4 35 -20 52 -36 23 -20 34 -25
40 -16 4 7 6 3 5 -10 0 -12 -4 -20 -8 -17 -10 6 -30 -22 -21 -30 4 -4 2 -6 -3
-4 -6 2 -10 -1 -10 -7 0 -5 4 -9 8 -7 5 1 5 -2 2 -8 -5 -8 -13 -6 -26 6 -23
21 -25 8 -3 -17 12 -14 13 -18 2 -25 -7 -4 -10 -4 -6 1 4 4 3 14 -4 22 -9 11
-14 11 -29 -3 -14 -12 -16 -21 -8 -30 7 -8 7 -14 -1 -19 -6 -4 -9 -1 -8 5 2 7
-5 14 -14 15 -11 2 -18 -3 -18 -11 0 -10 5 -12 13 -8 9 6 9 5 0 -8 -7 -8 -10
-17 -7 -20 3 -3 1 -8 -3 -11 -14 -9 -9 58 6 76 7 9 16 15 20 13 4 -3 7 15 7
39 0 24 -4 41 -8 39 -5 -3 -6 -9 -3 -14 3 -5 1 -12 -5 -15 -8 -5 -8 -11 0 -20
7 -8 7 -15 1 -19 -5 -3 -11 -3 -14 1 -2 5 -2 2 0 -6 2 -8 -2 -11 -11 -8 -11 4
-13 1 -9 -11 6 -15 5 -15 -10 -3 -17 13 -16 16 5 40 l23 26 -26 -23 c-26 -22
-35 -53 -15 -49 6 1 11 -14 11 -35 1 -29 -2 -35 -16 -33 -11 2 -27 -11 -44
-36 -15 -24 -30 -37 -37 -33 -7 5 -9 2 -5 -9 3 -9 2 -19 -4 -22 -5 -4 -9 -3
-8 2 3 20 -2 34 -11 28 -5 -3 -7 -13 -4 -23 5 -14 4 -15 -5 -2 -9 13 -11 13
-11 0 0 -13 -2 -13 -9 0 -6 8 -8 17 -5 21 2 4 -1 11 -7 15 -7 4 -9 3 -5 -4 3
-6 2 -13 -4 -17 -5 -3 -10 -1 -10 6 0 7 -3 9 -7 6 -3 -4 -12 1 -20 11 -8 9
-12 11 -8 4 4 -7 -15 -3 -47 11 -106 47 -269 91 -378 103 -25 2 -63 7 -85 10
l-40 4 3 135 3 135 -38 0 c-40 0 -103 26 -139 57 -79 66 -58 184 39 220 34 13
103 8 146 -10z m-1611 -930 c76 -53 95 -141 42 -200 -123 -141 -406 33 -294
180 35 46 56 53 140 50 59 -2 78 -7 112 -30z m1804 -291 c61 -39 103 -81 112
-113 5 -17 0 -30 -19 -49 -22 -22 -33 -25 -62 -21 -39 7 -93 41 -148 94 -26
26 -35 42 -35 68 0 65 70 74 152 21z m1697 -218 c23 -105 32 -195 30 -295 l-3
-102 49 -33 c62 -42 88 -88 82 -146 -8 -72 -63 -112 -155 -112 -49 0 -49 0
-61 -42 -7 -24 -18 -52 -25 -63 -7 -11 -28 -47 -46 -80 -68 -123 -247 -312
-378 -398 -136 -90 -376 -203 -342 -162 7 8 16 12 21 9 5 -3 9 2 9 11 0 9 4
14 9 11 5 -3 14 1 20 8 10 12 9 14 -6 11 -10 -1 -26 4 -35 13 -10 8 -18 12
-18 7 0 -4 -7 -2 -15 5 -8 7 -12 17 -8 24 4 6 -1 5 -10 -3 -15 -12 -21 -9 -18
12 2 12 -6 8 -20 -10 -12 -15 -12 -16 1 -8 13 8 13 7 1 -8 -7 -9 -11 -17 -7
-17 17 0 21 3 18 13 -2 7 2 6 11 -1 8 -7 18 -8 22 -4 5 4 5 1 0 -7 -5 -9 -4
-12 3 -7 6 3 13 2 17 -4 4 -6 11 -7 17 -4 7 5 8 2 3 -6 -6 -9 -4 -11 5 -5 9 5
11 4 6 -4 -6 -9 -11 -9 -22 0 -8 6 -14 8 -14 4 0 -5 -9 0 -19 9 -14 12 -21 14
-26 6 -5 -8 -10 -9 -18 -1 -16 16 -18 43 -4 61 11 13 10 13 -7 0 -18 -14 -19
-13 -13 4 7 17 6 17 -10 5 -15 -13 -16 -12 -9 6 6 17 5 18 -6 7 -11 -11 -10
-15 2 -25 8 -7 16 -19 18 -27 1 -10 -3 -8 -14 5 -8 11 -19 19 -23 18 -5 -1 -7
8 -6 21 2 18 -2 23 -18 22 -12 0 -22 4 -22 11 0 6 -3 14 -7 18 -9 9 -5 -17 5
-33 5 -7 12 -10 17 -7 16 10 19 -12 5 -31 -14 -17 -14 -17 -9 -1 4 12 2 17 -7
15 -7 -2 -13 3 -14 10 0 6 -4 12 -10 11 -5 -1 -9 -6 -7 -12 1 -7 -9 0 -22 16
-24 26 -44 37 -31 18 3 -5 0 -13 -6 -17 -7 -4 -9 -3 -6 3 4 6 0 16 -8 23 -8 7
-15 18 -15 24 0 6 5 4 11 -4 9 -13 10 -13 6 0 -2 8 -10 14 -16 13 -11 -3 -16
11 -11 32 1 5 -2 7 -6 3 -4 -4 -14 -2 -23 5 -14 10 -14 10 -4 -4 7 -9 9 -20 5
-24 -4 -5 -1 -5 7 0 9 5 12 4 7 -3 -4 -7 -2 -12 4 -12 6 0 8 -5 4 -11 -5 -8
-10 -6 -16 5 -8 14 -12 15 -26 4 -15 -11 -15 -11 -4 3 9 12 10 23 2 40 -10 22
-10 22 -6 2 2 -13 -3 -28 -13 -35 -15 -12 -15 -11 -1 6 14 18 13 19 -2 13 -10
-3 -20 -2 -23 4 -4 5 -10 7 -15 4 -5 -3 -5 8 0 25 6 19 5 32 -2 36 -6 4 -9 3
-6 -2 4 -5 0 -22 -7 -39 l-13 -30 3 32 c4 36 -14 57 -52 59 -14 0 -29 7 -34
15 -6 10 -9 8 -9 -9 0 -13 4 -21 9 -17 5 3 26 -6 46 -19 27 -19 31 -24 16 -23
-12 1 -21 5 -21 9 0 4 -6 7 -12 5 -7 -1 -12 4 -10 12 2 9 -3 11 -13 7 -21 -8
-37 33 -21 54 9 13 9 13 -5 2 -10 -7 -15 -22 -13 -35 4 -21 4 -21 -6 1 -5 13
-8 28 -5 32 3 5 0 12 -6 16 -7 4 -9 3 -6 -3 4 -6 0 -19 -8 -29 -13 -18 -14
-18 -20 -1 -4 9 -5 27 -2 39 4 14 3 18 -4 11 -6 -6 -11 -20 -12 -32 -1 -11 -2
-21 -2 -21 -1 0 -12 11 -25 25 -26 28 -21 35 6 8 15 -16 17 -16 12 -2 -4 9 -2
21 3 26 6 6 4 10 -5 10 -8 0 -12 -5 -9 -10 3 -5 0 -7 -8 -5 -8 3 -13 10 -12
16 1 5 -5 16 -15 23 -14 11 -15 11 -5 -1 9 -10 10 -17 2 -27 -9 -10 -8 -18 2
-30 13 -17 12 -17 -4 -4 -11 8 -16 22 -14 33 3 11 1 16 -6 11 -6 -4 -8 0 -4
10 4 10 2 16 -6 14 -7 -1 -11 5 -9 13 3 12 1 12 -9 3 -10 -10 -16 -9 -31 4
-10 9 -18 13 -18 8 0 -4 -7 -2 -15 5 -8 7 -15 9 -15 4 0 -5 -4 -3 -9 4 -7 11
-9 11 -14 -1 -4 -11 0 -15 14 -12 12 3 17 0 13 -7 -4 -6 -3 -8 4 -4 6 3 13 2
17 -4 4 -6 11 -7 17 -4 7 4 8 2 4 -4 -4 -7 1 -9 15 -7 16 3 18 1 10 -9 -6 -7
-7 -17 -3 -22 4 -5 -5 2 -20 15 -16 14 -28 21 -28 16 0 -4 -9 0 -20 10 -11 10
-20 15 -20 10 0 -4 -6 -2 -13 4 -8 6 -16 9 -18 6 -3 -2 -5 4 -6 14 -1 16 11
19 140 24 329 14 573 127 737 342 50 66 107 180 127 258 19 73 22 272 5 331
-6 22 -9 43 -6 48 3 4 164 8 359 8 l353 0 11 -52z m-1996 -45 c58 -46 73 -54
87 -45 22 14 34 4 18 -16 -10 -11 -7 -18 15 -34 15 -11 25 -24 21 -29 -3 -5
-19 0 -35 12 l-29 20 -42 -35 c-33 -29 -44 -34 -54 -24 -11 13 -74 180 -74
199 0 20 25 7 93 -48z m-144 -98 c15 -15 12 -16 -32 -10 -52 8 -77 -4 -77 -36
0 -10 11 -26 25 -35 24 -16 30 -16 86 1 56 17 62 17 94 2 35 -17 53 -52 41
-83 -4 -9 -2 -22 3 -28 16 -19 -111 -19 -135 0 -18 14 -16 14 23 9 24 -4 50
-2 62 5 29 15 27 56 -4 76 -24 15 -29 15 -68 0 -63 -24 -94 -21 -129 14 -24
24 -29 36 -24 56 4 14 2 32 -4 39 -17 21 118 11 139 -10z m2661 -1282 c44 -29
90 -77 90 -93 0 -40 -56 -53 -100 -23 -53 35 -80 67 -80 94 0 41 46 52 90 22z
m2062 -317 c61 -39 113 -91 123 -123 8 -28 -33 -73 -66 -73 -62 0 -205 111
-215 166 -13 71 70 87 158 30z m-163 -117 c12 -11 26 -32 31 -45 6 -15 15 -22
24 -18 20 8 73 -21 92 -51 9 -14 13 -33 9 -44 -9 -30 -53 -61 -86 -61 -33 0
-86 42 -91 72 -2 16 -12 24 -38 29 -38 8 -80 49 -80 80 0 54 93 80 139 38z
m-136 -135 c18 -9 53 -37 79 -62 56 -54 70 -98 44 -137 -19 -29 -42 -25 -26 5
14 26 12 72 -4 93 -17 23 -24 22 -28 -5 -8 -60 -104 -61 -163 -2 -37 37 -47
88 -23 112 17 17 83 15 121 -4z m-238 -116 c6 -1 15 1 20 2 24 6 63 -1 81 -14
26 -19 13 -30 -19 -15 -49 22 -98 -10 -82 -54 4 -8 19 -20 34 -27 23 -9 36 -8
66 4 54 23 99 20 132 -8 22 -19 27 -31 26 -65 -1 -22 2 -41 8 -41 5 0 9 -3 9
-8 0 -12 -138 -8 -151 5 -19 19 -6 24 30 12 62 -22 106 36 61 81 -24 24 -51
25 -92 4 -40 -20 -103 -13 -131 15 -14 14 -21 33 -20 56 1 19 -3 38 -8 41 -17
10 -9 26 9 19 9 -4 22 -7 27 -7z m-965 -1089 c103 -63 162 -138 140 -179 -36
-67 -117 -48 -223 52 -46 43 -57 60 -57 85 0 17 7 39 16 47 22 22 83 20 124
-5z m-131 -147 c55 -37 128 -108 133 -130 13 -50 -35 -89 -95 -78 -35 7 -148
89 -175 127 -20 29 -18 80 3 95 31 23 88 17 134 -14z m-160 -155 c86 -69 92
-72 102 -56 7 12 10 12 21 0 11 -11 11 -14 0 -18 -10 -4 -6 -13 14 -34 34 -35
24 -50 -14 -22 l-28 21 -42 -40 c-23 -21 -46 -37 -51 -33 -10 6 -91 206 -91
224 0 22 24 10 89 -42z m-359 -238 c27 1 53 -4 65 -13 26 -18 14 -31 -15 -16
-28 15 -66 5 -80 -21 -9 -16 -8 -26 5 -46 15 -22 21 -24 61 -19 24 3 64 9 89
12 72 10 125 -38 104 -93 -5 -13 -4 -25 1 -28 20 -12 10 -27 -14 -21 -14 3
-35 2 -48 -3 -16 -6 -34 -5 -56 5 -33 13 -47 42 -14 29 46 -18 70 -17 91 4 27
27 27 45 -1 71 -26 24 -53 25 -101 5 -52 -21 -81 -19 -116 11 -25 21 -31 34
-31 64 0 21 -4 42 -10 45 -18 11 -11 28 8 19 9 -4 37 -6 62 -5z"/>
<path d="M5382 8145 c-43 -19 -63 -65 -48 -108 19 -53 39 -78 78 -98 43 -22
122 -26 115 -6 -2 6 0 22 4 35 9 22 7 23 -19 17 -62 -13 -121 38 -86 76 22 24
65 24 96 0 28 -22 99 -32 105 -15 6 19 -48 76 -92 95 -48 22 -108 24 -153 4z"/>
<path d="M3730 7233 c-114 -59 -56 -217 87 -239 59 -9 90 1 131 42 30 30 34
39 29 73 -14 104 -152 173 -247 124z"/>
<path d="M5612 6938 c-21 -21 -13 -44 30 -87 58 -57 122 -87 154 -72 36 16 30
48 -18 94 -75 71 -136 95 -166 65z"/>
<path d="M9890 4975 c-21 -25 -2 -63 53 -106 70 -56 113 -74 144 -60 47 21 23
69 -69 137 -63 46 -106 56 -128 29z"/>
<path d="M8406 3501 c-11 -12 -15 -27 -11 -40 12 -39 149 -141 188 -141 16 0
47 31 47 48 0 19 -67 88 -117 122 -54 35 -83 38 -107 11z"/>
<path d="M8267 3362 c-10 -10 -17 -24 -17 -30 0 -32 126 -138 177 -148 32 -6
63 15 63 42 0 37 -140 154 -185 154 -12 0 -29 -8 -38 -18z"/>
<path d="M4390 10350 c50 -41 160 -120 160 -116 0 2 16 -11 35 -29 73 -67 166
-123 102 -62 -13 12 -16 16 -7 9 9 -6 19 -9 23 -6 3 4 9 -5 12 -19 8 -32 70
-82 81 -65 5 7 3 8 -6 3 -9 -5 -11 -4 -6 4 6 9 11 9 22 0 16 -13 19 -23 4 -14
-5 3 -10 2 -10 -4 0 -5 18 -23 39 -40 28 -22 42 -28 47 -20 5 8 3 9 -6 4 -9
-6 -11 -4 -5 5 5 8 4 11 -3 6 -6 -3 -13 -2 -16 3 -4 5 0 8 6 7 23 -3 37 -16
32 -30 -4 -11 36 -47 51 -46 4 1 15 -9 26 -22 17 -21 18 -21 13 -3 -3 13 0 10
10 -7 9 -15 63 -61 121 -104 57 -42 102 -81 98 -87 -3 -5 -1 -7 5 -3 6 3 67
-37 136 -89 76 -58 134 -95 148 -95 13 0 30 -6 37 -12 10 -11 11 -10 6 2 -6
17 -66 60 -83 60 -7 0 -12 7 -12 15 0 8 -5 15 -10 15 -11 0 -60 33 -93 62 -11
9 -32 22 -48 28 -16 7 -29 19 -29 26 0 8 -4 14 -10 14 -5 0 -19 8 -30 18 -48
42 -57 49 -71 56 -33 16 -62 35 -68 43 -15 22 -64 52 -75 46 -7 -5 -7 -2 1 8
15 18 -9 77 -53 128 -62 74 -260 217 -400 290 -55 28 -68 31 -113 25 -35 -4
-51 -3 -51 5 0 6 -8 11 -17 11 -15 0 -13 -4 7 -20z"/>
<path d="M2740 10084 c-52 -42 -115 -93 -140 -114 -25 -21 -72 -59 -105 -84
-64 -50 -182 -143 -341 -270 -54 -44 -111 -92 -127 -108 -15 -15 -32 -28 -37
-28 -5 0 -15 -9 -22 -20 -7 -11 -17 -20 -23 -20 -5 0 -35 -22 -66 -48 -31 -26
-98 -81 -149 -122 -199 -161 -222 -180 -216 -180 4 0 -23 -21 -61 -47 -37 -26
-77 -46 -88 -45 -20 1 -20 1 -1 -14 19 -14 19 -14 -2 -15 -34 -2 -40 -3 -48
-11 -15 -16 -24 -7 -14 12 7 13 7 20 1 20 -6 0 -15 -9 -21 -20 -15 -28 -30
-25 -28 5 1 14 6 25 10 25 4 0 8 4 8 9 0 5 -11 9 -25 9 -18 0 -23 -4 -16 -12
6 -7 4 -18 -5 -30 -7 -10 -11 -23 -8 -27 3 -5 0 -9 -5 -9 -6 0 -11 7 -11 16 0
8 -4 12 -10 9 -6 -3 -10 4 -11 17 0 13 -3 17 -6 11 -2 -7 -9 -13 -14 -13 -4 0
-5 7 -2 17 4 11 3 14 -6 9 -7 -5 -10 -14 -7 -22 3 -7 1 -16 -4 -19 -6 -4 -10
2 -11 12 0 14 -2 14 -9 -4 -11 -27 -22 -31 -13 -5 3 9 2 13 -2 9 -5 -4 -15 3
-22 15 -12 22 -12 22 -9 -9 3 -27 1 -30 -14 -21 -11 7 -15 20 -13 37 3 24 2
24 -14 -6 -20 -38 -36 -44 -27 -9 3 14 1 27 -6 31 -9 5 -10 1 -5 -15 5 -17 4
-21 -6 -15 -9 6 -11 4 -6 -8 4 -11 2 -14 -8 -11 -11 5 -12 10 -2 24 6 11 8 23
4 27 -5 4 -11 2 -15 -4 -4 -6 -20 -12 -37 -14 -16 -2 -37 -8 -45 -13 -12 -8
-13 -8 -2 4 16 18 15 27 -3 34 -11 4 -15 0 -13 -12 2 -10 -3 -17 -12 -17 -9 0
-14 7 -12 17 2 13 -2 16 -13 12 -9 -4 -14 -13 -11 -21 3 -8 2 -12 -3 -8 -5 3
-11 2 -14 -2 -2 -5 -2 -2 -1 5 2 6 -1 12 -6 12 -6 0 -10 -6 -10 -14 0 -8 -4
-18 -10 -21 -5 -3 -7 0 -4 8 3 8 -2 19 -10 26 -13 11 -29 2 -98 -54 -140 -112
-154 -124 -155 -143 -2 -22 24 -25 31 -5 3 8 10 12 15 9 5 -3 11 1 14 9 4 8
15 12 27 10 16 -3 20 0 16 11 -4 10 -2 13 6 8 7 -5 9 -2 6 8 -4 8 0 15 7 15
10 0 5 -18 -15 -57 -16 -32 -26 -60 -23 -64 3 -3 18 20 34 52 15 31 28 51 28
44 1 -7 5 -11 10 -8 4 3 16 -3 26 -14 10 -11 22 -17 27 -14 4 3 8 2 7 -3 -1
-4 -1 -15 0 -23 1 -13 2 -13 11 0 7 11 10 11 10 2 0 -7 5 -10 10 -7 6 3 13 -1
16 -9 3 -9 10 -14 14 -11 5 3 11 1 15 -5 4 -6 11 -8 16 -4 5 3 8 0 7 -8 -2 -8
6 -13 19 -12 18 1 20 -2 13 -15 -5 -10 -5 -23 1 -32 8 -13 10 -11 13 20 1 19
36 23 43 5 4 -11 8 -12 20 -3 11 10 13 10 11 -1 -2 -8 2 -14 9 -15 6 0 15 -3
19 -7 4 -4 12 0 19 9 9 13 14 13 20 3 5 -9 4 -11 -3 -6 -7 4 -12 3 -12 -3 0
-22 19 -18 51 12 19 17 37 30 41 29 4 -1 15 9 24 23 9 14 20 22 25 19 5 -3 14
7 19 21 5 14 15 23 20 20 6 -3 13 1 16 9 3 9 12 16 20 16 7 0 18 9 24 20 6 11
15 18 19 16 5 -3 16 3 26 14 10 11 24 16 33 12 15 -5 15 -4 3 11 -12 15 -12
17 4 11 14 -6 16 -4 10 7 -7 11 -6 12 7 2 15 -13 28 -8 28 11 0 6 -5 4 -11 -4
-8 -12 -10 -12 -7 -1 2 8 12 15 21 17 10 1 15 -2 11 -9 -4 -7 8 4 25 23 17 19
36 35 42 35 6 0 21 12 32 27 12 15 28 28 36 30 8 2 34 22 58 46 25 23 50 39
56 35 7 -3 9 -3 6 1 -8 8 40 60 56 61 6 1 9 6 8 13 -2 6 4 9 11 6 9 -3 17 3
21 15 3 12 12 21 18 21 7 0 30 17 52 38 48 44 97 77 108 74 5 -1 6 2 2 8 -3 6
1 17 9 26 9 8 16 12 16 8 0 -3 6 -1 13 5 8 6 18 7 22 3 5 -4 5 -2 1 5 -4 7 3
17 16 24 12 7 31 23 41 36 10 13 23 21 28 18 5 -4 9 -1 9 4 0 11 38 53 43 49
1 -2 9 3 17 9 57 48 78 62 85 55 5 -4 6 -2 4 3 -6 11 47 66 55 57 4 -3 6 0 6
7 0 8 6 11 16 7 8 -3 13 -2 10 2 -5 9 6 20 65 65 20 15 39 24 43 19 4 -4 6 -2
4 4 -1 7 1 12 5 12 5 0 20 14 34 31 14 17 32 31 39 31 8 0 14 5 14 11 0 5 5 7
10 4 6 -4 9 -2 8 3 -2 5 29 35 67 66 39 31 87 71 108 89 21 18 43 31 48 29 6
-1 8 2 4 8 -3 5 -3 10 2 10 9 1 101 80 93 80 -3 0 -48 -34 -100 -76z"/>
<path d="M5731 9376 c6 -6 124 -96 314 -239 94 -71 171 -136 173 -145 2 -9 71
-68 154 -131 83 -63 148 -110 145 -104 -3 5 0 10 7 10 8 0 12 -6 9 -13 -5 -13
46 -56 60 -52 5 2 13 -5 18 -15 6 -9 15 -14 21 -11 7 5 8 2 4 -5 -5 -8 -1 -14
12 -18 11 -3 23 -12 26 -20 5 -13 9 -13 23 -2 13 11 15 11 9 1 -12 -20 22 -53
50 -48 13 3 24 0 24 -6 0 -5 -7 -8 -15 -5 -8 4 -17 3 -19 -2 -3 -4 0 -8 7 -9
32 -3 46 -11 91 -55 28 -28 55 -46 63 -43 8 3 12 2 9 -3 -8 -12 21 -34 33 -27
5 4 12 2 16 -4 4 -6 11 -7 17 -4 7 4 8 2 4 -5 -6 -9 -12 -9 -24 1 -15 12 -16
11 -3 -4 7 -10 17 -15 22 -12 8 5 13 -9 10 -28 0 -5 3 -7 8 -5 5 1 33 -16 63
-37 29 -22 46 -31 38 -20 -14 17 -13 18 1 7 9 -7 19 -10 23 -6 4 4 4 0 1 -8
-4 -11 11 -29 50 -58 30 -23 55 -39 55 -35 0 4 10 -5 21 -20 12 -15 24 -25 27
-22 3 3 -3 16 -14 28 l-19 23 23 -19 c12 -11 22 -25 22 -33 0 -7 5 -13 11 -13
5 0 7 5 3 12 -5 7 -3 8 5 4 7 -5 10 -13 8 -20 -2 -6 16 -26 42 -45 25 -19 39
-26 31 -15 -14 17 -13 18 1 7 9 -7 19 -10 23 -6 4 4 4 0 1 -9 -4 -9 -1 -19 6
-24 7 -4 10 -3 6 3 -3 5 0 10 7 10 8 0 12 -7 8 -15 -3 -10 -1 -13 6 -8 7 4 12
3 12 -1 0 -5 7 -18 15 -29 15 -19 15 -19 9 1 -3 11 2 7 11 -9 13 -22 19 -26
26 -15 7 11 9 11 9 1 0 -7 5 -10 11 -6 7 4 7 -1 -1 -16 -7 -13 -8 -20 -2 -16
6 3 14 2 17 -4 5 -8 11 -7 21 1 8 6 15 8 15 3 1 -5 2 -13 3 -19 0 -5 4 -10 7
-10 3 0 14 -7 25 -15 18 -14 18 -14 5 2 -7 10 -18 15 -25 11 -6 -3 -7 -2 -3 2
4 5 14 10 22 11 14 2 19 -11 18 -43 0 -7 2 -12 6 -11 13 2 41 -14 36 -22 -6
-9 15 -8 31 3 7 4 10 -2 9 -17 -2 -14 2 -23 11 -23 11 0 11 3 1 16 -10 14 -10
14 4 4 9 -7 19 -9 24 -5 4 4 3 -3 -3 -14 -9 -18 -8 -25 6 -35 15 -12 16 -12 4
2 -10 14 -10 18 3 23 9 3 13 2 10 -4 -7 -11 29 -32 40 -22 5 4 5 2 1 -5 -3 -6
-2 -14 4 -18 5 -3 10 -1 10 5 0 5 12 -2 28 -18 15 -15 21 -20 14 -11 -10 13
-11 19 -1 25 7 4 10 3 7 -2 -4 -5 10 -27 29 -49 19 -22 32 -34 27 -26 -4 9 -3
12 4 7 6 -4 8 -14 5 -24 -6 -15 -5 -15 10 -3 16 12 17 12 11 -5 -4 -10 -4 -16
1 -12 4 4 14 0 22 -10 10 -11 12 -12 8 -2 -4 10 -2 9 8 -2 16 -20 32 -25 21
-6 -4 7 -3 8 4 4 6 -4 9 -13 6 -20 -3 -7 2 -19 10 -26 9 -7 13 -17 10 -22 -4
-6 2 -6 13 1 24 12 37 3 22 -15 -7 -8 -6 -14 2 -20 7 -4 9 -3 6 3 -4 6 0 14 9
17 8 3 12 2 9 -4 -3 -6 -1 -10 5 -10 7 0 10 -7 7 -15 -4 -8 -2 -17 4 -20 5 -4
9 -3 8 2 -1 4 -1 15 1 23 1 11 3 11 9 -3 4 -10 10 -18 15 -17 4 1 14 -7 23
-17 8 -10 12 -13 9 -7 -11 22 20 10 39 -15 l19 -26 -22 19 c-12 11 -22 16 -22
11 0 -17 35 -34 47 -23 10 8 13 6 13 -7 0 -16 42 -57 56 -55 4 1 11 -5 16 -14
5 -9 14 -13 20 -10 7 4 8 2 4 -4 -3 -6 3 -16 14 -22 11 -6 20 -8 20 -4 0 3 6
1 13 -5 8 -6 17 -8 21 -4 4 4 4 0 1 -8 -3 -9 2 -22 12 -30 17 -13 17 -13 3 6
-14 18 -13 19 1 8 9 -7 19 -10 23 -6 4 4 4 0 1 -8 -3 -9 1 -22 9 -29 9 -7 14
-16 11 -20 -3 -5 -1 -11 4 -14 5 -4 13 -1 17 5 5 8 3 9 -7 4 -8 -5 -11 -4 -6
0 4 5 -1 18 -10 29 -15 17 -13 17 8 -2 15 -13 26 -31 25 -40 0 -10 6 -16 16
-16 10 1 16 -2 15 -7 -2 -10 85 -80 92 -74 2 3 -8 20 -23 39 -14 19 -26 39
-26 45 0 13 -127 141 -140 141 -6 0 -10 5 -10 10 0 6 -11 15 -25 20 -14 5 -28
17 -31 25 -4 8 -12 15 -19 15 -7 0 -15 4 -17 8 -1 4 -36 29 -75 56 -40 26 -73
52 -73 57 0 5 -7 9 -15 9 -8 0 -15 5 -15 10 0 6 -12 16 -27 23 -16 6 -39 22
-53 34 -14 13 -28 23 -31 23 -3 0 -19 12 -36 28 -64 60 -115 102 -122 102 -4
0 -25 15 -47 33 -34 29 -83 61 -156 103 -11 6 -35 26 -55 43 -19 17 -39 31
-44 31 -5 0 -12 6 -15 14 -3 8 -25 25 -50 37 -24 13 -44 27 -44 31 0 4 -20 19
-45 34 -25 14 -45 30 -45 34 0 9 -40 34 -72 46 -10 3 -18 12 -18 19 0 7 -8 16
-17 19 -28 10 -55 29 -93 64 -19 17 -39 32 -45 32 -5 0 -20 10 -31 23 -12 12
-34 29 -50 37 -15 8 -43 30 -61 48 -18 17 -39 32 -48 32 -8 0 -15 3 -15 8 0 4
-20 20 -45 35 -25 16 -45 33 -45 38 0 5 -4 9 -10 9 -5 0 -19 8 -30 18 -11 9
-29 25 -40 35 -11 9 -24 17 -30 17 -5 0 -10 4 -10 9 0 5 -13 14 -30 21 -16 7
-30 16 -30 20 0 5 -20 20 -45 34 -25 15 -45 31 -45 36 0 6 -7 10 -15 10 -8 0
-15 3 -15 8 0 4 -34 29 -75 56 -41 28 -75 53 -75 57 0 3 -30 26 -66 50 -36 24
-73 49 -81 54 -8 6 -31 25 -51 43 -20 17 -39 32 -43 32 -4 0 -23 14 -41 30
-18 17 -37 30 -43 30 -6 0 -26 16 -45 35 -19 19 -40 35 -47 35 -7 0 -16 6 -20
14 -4 8 -26 24 -48 37 -22 13 -47 31 -56 39 -31 29 -59 50 -68 50 -5 0 -11 7
-15 15 -3 8 -12 15 -19 15 -8 0 -20 7 -27 15 -7 8 -17 15 -23 15 -6 0 -8 -2
-6 -4z"/>
<path d="M621 8790 c-18 -42 -25 -49 -36 -40 -13 10 -12 16 0 41 17 31 20 52
5 29 -9 -13 -10 -13 -10 0 -1 9 -6 5 -15 -10 -9 -15 -15 -19 -15 -10 0 9 -6 5
-15 -10 -9 -15 -14 -19 -15 -10 0 12 -2 12 -9 2 -7 -11 -10 -10 -15 3 -3 9 -4
21 0 26 3 5 0 9 -5 9 -6 0 -16 -9 -23 -20 -7 -11 -18 -20 -24 -20 -6 0 -18 -8
-27 -18 -14 -15 -14 -19 -3 -19 8 0 14 5 13 11 -1 5 6 12 17 14 11 2 16 0 12
-7 -4 -6 -2 -11 3 -11 6 0 11 4 11 9 0 17 32 5 51 -20 16 -21 18 -22 24 -6 4
9 11 15 16 12 4 -3 6 -12 3 -20 -4 -9 1 -13 15 -12 12 1 21 8 21 17 1 12 3 12
14 -2 12 -17 14 -17 31 2 16 18 20 19 35 5 9 -8 20 -12 23 -8 4 3 7 0 7 -8 0
-11 2 -11 10 1 9 13 10 13 11 0 1 -8 1 -18 0 -22 0 -4 9 -5 20 -3 11 2 22 -2
26 -11 3 -8 11 -13 18 -11 6 3 17 -4 24 -15 7 -11 15 -17 18 -14 3 3 12 -2 20
-10 8 -8 19 -12 24 -9 5 4 9 1 9 -4 0 -21 38 -11 69 18 30 28 38 42 24 40 -5
-1 -11 0 -15 1 -5 1 -12 4 -18 5 -5 1 -12 4 -15 5 -3 1 -10 3 -15 4 -6 0 -15
8 -20 16 -9 13 -10 13 -10 0 0 -13 -2 -13 -11 0 -9 13 -10 13 -6 -2 3 -9 0
-22 -8 -28 -10 -9 -16 -7 -23 7 -5 10 -8 24 -6 31 1 7 0 8 -3 2 -2 -6 -14 1
-25 15 -11 14 -23 23 -28 20 -5 -3 -13 3 -19 12 -8 14 -10 15 -11 3 0 -13 -1
-13 -10 0 -9 13 -10 13 -10 0 0 -8 -8 -1 -18 15 -11 17 -27 37 -37 45 -17 14
-18 13 -12 -2 17 -42 19 -53 9 -39 -8 11 -11 11 -16 0 -3 -8 -4 -5 -1 6 2 11
1 26 -4 33 -5 9 -15 -2 -30 -38z"/>
<path d="M85 8141 c3 -35 5 -73 5 -83 0 -11 4 -17 8 -14 5 3 7 -8 4 -23 -5
-35 22 -64 55 -58 13 2 22 2 19 0 -2 -3 2 -22 9 -44 11 -29 11 -39 2 -39 -7 0
-8 -3 -2 -8 16 -12 16 -32 0 -26 -20 8 -19 -2 6 -42 11 -19 26 -31 31 -28 6 4
8 3 5 -3 -4 -6 11 -27 33 -47 39 -36 58 -46 44 -24 -5 7 -3 8 5 3 9 -5 12 0 9
16 -4 27 25 65 41 54 18 -10 13 -32 -14 -59 -21 -21 -22 -26 -10 -36 8 -7 14
-20 14 -29 -1 -13 -2 -13 -6 2 -2 9 -9 15 -14 11 -5 -3 -8 -2 -7 3 2 4 -1 9
-7 11 -5 1 -10 -1 -10 -5 0 -5 -12 -24 -27 -43 -90 -119 -179 -299 -218 -440
-54 -190 -71 -448 -41 -620 30 -180 88 -348 154 -452 21 -31 37 -60 37 -64 0
-4 19 -32 42 -63 132 -174 219 -261 503 -503 77 -65 167 -142 199 -171 33 -29
69 -59 82 -67 12 -9 42 -33 65 -55 24 -22 66 -58 94 -80 28 -22 76 -61 106
-87 30 -26 110 -95 179 -153 69 -58 154 -132 189 -163 70 -63 140 -122 246
-209 39 -31 81 -68 95 -81 14 -14 42 -37 63 -53 21 -15 59 -46 85 -68 119
-102 202 -171 281 -236 47 -38 95 -78 106 -88 11 -10 52 -43 90 -73 39 -30
113 -88 165 -129 52 -41 127 -99 165 -129 79 -60 359 -289 585 -476 47 -39
117 -96 155 -128 39 -31 95 -77 125 -103 30 -26 141 -118 245 -204 105 -86
215 -178 245 -204 30 -25 78 -64 105 -86 28 -22 68 -55 91 -75 43 -37 150
-126 374 -310 74 -61 146 -120 160 -132 14 -12 61 -51 104 -86 43 -35 88 -73
100 -84 12 -11 44 -37 71 -58 28 -20 61 -48 75 -62 14 -13 59 -51 100 -84 41
-33 86 -70 100 -82 21 -18 62 -52 185 -154 11 -9 81 -66 155 -127 135 -111
209 -173 328 -273 35 -29 79 -65 98 -79 19 -15 71 -58 117 -96 147 -124 322
-265 518 -417 65 -51 244 -166 258 -166 5 0 11 -4 13 -9 7 -19 172 -91 303
-132 55 -17 97 -19 512 -19 l453 0 107 36 c135 45 220 88 358 180 136 91 171
119 310 247 163 151 675 667 1485 1497 217 223 423 432 456 465 66 64 205 213
291 311 191 217 309 409 371 604 93 293 100 560 21 860 -79 303 -274 573 -597
830 -45 36 -110 87 -145 114 -60 47 -127 124 -127 145 0 5 -10 18 -22 28 -13
10 -24 25 -26 33 -7 29 -93 148 -136 188 -51 47 -115 82 -150 82 -44 0 -38
-18 18 -56 31 -20 53 -41 49 -47 -3 -5 -1 -7 5 -3 5 3 36 -16 68 -43 32 -27
62 -47 68 -44 5 4 6 1 1 -6 -9 -15 43 -73 58 -64 6 3 7 1 4 -4 -4 -6 8 -30 27
-54 40 -53 82 -134 107 -208 22 -64 22 -64 7 -55 -10 6 -10 4 0 -7 18 -19 16
-187 -4 -263 -21 -82 -73 -189 -121 -253 -40 -52 -482 -509 -1093 -1128 -179
-181 -397 -403 -484 -492 -88 -89 -163 -160 -167 -158 -3 3 -12 -2 -19 -10 -7
-8 -9 -15 -4 -15 4 0 -11 -20 -35 -44 -24 -25 -49 -44 -55 -43 -5 1 -10 -4
-11 -10 0 -7 -71 -82 -157 -168 -87 -85 -158 -158 -158 -162 0 -13 -54 -63
-67 -63 -7 0 -23 -17 -37 -37 -24 -39 -66 -82 -66 -68 0 4 -7 2 -15 -5 -8 -7
-13 -16 -10 -20 2 -3 -14 -24 -35 -45 -22 -22 -40 -35 -40 -31 0 5 -7 3 -15
-4 -8 -7 -13 -16 -10 -20 6 -10 -99 -108 -160 -150 -237 -163 -555 -188 -830
-67 -97 43 -65 18 -2165 1756 -360 299 -855 708 -1100 911 -245 202 -611 506
-814 673 -206 171 -374 303 -381 300 -16 -6 -504 399 -523 433 -7 13 -10 24
-6 24 18 0 -90 74 -109 74 -28 2 -504 398 -520 433 -9 20 -205 184 -332 277
-60 45 -219 179 -228 192 -4 7 -145 127 -314 266 -169 139 -344 288 -390 332
-53 50 -83 72 -83 61 0 -9 3 -14 8 -12 4 3 8 -8 9 -24 2 -29 -10 -39 -23 -17
-4 7 -3 8 4 4 14 -9 15 4 2 24 -9 13 -10 13 -10 0 0 -10 -3 -11 -8 -4 -4 6
-15 10 -24 9 -11 -2 -15 2 -11 13 4 9 2 13 -4 9 -6 -4 -22 2 -35 13 -14 11
-29 16 -34 12 -5 -4 -2 1 5 11 10 13 17 14 26 7 10 -8 15 -8 21 1 4 7 3 9 -4
5 -6 -3 -13 -2 -17 4 -3 5 -1 10 4 10 6 0 11 8 11 18 0 11 -3 13 -8 6 -5 -8
-13 -3 -26 15 -11 14 -16 23 -11 19 4 -4 14 -3 22 4 7 6 16 8 20 4 3 -3 1 -6
-5 -6 -7 0 -12 -7 -12 -15 0 -8 3 -14 8 -14 19 3 33 -2 27 -11 -3 -6 1 -13 9
-16 16 -6 28 -31 36 -76 1 -7 5 -2 9 12 6 18 1 33 -15 56 -45 59 -86 178 -86
249 0 22 -2 25 -7 11 -4 -10 -6 -32 -5 -50 l2 -31 -20 25 c-11 14 -23 24 -26
22 -4 -2 -8 2 -10 10 -2 9 0 8 7 -2 8 -11 11 -12 11 -2 0 18 -26 43 -35 34 -5
-4 -5 -2 -2 4 4 6 -5 22 -18 34 -29 27 -34 17 -7 -14 11 -14 12 -17 2 -10 -18
13 -46 12 -43 -2 1 -5 -9 -11 -23 -12 -14 -1 -23 3 -21 10 4 23 -48 15 -71
-11 -23 -25 -23 -25 -8 -2 11 17 12 28 5 37 -7 8 -7 14 1 19 8 5 7 11 -2 22
-6 8 -13 33 -14 55 -1 22 -8 44 -15 49 -13 8 -5 13 15 10 5 -1 4 4 -2 12 -7 8
-9 17 -5 21 4 4 -1 4 -11 0 -15 -6 -17 -4 -11 7 4 8 5 11 0 7 -4 -4 -14 -3
-22 3 -9 8 -17 8 -26 0 -10 -8 -14 -7 -14 4 0 8 4 12 9 9 4 -3 8 -1 8 5 0 5
-5 11 -12 13 -6 2 -15 26 -19 54 -7 44 -8 42 -4 -15z"/>
</g>
</svg>
